<svg version="1.1" id="Слой_1" xmlns="http://www.w3.org/2000/svg" x="0" y="0" viewBox="0 0 672.5 674.8" xml:space="preserve"><style>.st0{fill:#f4d926}.st1{fill:#c8d300}.st2{fill:#e79e20}.st3{fill:#95c11e}</style><path class="st0" d="M252.6 337.4l-27.8 27.9 27.8 27.8 41.8-41.8-13.9-13.9zm0-55.7l41.8 41.8-13.9 13.9h-27.9l-27.8-27.8z"/><path class="st1" d="M419.8 337.4l27.9-27.9-27.9-27.8-41.8 41.8 14 13.9zm0 55.7L378 351.3l14-13.9h27.8l27.9 27.9z"/><path class="st2" d="M336.2 421l27.9 27.9L392 421l-41.8-41.8-14 13.9zm-55.7 0l41.8-41.8 13.9 13.9V421l-27.8 27.9z"/><path class="st3" d="M336.2 253.8l-27.8-27.9-27.9 27.9 41.8 41.8 13.9-13.9zm55.8 0l-41.8 41.8-14-13.9v-27.9l27.9-27.9z"/><path transform="rotate(-45.001 336.245 337.423)" class="st3" d="M322.3 323.5h27.9v27.9h-27.9z"/><path fill="#478bc2" d="M85.5 337.4l-44.8 44.8v77.6l44.8 44.9 125.4-125.5-41.9-41.8z"/><path fill="#50b6de" d="M85.5 170.2L40.7 215v77.6l44.8 44.8H169l41.9-41.7z"/><path fill="#b2267b" d="M587 170.2L461.6 295.7l41.9 41.7H587l44.8-44.8V215z"/><path fill="#d64085" d="M503.5 337.4l-41.9 41.8L587 504.7l44.8-44.9v-77.6L587 337.4z"/><path class="st2" d="M378 462.8l-41.8 41.9v83.5l44.9 44.8h77.6l44.8-44.8z"/><path class="st0" d="M294.5 462.8L169 588.2l44.8 44.8h77.6l44.8-44.8v-83.5z"/><path class="st3" d="M213.8 41.8L169 86.7 294.5 212l41.7-41.8V86.7l-44.8-44.9z"/><path class="st1" d="M381.1 41.8l-44.9 44.9v83.5L378 212 503.5 86.7l-44.8-44.9z"/></svg>