<svg xmlns="http://www.w3.org/2000/svg" xmlns:xlink="http://www.w3.org/1999/xlink" viewBox="0 0 563.1 272.3"><style>.st342{fill:#e17413}.st343{fill:#4aa337}</style><g id="Слой_5"><path d="M261.1 88.6l-6.2 6.2 6.2 6.2 9.3-9.3-3.1-3.1zm0-12.4l9.3 9.3-3.1 3.1h-6.2l-6.2-6.2z" fill="#eab619"/><path d="M298.4 88.6l6.2-6.2-6.2-6.2-9.3 9.3 3.1 3.1zm0 12.4l-9.3-9.3 3.1-3.1h6.2l6.2 6.2z" fill="#8bb52b"/><path class="st342" d="M279.8 107.2l6.2 6.3 6.2-6.3-9.3-9.3-3.1 3.1z"/><path class="st342" d="M267.3 107.2l9.4-9.3 3.1 3.1v6.2l-6.2 6.3z"/><path class="st343" d="M279.8 69.9l-6.3-6.2-6.2 6.2 9.4 9.4 3.1-3.1z"/><path class="st343" d="M292.2 69.9l-9.3 9.4-3.1-3.1v-6.3l6.2-6.2z"/><path transform="rotate(-45.001 279.766 88.599)" fill="#96b928" d="M276.7 85.5h6.2v6.2h-6.2z"/><path fill="#4689c1" d="M223.8 88.6l-10 10v17.3l10 10 28-28-9.3-9.3z"/><path fill="#4fb5dd" d="M223.8 51.3l-10 10v17.3l10 10h18.7l9.3-9.3z"/><path fill="#b0257a" d="M335.7 51.3l-28 28 9.4 9.3h18.6l10-10V61.3z"/><path fill="#d53f84" d="M317.1 88.6l-9.4 9.3 28 28 10-10V98.6l-10-10z"/><path fill="#f3c920" d="M289.1 116.6l-9.3 9.3v18.6l10 10h17.3l10-10z"/><path fill="#f3d825" d="M270.5 116.6l-28 27.9 10 10h17.3l10-10v-18.6z"/><path fill="#c6cc1e" d="M252.5 22.7l-10 10 28 27.9 9.3-9.3V32.7l-10-10z"/><path fill="#ddd624" d="M289.8 22.7l-10 10v18.6l9.3 9.3 28-27.9-10-10z"/><defs><path id="SVGID_256_" d="M42.9 213l1.1-4.8 1.1 4.8 5.6 17.5H37.4l5.5-17.5zm-2.5-12.2l-9.5 29.7h-6.3v5.7H29l-4.2 13.1h6.5l4.1-13.1h17l1.8 5.5c.5 1.6 1.1 3 1.7 4 .6 1 1.3 1.8 2.1 2.3.8.5 1.6.9 2.6 1 1 .2 2.1.3 3.3.3h2.5v-5.7h-1.6c-1.4 0-2.5-.3-3.1-.8-.6-.5-1.1-1.4-1.5-2.5l-12.6-39.5h-7.2z"/></defs><clipPath id="SVGID_1_"><use xlink:href="#SVGID_256_" overflow="visible"/></clipPath><linearGradient id="SVGID_2_" gradientUnits="userSpaceOnUse" x1="-311.108" y1="1269.729" x2="-309.689" y2="1269.729" gradientTransform="matrix(160.6158 2.1559 2.1559 -160.6158 47240.09 204833.875)"><stop offset="0" stop-color="#e27615"/><stop offset="1" stop-color="#eab519"/></linearGradient><path clip-path="url(#SVGID_1_)" fill="url(#SVGID_2_)" d="M24.7 200.3l42.5.5-.7 49.1-42.5-.5z"/><defs><path id="SVGID_259_" d="M81.2 206.5H89c1.6 0 3 .2 4.2.7 1.2.5 2.2 1.1 3 1.9.8.8 1.4 1.7 1.8 2.8.4 1.1.6 2.2.6 3.2 0 2.6-.8 4.8-2.4 6.5-1.6 1.7-4 2.5-7.2 2.5h-7.8v-17.6zm-15.4-5.7v5.7h9.1v42.9h6.4v-19.6h8.9l9.9 13.4c1.5 2.1 3.1 3.6 4.7 4.7 1.6 1 3.6 1.5 6 1.5h3.1v-5.7h-1.2c-1.5 0-2.8-.2-3.9-.5s-2.1-1.1-3-2.4l-9-12.4c2.6-1.2 4.6-2.9 6-5.2 1.3-2.3 2-4.7 2-7.2 0-2-.3-3.9-.9-5.7-.6-1.8-1.6-3.4-3-4.8s-3.2-2.5-5.6-3.4c-2.3-.8-5.2-1.3-8.7-1.3H65.8z"/></defs><clipPath id="SVGID_3_"><use xlink:href="#SVGID_259_" overflow="visible"/></clipPath><linearGradient id="SVGID_4_" gradientUnits="userSpaceOnUse" x1="-311.108" y1="1269.73" x2="-309.689" y2="1269.73" gradientTransform="scale(160.6303 -160.6303) rotate(-.769 -94859.322 -22548.612)"><stop offset="0" stop-color="#e27615"/><stop offset="1" stop-color="#eab519"/></linearGradient><path clip-path="url(#SVGID_3_)" fill="url(#SVGID_4_)" d="M65.8 200.2l48.7.6-.6 49.2-48.8-.6z"/><defs><path id="SVGID_262_" d="M121.6 200.8c-1.8 0-3.4.2-4.6.7-1.2.5-2.1 1.1-2.8 1.9-.7.8-1.1 1.7-1.4 2.8-.3 1-.4 2.2-.4 3.4v2.5h5.5v-1.6c0-1.3.3-2.3.9-3 .6-.7 1.9-1 3.8-1h7.3v42.9h6.4v-42.9H152v-5.7h-30.4z"/></defs><clipPath id="SVGID_5_"><use xlink:href="#SVGID_262_" overflow="visible"/></clipPath><linearGradient id="SVGID_6_" gradientUnits="userSpaceOnUse" x1="-311.108" y1="1269.73" x2="-309.689" y2="1269.73" gradientTransform="scale(160.6303 -160.6303) rotate(-.769 -94859.06 -22548.614)"><stop offset="0" stop-color="#e27615"/><stop offset="1" stop-color="#eab519"/></linearGradient><path clip-path="url(#SVGID_5_)" fill="url(#SVGID_6_)" d="M112.4 200.3l40.1.5-.6 49.1-40.2-.5z"/><defs><path id="SVGID_265_" d="M221.6 200.8c-2.4 0-4.4.5-6 1.5-1.5 1-3.1 2.6-4.6 4.7l-11.8 16.4v-22.6h-6.4v48.6h6.4v-16.2l3.6-4.9 12.3 14.9c.8 1 1.6 1.9 2.3 2.7.7.8 1.5 1.4 2.4 1.9.8.5 1.7.9 2.7 1.2.9.3 2 .4 3.2.4h4v-5.7H228c-1.5 0-2.8-.2-3.8-.5-1.1-.3-2-1-2.9-2l-14.7-17.9 10.4-14c.6-.8 1.4-1.5 2.3-2 .9-.5 2.1-.7 3.7-.7h2v-5.7h-3.4z"/></defs><clipPath id="SVGID_7_"><use xlink:href="#SVGID_265_" overflow="visible"/></clipPath><linearGradient id="SVGID_8_" gradientUnits="userSpaceOnUse" x1="-311.108" y1="1269.733" x2="-309.689" y2="1269.733" gradientTransform="matrix(160.6158 2.1559 2.1559 -160.6158 47240.11 204832.234)"><stop offset="0" stop-color="#e27615"/><stop offset="1" stop-color="#eab519"/></linearGradient><path clip-path="url(#SVGID_7_)" fill="url(#SVGID_8_)" d="M192.9 200.3l37.3.5-.6 49.1-37.4-.5z"/><defs><path id="SVGID_268_" d="M483.3 222.3h13.5v5.7h-13.5z"/></defs><clipPath id="SVGID_9_"><use xlink:href="#SVGID_268_" overflow="visible"/></clipPath><linearGradient id="SVGID_10_" gradientUnits="userSpaceOnUse" x1="-311.133" y1="1268.753" x2="-309.714" y2="1268.753" gradientTransform="matrix(212.0485 0 0 -212.0485 66216.094 269262.188)"><stop offset="0" stop-color="#4689c1"/><stop offset=".999" stop-color="#51b5dd"/><stop offset="1" stop-color="#51b5dd"/></linearGradient><path clip-path="url(#SVGID_9_)" fill="url(#SVGID_10_)" d="M483.3 222.3h13.5v5.7h-13.5z"/><defs><path id="SVGID_271_" d="M474.1 200.8v48.6h6.3v-42.9h20.5v-5.7z"/></defs><clipPath id="SVGID_11_"><use xlink:href="#SVGID_271_" overflow="visible"/></clipPath><linearGradient id="SVGID_12_" gradientUnits="userSpaceOnUse" x1="-311.133" y1="1268.753" x2="-309.714" y2="1268.753" gradientTransform="matrix(212.0485 0 0 -212.0485 66216.094 269262.188)"><stop offset="0" stop-color="#4689c1"/><stop offset=".999" stop-color="#51b5dd"/><stop offset="1" stop-color="#51b5dd"/></linearGradient><path clip-path="url(#SVGID_11_)" fill="url(#SVGID_12_)" d="M474.1 200.8h26.8v48.6h-26.8z"/><defs><path id="SVGID_274_" d="M483.3 243.7h21v5.7h-21z"/></defs><clipPath id="SVGID_13_"><use xlink:href="#SVGID_274_" overflow="visible"/></clipPath><linearGradient id="SVGID_14_" gradientUnits="userSpaceOnUse" x1="-311.133" y1="1268.723" x2="-309.714" y2="1268.723" gradientTransform="matrix(212.0485 0 0 -212.0485 66216.094 269277.281)"><stop offset="0" stop-color="#4689c1"/><stop offset=".999" stop-color="#51b5dd"/><stop offset="1" stop-color="#51b5dd"/></linearGradient><path clip-path="url(#SVGID_13_)" fill="url(#SVGID_14_)" d="M483.3 243.7h21v5.7h-21z"/><defs><path id="SVGID_277_" d="M167.2 222.3h15.2v5.7h-15.2z"/></defs><clipPath id="SVGID_15_"><use xlink:href="#SVGID_277_" overflow="visible"/></clipPath><linearGradient id="SVGID_16_" gradientUnits="userSpaceOnUse" x1="-311.738" y1="1268.42" x2="-310.319" y2="1268.42" gradientTransform="matrix(238.7327 0 0 -238.7327 74316.266 303038.531)"><stop offset="0" stop-color="#e27615"/><stop offset="1" stop-color="#eab519"/></linearGradient><path clip-path="url(#SVGID_15_)" fill="url(#SVGID_16_)" d="M167.2 222.3h15.2v5.7h-15.2z"/><defs><path id="SVGID_280_" d="M158 200.8v48.6h6.3v-42.9h22.2v-5.7z"/></defs><clipPath id="SVGID_17_"><use xlink:href="#SVGID_280_" overflow="visible"/></clipPath><linearGradient id="SVGID_18_" gradientUnits="userSpaceOnUse" x1="-311.66" y1="1268.575" x2="-310.241" y2="1268.575" gradientTransform="matrix(225.5075 0 0 -225.5075 70191.672 286298.281)"><stop offset="0" stop-color="#e27615"/><stop offset="1" stop-color="#eab519"/></linearGradient><path clip-path="url(#SVGID_17_)" fill="url(#SVGID_18_)" d="M158 200.8h28.5v48.6H158z"/><defs><path id="SVGID_283_" d="M167.2 243.7h19.3v5.7h-19.3z"/></defs><clipPath id="SVGID_19_"><use xlink:href="#SVGID_283_" overflow="visible"/></clipPath><linearGradient id="SVGID_20_" gradientUnits="userSpaceOnUse" x1="-311.443" y1="1268.982" x2="-310.024" y2="1268.982" gradientTransform="matrix(194.8904 0 0 -194.8904 60641.7 247559.031)"><stop offset="0" stop-color="#e27615"/><stop offset="1" stop-color="#eab519"/></linearGradient><path clip-path="url(#SVGID_19_)" fill="url(#SVGID_20_)" d="M167.2 243.7h19.3v5.7h-19.3z"/><defs><path id="SVGID_286_" d="M249.5 200.8v5.7h9.1v42.9h6.4v-42.9h2.4c3 0 5.2.5 6.7 1.6 1.5 1 2.2 2.5 2.2 4.5 0 2.2-.7 4-2.1 5.3-1.4 1.4-3.5 2.2-6.4 2.4v4.9h5.1c2.4 0 4.4.3 6.2.8 1.7.5 3.1 1.3 4.3 2.2 1.1.9 2 1.9 2.5 3.1.5 1.1.8 2.3.8 3.5 0 1.2-.2 2.3-.5 3.4s-1 2-1.9 2.8c-.9.8-2.2 1.5-3.7 1.9-1.5.5-3.5.7-5.9.7h-6.9v5.7h7.7c3.1 0 5.8-.4 8-1.3 2.2-.8 4-2 5.3-3.3 1.4-1.4 2.4-2.9 3-4.7.6-1.8.9-3.6.9-5.4 0-1.6-.3-3.2-.9-4.8-.6-1.6-1.4-3-2.6-4.3-1.2-1.3-2.6-2.4-4.4-3.3-1.8-.9-3.8-1.5-6.2-1.8 1.4-1.4 2.4-2.9 2.9-4.4.5-1.6.7-2.9.7-3.8 0-1.5-.3-3-.8-4.4-.5-1.4-1.4-2.6-2.5-3.6s-2.5-1.8-4.1-2.4c-1.6-.6-3.6-.9-5.8-.9h-19.5z"/></defs><clipPath id="SVGID_21_"><use xlink:href="#SVGID_286_" overflow="visible"/></clipPath><linearGradient id="SVGID_22_" gradientUnits="userSpaceOnUse" x1="-311.133" y1="1268.753" x2="-309.714" y2="1268.753" gradientTransform="matrix(212.0485 0 0 -212.0485 66216.094 269262.188)"><stop offset="0" stop-color="#4689c1"/><stop offset=".999" stop-color="#51b5dd"/><stop offset="1" stop-color="#51b5dd"/></linearGradient><path clip-path="url(#SVGID_21_)" fill="url(#SVGID_22_)" d="M249.5 200.8h43.1v48.6h-43.1z"/><defs><path id="SVGID_289_" d="M328.3 200.8v32.5c0 3.2-.9 5.7-2.7 7.3-1.8 1.6-4.3 2.5-7.5 2.5h-1.6c-3.2 0-5.7-.8-7.5-2.5-1.8-1.6-2.7-4.1-2.7-7.3V210c0-3.5-.8-5.9-2.5-7.2-1.7-1.3-4.1-2-7.2-2h-2.2v5.7h1.7c1.5 0 2.5.4 3.1 1.3.5.9.8 2.3.8 4.1v21.4c0 5.2 1.4 9.2 4.3 12 2.9 2.7 6.9 4.1 12.2 4.1h1.6c5.3 0 9.4-1.4 12.2-4.1 2.9-2.7 4.3-6.7 4.3-12v-32.5h-6.3z"/></defs><clipPath id="SVGID_23_"><use xlink:href="#SVGID_289_" overflow="visible"/></clipPath><linearGradient id="SVGID_24_" gradientUnits="userSpaceOnUse" x1="-311.133" y1="1268.753" x2="-309.714" y2="1268.753" gradientTransform="matrix(212.0485 0 0 -212.0485 66216.094 269262.188)"><stop offset="0" stop-color="#4689c1"/><stop offset=".999" stop-color="#51b5dd"/><stop offset="1" stop-color="#51b5dd"/></linearGradient><path clip-path="url(#SVGID_23_)" fill="url(#SVGID_24_)" d="M294.5 200.8h40.2v48.6h-40.2z"/><defs><path id="SVGID_292_" d="M372 200.8c-2.4 0-4.4.5-6 1.5-1.5 1-3.1 2.6-4.6 4.7l-11.8 16.4v-22.6h-6.4v48.6h6.4v-16.2l3.6-4.9 12.3 14.9c.8 1 1.6 1.9 2.3 2.7.7.8 1.5 1.4 2.4 1.9.8.5 1.7.9 2.7 1.2.9.3 2 .4 3.2.4h4v-5.7h-1.6c-1.5 0-2.8-.2-3.8-.5-1.1-.3-2-1-2.9-2l-14.7-17.9 10.4-14c.6-.8 1.4-1.5 2.3-2 .9-.5 2.1-.7 3.7-.7h2v-5.7H372z"/></defs><clipPath id="SVGID_25_"><use xlink:href="#SVGID_292_" overflow="visible"/></clipPath><linearGradient id="SVGID_26_" gradientUnits="userSpaceOnUse" x1="-311.133" y1="1268.753" x2="-309.714" y2="1268.753" gradientTransform="matrix(212.0485 0 0 -212.0485 66216.094 269262.188)"><stop offset="0" stop-color="#4689c1"/><stop offset=".999" stop-color="#51b5dd"/><stop offset="1" stop-color="#51b5dd"/></linearGradient><path clip-path="url(#SVGID_25_)" fill="url(#SVGID_26_)" d="M343.3 200.8H380v48.6h-36.7z"/><defs><path id="SVGID_295_" d="M450.9 237.2l-1 4.4-1-4.4-9.2-28.8c-.5-1.6-1.1-3-1.8-4-.6-1-1.3-1.8-2.1-2.3-.8-.5-1.6-.9-2.6-1-1-.2-2.1-.3-3.3-.3h-2.5v5.7h1.6c1.4 0 2.5.3 3.1.8.6.5 1.1 1.4 1.5 2.5l12.6 39.5h7.2l15.1-47.1-6-1.9-11.6 36.9z"/></defs><clipPath id="SVGID_27_"><use xlink:href="#SVGID_295_" overflow="visible"/></clipPath><linearGradient id="SVGID_28_" gradientUnits="userSpaceOnUse" x1="-311.133" y1="1268.753" x2="-309.714" y2="1268.753" gradientTransform="matrix(212.0485 0 0 -212.0485 66216.094 269262)"><stop offset="0" stop-color="#4689c1"/><stop offset=".999" stop-color="#51b5dd"/><stop offset="1" stop-color="#51b5dd"/></linearGradient><path clip-path="url(#SVGID_27_)" fill="url(#SVGID_28_)" d="M427.4 200.3h41.2v49.1h-41.2z"/><defs><path id="SVGID_298_" d="M508.6 200.8v39.4c0 1 .1 1.9.4 2.8.4 1.4 1.2 2.6 2.2 3.6.8.8 1.8 1.5 3 1.9 1.2.5 2.5.7 3.8.7h18.6c1 0 1.9-.8 1.9-1.9v-7.8h-5.8v4h-12.5c-1.6 0-2.9-.4-3.8-1.1-.9-.7-1.4-2.1-1.4-4v-37.7h-6.4z"/></defs><clipPath id="SVGID_29_"><use xlink:href="#SVGID_298_" overflow="visible"/></clipPath><linearGradient id="SVGID_30_" gradientUnits="userSpaceOnUse" x1="-311.133" y1="1268.753" x2="-309.714" y2="1268.753" gradientTransform="matrix(212.0489 0 0 -212.0489 66216.219 269262.688)"><stop offset="0" stop-color="#4689c1"/><stop offset=".999" stop-color="#51b5dd"/><stop offset="1" stop-color="#51b5dd"/></linearGradient><path clip-path="url(#SVGID_29_)" fill="url(#SVGID_30_)" d="M508.6 200.8h29.9v48.6h-29.9z"/><defs><path id="SVGID_301_" d="M396.9 242.2c-1.9-1-3.5-2.3-4.8-3.9-1.3-1.6-2.2-3.5-2.8-5.7-.6-2.2-.9-4.4-.9-6.8 0-1.7.2-3.5.5-5.2.3-1.7.8-3.3 1.5-4.9.7-1.5 1.5-2.9 2.5-4.1 1-1.2 2.1-2.3 3.5-3.1 1.1-.6 2.6-1.3 4.7-1.8.8-.1 1.6-.2 2.5-.2 2.1 0 4 .4 5.8 1.3 1 .5 4 2.6 5.1 4.2 1.4 1.8 2.5 4 3.2 6.4.7 2.4 1.1 4.9 1.1 7.5 0 2.4-.3 4.7-1 6.8-.6 2.2-1.6 4.1-2.9 5.7-1.3 1.6-2.9 3-4.7 3.9-1.9 1-4.1 1.5-6.6 1.5-2.5-.1-4.8-.6-6.7-1.6m-2.7-39.6c-2.7 1.5-4.9 3.5-6.8 5.9-1.8 2.4-3.2 5.2-4.1 8.3-.9 3.1-1.3 6.2-1.3 9.3 0 3.1.4 6.1 1.3 8.9.9 2.8 2.2 5.4 4 7.5 1.8 2.2 4 3.9 6.8 5.2 2.7 1.3 5.9 1.9 9.5 1.9 3.6 0 6.8-.6 9.5-1.9 2.7-1.3 5-3 6.8-5.2 1.8-2.2 3.1-4.7 4-7.5.9-2.8 1.3-5.8 1.3-8.9 0-3-.4-6.1-1.3-9-.8-3-2.1-5.7-3.9-8.1-.8-1.2-2.3-2.9-4.2-4.6-1.6-1.3-3.4-2.2-5.5-2.9-2-.7-4.3-1.1-6.8-1.1-3.5-.1-6.6.6-9.3 2.2"/></defs><clipPath id="SVGID_31_"><use xlink:href="#SVGID_301_" overflow="visible"/></clipPath><linearGradient id="SVGID_32_" gradientUnits="userSpaceOnUse" x1="-311.133" y1="1268.753" x2="-309.714" y2="1268.753" gradientTransform="matrix(212.0485 0 0 -212.0485 66216.094 269262.094)"><stop offset="0" stop-color="#4689c1"/><stop offset=".999" stop-color="#51b5dd"/><stop offset="1" stop-color="#51b5dd"/></linearGradient><path clip-path="url(#SVGID_31_)" fill="url(#SVGID_32_)" d="M382 200.3h43.2v49.4H382z"/></g></svg>