<?xml version="1.0" encoding="utf-8"?>
<!-- Generator: Adobe Illustrator 22.0.1, SVG Export Plug-In . SVG Version: 6.00 Build 0)  -->
<svg version="1.1" id="Слой_1" xmlns="http://www.w3.org/2000/svg" xmlns:xlink="http://www.w3.org/1999/xlink" x="0px" y="0px"
	 viewBox="0 0 672.5 674.8" style="enable-background:new 0 0 672.5 674.8;" xml:space="preserve">
<style type="text/css">
	.st0{fill:#F4D926;}
	.st1{fill:#C8D300;}
	.st2{fill:#E79E20;}
	.st3{fill:#95C11E;}
	.st4{fill:#478BC2;}
	.st5{fill:#50B6DE;}
	.st6{fill:#B2267B;}
	.st7{fill:#D64085;}
</style>
<g>
	<polygon class="st0" points="252.6,337.4 224.8,365.3 252.6,393.1 294.4,351.3 280.5,337.4 	"/>
	<polygon class="st0" points="252.6,281.7 294.4,323.5 280.5,337.4 252.6,337.4 224.8,309.6 	"/>
	<polygon class="st1" points="419.8,337.4 447.7,309.5 419.8,281.7 378,323.5 392,337.4 	"/>
	<polygon class="st1" points="419.8,393.1 378,351.3 392,337.4 419.8,337.4 447.7,365.3 	"/>
	<polygon class="st2" points="336.2,421 364.1,448.9 392,421 350.2,379.2 336.2,393.1 	"/>
	<polygon class="st2" points="280.5,421 322.3,379.2 336.2,393.1 336.2,421 308.4,448.9 	"/>
	<polygon class="st3" points="336.2,253.8 308.4,225.9 280.5,253.8 322.3,295.6 336.2,281.7 	"/>
	<polygon class="st3" points="392,253.8 350.2,295.6 336.2,281.7 336.2,253.8 364.1,225.9 	"/>
	
		<rect x="322.3" y="323.5" transform="matrix(0.7071 -0.7071 0.7071 0.7071 -140.1053 336.5901)" class="st3" width="27.9" height="27.9"/>
	<polygon class="st4" points="85.5,337.4 40.7,382.2 40.7,459.8 85.5,504.7 210.9,379.2 169,337.4 	"/>
	<polygon class="st5" points="85.5,170.2 40.7,215 40.7,292.6 85.5,337.4 169,337.4 210.9,295.7 	"/>
	<polygon class="st6" points="587,170.2 461.6,295.7 503.5,337.4 587,337.4 631.8,292.6 631.8,215 	"/>
	<polygon class="st7" points="503.5,337.4 461.6,379.2 587,504.7 631.8,459.8 631.8,382.2 587,337.4 	"/>
	<polygon class="st2" points="378,462.8 336.2,504.7 336.2,588.2 381.1,633 458.7,633 503.5,588.2 	"/>
	<polygon class="st0" points="294.5,462.8 169,588.2 213.8,633 291.4,633 336.2,588.2 336.2,504.7 	"/>
	<polygon class="st3" points="213.8,41.8 169,86.7 294.5,212 336.2,170.2 336.2,86.7 291.4,41.8 	"/>
	<polygon class="st1" points="381.1,41.8 336.2,86.7 336.2,170.2 378,212 503.5,86.7 458.7,41.8 	"/>
</g>
</svg>
