<svg width="463" height="272" viewBox="0 0 463 272" fill="none" xmlns="http://www.w3.org/2000/svg">
<path d="M74 49L0 183.5V270.807L463 271.289V171.5L388 49L295 59L234 0L133 69L74 49Z" fill="white"/>
<g clip-path="url(#clip0_119_3)">
<path d="M218.726 126.242L214.853 130.122L218.726 134.002L224.535 128.182L222.599 126.242H218.726Z" fill="#EAB619"/>
<path d="M218.726 118.482L224.535 124.302L222.599 126.242H218.726L214.853 122.362L218.726 118.482Z" fill="#EAB619"/>
<path d="M242.025 126.242L245.898 122.362L242.025 118.482L236.216 124.302L238.152 126.242H242.025Z" fill="#8BB52B"/>
<path d="M242.025 134.002L236.216 128.182L238.152 126.242H242.025L245.898 130.122L242.025 134.002Z" fill="#8BB52B"/>
<path d="M230.407 137.882L234.28 141.825L238.152 137.882L232.343 132.062L230.407 134.002V137.882Z" fill="#E17413"/>
<path d="M222.599 137.882L228.471 132.062L230.407 134.002V137.882L226.534 141.825L222.599 137.882Z" fill="#E17413"/>
<path d="M230.407 114.539L226.472 110.659L222.599 114.539L228.471 120.422L230.407 118.482V114.539Z" fill="#4AA337"/>
<path d="M238.152 114.539L232.343 120.422L230.407 118.482V114.539L234.28 110.659L238.152 114.539Z" fill="#4AA337"/>
<path d="M230.414 123.491L227.676 126.234L230.414 128.978L233.153 126.234L230.414 123.491Z" fill="#96B928"/>
<path d="M195.427 126.242L189.181 132.5V143.327L195.427 149.585L212.917 132.062L207.108 126.242H195.427Z" fill="#4689C1"/>
<path d="M195.427 102.899L189.181 109.157V119.984L195.427 126.242H207.108L212.917 120.422L195.427 102.899Z" fill="#4FB5DD"/>
<path d="M265.324 102.899L247.834 120.422L253.706 126.242H265.324L271.57 119.984V109.157L265.324 102.899Z" fill="#B0257A"/>
<path d="M253.706 126.242L247.834 132.062L265.324 149.585L271.57 143.327V132.5L265.324 126.242H253.706Z" fill="#D53F84"/>
<path d="M236.216 143.765L230.407 149.585V161.226L236.653 167.484H247.459L253.706 161.226L236.216 143.765Z" fill="#F3C920"/>
<path d="M224.598 143.765L207.108 161.226L213.354 167.484H224.161L230.407 161.226V149.585L224.598 143.765Z" fill="#F3D825"/>
<path d="M213.354 85L207.108 91.2583L224.598 108.719L230.407 102.899V91.2583L224.161 85H213.354Z" fill="#C6CC1E"/>
<path d="M236.653 85L230.407 91.2583V102.899L236.216 108.719L253.706 91.2583L247.459 85H236.653Z" fill="#DDD624"/>
<path d="M82.4308 204.095L83.1179 201.091L83.805 204.095L87.303 215.047H78.9953L82.4308 204.095ZM80.8692 196.46L74.9352 215.047H71V218.614H73.7484L71.1249 226.812H75.1851L77.7461 218.614H88.3649L89.4892 222.056C89.8015 223.057 90.1763 223.933 90.5511 224.559C90.9259 225.185 91.3631 225.686 91.8628 225.999C92.3625 226.312 92.8622 226.562 93.4869 226.624C94.1115 226.75 94.7986 226.812 95.5482 226.812H97.1097V223.245H96.1103C95.2358 223.245 94.5487 223.057 94.174 222.744C93.7992 222.431 93.4869 221.868 93.237 221.18L85.3666 196.46H80.8692Z" fill="url(#paint0_linear_119_3)"/>
<path d="M106.354 200.027H111.227C112.226 200.027 113.1 200.152 113.85 200.465C114.6 200.778 115.224 201.153 115.724 201.654C116.224 202.155 116.598 202.718 116.848 203.406C117.098 204.095 117.223 204.783 117.223 205.409C117.223 207.036 116.723 208.413 115.724 209.477C114.724 210.541 113.225 211.041 111.227 211.041H106.354V200.027ZM96.735 196.46V200.027H102.419V226.875H106.417V214.609H111.976L118.16 222.995C119.097 224.309 120.096 225.248 121.096 225.936C122.095 226.562 123.344 226.875 124.844 226.875H126.78V223.308H126.03C125.093 223.308 124.281 223.182 123.594 222.995C122.907 222.807 122.283 222.306 121.72 221.493L116.099 213.732C117.723 212.981 118.972 211.918 119.846 210.478C120.658 209.039 121.096 207.537 121.096 205.972C121.096 204.721 120.908 203.531 120.534 202.405C120.159 201.279 119.534 200.277 118.66 199.401C117.785 198.525 116.661 197.836 115.162 197.273C113.725 196.773 111.914 196.46 109.727 196.46H96.735Z" fill="url(#paint1_linear_119_3)"/>
<path d="M131.59 196.46C130.465 196.46 129.466 196.585 128.716 196.898C127.967 197.211 127.405 197.586 126.967 198.087C126.53 198.587 126.28 199.151 126.093 199.839C125.905 200.465 125.843 201.216 125.843 201.967V203.531H129.278V202.53C129.278 201.717 129.466 201.091 129.841 200.653C130.215 200.215 131.027 200.027 132.214 200.027H136.774V226.875H140.772V200.027H150.579V196.46H131.59Z" fill="url(#paint2_linear_119_3)"/>
<path d="M194.053 196.46C192.554 196.46 191.305 196.773 190.305 197.398C189.368 198.024 188.369 199.026 187.432 200.34L180.061 210.603V196.46H176.064V226.875H180.061V216.736L182.31 213.67L189.993 222.995C190.493 223.621 190.992 224.184 191.43 224.684C191.867 225.185 192.367 225.561 192.929 225.873C193.428 226.186 193.991 226.437 194.615 226.624C195.177 226.812 195.865 226.875 196.614 226.875H199.113V223.308H198.051C197.114 223.308 196.302 223.182 195.677 222.995C194.99 222.807 194.428 222.369 193.866 221.743L184.684 210.541L191.18 201.779C191.555 201.279 192.054 200.84 192.616 200.528C193.179 200.215 193.928 200.089 194.928 200.089H196.177V196.522L194.053 196.46Z" fill="url(#paint3_linear_119_3)"/>
<path d="M365.953 209.915H357.52V213.482H365.953V209.915Z" fill="url(#paint4_linear_119_3)"/>
<path d="M351.773 196.46V226.875H355.709V200.027H368.514V196.46H351.773Z" fill="url(#paint5_linear_119_3)"/>
<path d="M370.637 223.308H357.52V226.875H370.637V223.308Z" fill="url(#paint6_linear_119_3)"/>
<path d="M169.567 209.915H160.073V213.482H169.567V209.915Z" fill="url(#paint7_linear_119_3)"/>
<path d="M154.326 196.46V226.875H158.262V200.027H172.128V196.46H154.326Z" fill="url(#paint8_linear_119_3)"/>
<path d="M172.128 223.308H160.073V226.875H172.128V223.308Z" fill="url(#paint9_linear_119_3)"/>
<path d="M211.48 196.46V200.027H217.165V226.875H221.162V200.027H222.661C224.535 200.027 225.91 200.34 226.846 201.028C227.783 201.654 228.221 202.593 228.221 203.844C228.221 205.221 227.783 206.348 226.909 207.161C226.034 208.037 224.723 208.538 222.911 208.663V211.73H226.097C227.596 211.73 228.845 211.918 229.97 212.23C231.032 212.543 231.906 213.044 232.656 213.607C233.343 214.171 233.905 214.796 234.217 215.547C234.529 216.236 234.717 216.987 234.717 217.738C234.717 218.489 234.592 219.177 234.405 219.866C234.217 220.554 233.78 221.117 233.218 221.618C232.656 222.119 231.844 222.557 230.907 222.807C229.97 223.12 228.72 223.245 227.221 223.245H222.911V226.812H227.721C229.657 226.812 231.344 226.562 232.718 225.999C234.092 225.498 235.217 224.747 236.029 223.933C236.903 223.057 237.528 222.119 237.903 220.992C238.277 219.866 238.465 218.739 238.465 217.613C238.465 216.611 238.277 215.61 237.903 214.609C237.528 213.607 237.028 212.731 236.278 211.918C235.529 211.104 234.654 210.416 233.53 209.852C232.406 209.289 231.156 208.914 229.657 208.726C230.532 207.85 231.156 206.911 231.469 205.972C231.781 204.971 231.906 204.157 231.906 203.594C231.906 202.655 231.719 201.717 231.406 200.84C231.094 199.964 230.532 199.213 229.845 198.587C229.158 197.962 228.283 197.461 227.284 197.085C226.284 196.71 225.035 196.522 223.661 196.522L211.48 196.46Z" fill="url(#paint10_linear_119_3)"/>
<path d="M260.702 196.46V216.799C260.702 218.802 260.14 220.366 259.015 221.368C257.891 222.369 256.329 222.932 254.33 222.932H253.331C251.332 222.932 249.771 222.431 248.646 221.368C247.522 220.366 246.96 218.802 246.96 216.799V202.217C246.96 200.027 246.46 198.525 245.398 197.711C244.336 196.898 242.837 196.46 240.901 196.46H239.527V200.027H240.588C241.525 200.027 242.15 200.277 242.525 200.84C242.837 201.404 243.025 202.28 243.025 203.406V216.799C243.025 220.053 243.899 222.557 245.71 224.309C247.522 225.999 250.02 226.875 253.331 226.875H254.33C257.641 226.875 260.202 225.999 261.951 224.309C263.762 222.619 264.637 220.116 264.637 216.799V196.46H260.702Z" fill="url(#paint11_linear_119_3)"/>
<path d="M287.998 196.46C286.499 196.46 285.25 196.773 284.25 197.398C283.313 198.024 282.314 199.026 281.377 200.34L274.006 210.603V196.46H270.009V226.875H274.006V216.736L276.255 213.67L283.938 222.995C284.438 223.621 284.938 224.184 285.375 224.684C285.812 225.185 286.312 225.561 286.874 225.873C287.374 226.186 287.936 226.437 288.56 226.624C289.123 226.812 289.81 226.875 290.559 226.875H293.058V223.308H292.058C291.121 223.308 290.309 223.182 289.685 222.995C288.998 222.807 288.435 222.369 287.873 221.743L278.691 210.541L285.187 201.779C285.562 201.279 286.062 200.84 286.624 200.528C287.186 200.215 287.936 200.089 288.935 200.089H290.184V196.522L287.998 196.46Z" fill="url(#paint12_linear_119_3)"/>
<path d="M337.282 219.24L336.657 221.993L336.033 219.24L330.286 201.216C329.974 200.215 329.599 199.338 329.162 198.713C328.787 198.087 328.35 197.586 327.85 197.273C327.35 196.96 326.851 196.71 326.226 196.647C325.601 196.522 324.914 196.46 324.165 196.46H322.603V200.027H323.602C324.477 200.027 325.164 200.215 325.539 200.528C325.914 200.84 326.226 201.404 326.476 202.092L334.346 226.812H338.844L348.276 197.336L344.528 196.147L337.282 219.24Z" fill="url(#paint13_linear_119_3)"/>
<path d="M373.323 196.46V221.117C373.323 221.743 373.386 222.306 373.573 222.87C373.823 223.746 374.323 224.497 374.947 225.123C375.447 225.623 376.072 226.061 376.821 226.312C377.571 226.625 378.383 226.75 379.195 226.75H390.813C391.438 226.75 392 226.249 392 225.561V220.679H388.377V223.182H380.569C379.57 223.182 378.758 222.932 378.196 222.494C377.633 222.056 377.321 221.18 377.321 219.991V196.397L373.323 196.46Z" fill="url(#paint14_linear_119_3)"/>
<path d="M303.552 222.369C302.365 221.743 301.365 220.929 300.553 219.928C299.741 218.927 299.179 217.738 298.804 216.361C298.43 214.984 298.242 213.607 298.242 212.105C298.242 211.041 298.367 209.915 298.555 208.851C298.742 207.787 299.054 206.786 299.492 205.784C299.929 204.846 300.428 203.97 301.053 203.219C301.678 202.468 302.365 201.779 303.239 201.279C303.926 200.903 304.863 200.465 306.175 200.152C306.675 200.089 307.175 200.027 307.737 200.027C309.048 200.027 310.235 200.277 311.36 200.84C311.984 201.153 313.858 202.468 314.545 203.469C315.42 204.595 316.107 205.972 316.544 207.474C316.981 208.976 317.231 210.541 317.231 212.168C317.231 213.67 317.044 215.109 316.607 216.424C316.232 217.8 315.607 218.989 314.795 219.991C313.983 220.992 312.984 221.868 311.859 222.431C310.672 223.057 309.298 223.37 307.737 223.37C306.175 223.308 304.738 222.995 303.552 222.369ZM301.865 197.586C300.179 198.525 298.804 199.777 297.618 201.279C296.493 202.781 295.619 204.533 295.057 206.473C294.494 208.413 294.245 210.353 294.245 212.293C294.245 214.233 294.494 216.111 295.057 217.863C295.619 219.615 296.431 221.242 297.555 222.557C298.68 223.933 300.054 224.997 301.803 225.811C303.489 226.625 305.488 227 307.737 227C309.985 227 311.984 226.625 313.671 225.811C315.357 224.997 316.794 223.933 317.918 222.557C319.043 221.18 319.855 219.615 320.417 217.863C320.979 216.111 321.229 214.233 321.229 212.293C321.229 210.416 320.979 208.476 320.417 206.661C319.917 204.783 319.105 203.093 317.981 201.591C317.481 200.84 316.544 199.777 315.357 198.713C314.358 197.899 313.234 197.336 311.922 196.898C310.672 196.46 309.236 196.209 307.674 196.209C305.488 196.147 303.552 196.585 301.865 197.586Z" fill="url(#paint15_linear_119_3)"/>
</g>
<defs>
<linearGradient id="paint0_linear_119_3" x1="90.2375" y1="210.068" x2="126.901" y2="164.175" gradientUnits="userSpaceOnUse">
<stop stop-color="#E27615"/>
<stop offset="1" stop-color="#EAB519"/>
</linearGradient>
<linearGradient id="paint1_linear_119_3" x1="104.171" y1="221.199" x2="140.835" y2="175.307" gradientUnits="userSpaceOnUse">
<stop stop-color="#E27615"/>
<stop offset="1" stop-color="#EAB519"/>
</linearGradient>
<linearGradient id="paint2_linear_119_3" x1="118.083" y1="232.314" x2="154.747" y2="186.421" gradientUnits="userSpaceOnUse">
<stop stop-color="#E27615"/>
<stop offset="1" stop-color="#EAB519"/>
</linearGradient>
<linearGradient id="paint3_linear_119_3" x1="150.527" y1="258.234" x2="187.191" y2="212.341" gradientUnits="userSpaceOnUse">
<stop stop-color="#E27615"/>
<stop offset="1" stop-color="#EAB519"/>
</linearGradient>
<linearGradient id="paint4_linear_119_3" x1="206.048" y1="211.7" x2="393.998" y2="211.7" gradientUnits="userSpaceOnUse">
<stop stop-color="#4689C1"/>
<stop offset="0.9993" stop-color="#51B5DD"/>
<stop offset="1" stop-color="#51B5DD"/>
</linearGradient>
<linearGradient id="paint5_linear_119_3" x1="324.156" y1="260.716" x2="349.412" y2="219.004" gradientUnits="userSpaceOnUse">
<stop stop-color="#4689C1"/>
<stop offset="0.9993" stop-color="#51B5DD"/>
<stop offset="1" stop-color="#51B5DD"/>
</linearGradient>
<linearGradient id="paint6_linear_119_3" x1="206.048" y1="225.088" x2="393.998" y2="225.088" gradientUnits="userSpaceOnUse">
<stop stop-color="#4689C1"/>
<stop offset="0.9993" stop-color="#51B5DD"/>
<stop offset="1" stop-color="#51B5DD"/>
</linearGradient>
<linearGradient id="paint7_linear_119_3" x1="136.624" y1="247.126" x2="173.288" y2="201.234" gradientUnits="userSpaceOnUse">
<stop stop-color="#E27615"/>
<stop offset="1" stop-color="#EAB519"/>
</linearGradient>
<linearGradient id="paint8_linear_119_3" x1="131.397" y1="242.95" x2="168.061" y2="197.058" gradientUnits="userSpaceOnUse">
<stop stop-color="#E27615"/>
<stop offset="1" stop-color="#EAB519"/>
</linearGradient>
<linearGradient id="paint9_linear_119_3" x1="143.923" y1="252.957" x2="180.587" y2="207.065" gradientUnits="userSpaceOnUse">
<stop stop-color="#E27615"/>
<stop offset="1" stop-color="#EAB519"/>
</linearGradient>
<linearGradient id="paint10_linear_119_3" x1="228.401" y1="202.74" x2="253.657" y2="161.027" gradientUnits="userSpaceOnUse">
<stop stop-color="#4689C1"/>
<stop offset="0.9993" stop-color="#51B5DD"/>
<stop offset="1" stop-color="#51B5DD"/>
</linearGradient>
<linearGradient id="paint11_linear_119_3" x1="248.262" y1="214.765" x2="273.518" y2="173.052" gradientUnits="userSpaceOnUse">
<stop stop-color="#4689C1"/>
<stop offset="0.9993" stop-color="#51B5DD"/>
<stop offset="1" stop-color="#51B5DD"/>
</linearGradient>
<linearGradient id="paint12_linear_119_3" x1="271.264" y1="228.692" x2="296.52" y2="186.98" gradientUnits="userSpaceOnUse">
<stop stop-color="#4689C1"/>
<stop offset="0.9993" stop-color="#51B5DD"/>
<stop offset="1" stop-color="#51B5DD"/>
</linearGradient>
<linearGradient id="paint13_linear_119_3" x1="307.282" y1="250.5" x2="332.538" y2="208.787" gradientUnits="userSpaceOnUse">
<stop stop-color="#4689C1"/>
<stop offset="0.9993" stop-color="#51B5DD"/>
<stop offset="1" stop-color="#51B5DD"/>
</linearGradient>
<linearGradient id="paint14_linear_119_3" x1="345.11" y1="273.403" x2="370.366" y2="231.691" gradientUnits="userSpaceOnUse">
<stop stop-color="#4689C1"/>
<stop offset="0.9993" stop-color="#51B5DD"/>
<stop offset="1" stop-color="#51B5DD"/>
</linearGradient>
<linearGradient id="paint15_linear_119_3" x1="290.616" y1="240.409" x2="315.872" y2="198.696" gradientUnits="userSpaceOnUse">
<stop stop-color="#4689C1"/>
<stop offset="0.9993" stop-color="#51B5DD"/>
<stop offset="1" stop-color="#51B5DD"/>
</linearGradient>
<clipPath id="clip0_119_3">
<rect width="321" height="142" fill="white" transform="translate(71 85)"/>
</clipPath>
</defs>
</svg>
