<?xml version="1.0" encoding="utf-8"?>
<!-- Generator: Adobe Illustrator 22.0.1, SVG Export Plug-In . SVG Version: 6.00 Build 0)  -->
<svg version="1.1" xmlns="http://www.w3.org/2000/svg" xmlns:xlink="http://www.w3.org/1999/xlink" x="0px" y="0px"
	 viewBox="0 0 563.1 272.3" style="enable-background:new 0 0 563.1 272.3;" xml:space="preserve">
<style type="text/css">
	.st0{fill-rule:evenodd;clip-rule:evenodd;fill:url(#SVGID_1_);}
	.st1{fill-rule:evenodd;clip-rule:evenodd;fill:url(#SVGID_2_);}
	.st2{fill-rule:evenodd;clip-rule:evenodd;fill:url(#SVGID_3_);}
	.st3{fill-rule:evenodd;clip-rule:evenodd;fill:url(#SVGID_4_);}
	.st4{fill-rule:evenodd;clip-rule:evenodd;fill:url(#SVGID_5_);}
	.st5{fill-rule:evenodd;clip-rule:evenodd;fill:url(#SVGID_6_);}
	.st6{fill-rule:evenodd;clip-rule:evenodd;fill:url(#SVGID_7_);}
	.st7{fill-rule:evenodd;clip-rule:evenodd;fill:url(#SVGID_8_);}
	.st8{fill-rule:evenodd;clip-rule:evenodd;fill:url(#SVGID_9_);}
	.st9{fill-rule:evenodd;clip-rule:evenodd;fill:url(#SVGID_10_);}
	.st10{fill-rule:evenodd;clip-rule:evenodd;fill:url(#SVGID_11_);}
	.st11{fill-rule:evenodd;clip-rule:evenodd;fill:url(#SVGID_12_);}
	.st12{fill-rule:evenodd;clip-rule:evenodd;fill:url(#SVGID_13_);}
	.st13{fill-rule:evenodd;clip-rule:evenodd;fill:url(#SVGID_14_);}
	.st14{fill-rule:evenodd;clip-rule:evenodd;fill:url(#SVGID_15_);}
	.st15{fill-rule:evenodd;clip-rule:evenodd;fill:url(#SVGID_16_);}
	.st16{fill-rule:evenodd;clip-rule:evenodd;fill:url(#SVGID_17_);}
	.st17{fill-rule:evenodd;clip-rule:evenodd;fill:url(#SVGID_18_);}
	.st18{fill-rule:evenodd;clip-rule:evenodd;fill:url(#SVGID_19_);}
	.st19{fill-rule:evenodd;clip-rule:evenodd;fill:url(#SVGID_20_);}
	.st20{fill-rule:evenodd;clip-rule:evenodd;fill:url(#SVGID_21_);}
	.st21{fill-rule:evenodd;clip-rule:evenodd;fill:url(#SVGID_22_);}
	.st22{fill-rule:evenodd;clip-rule:evenodd;fill:url(#SVGID_23_);}
	.st23{fill-rule:evenodd;clip-rule:evenodd;fill:url(#SVGID_24_);}
	.st24{fill-rule:evenodd;clip-rule:evenodd;fill:url(#SVGID_25_);}
	.st25{fill-rule:evenodd;clip-rule:evenodd;fill:url(#SVGID_26_);}
	.st26{fill-rule:evenodd;clip-rule:evenodd;fill:url(#SVGID_27_);}
	.st27{fill-rule:evenodd;clip-rule:evenodd;fill:url(#SVGID_28_);}
	.st28{fill-rule:evenodd;clip-rule:evenodd;fill:url(#SVGID_29_);}
	.st29{fill-rule:evenodd;clip-rule:evenodd;fill:url(#SVGID_30_);}
	.st30{fill-rule:evenodd;clip-rule:evenodd;fill:url(#SVGID_31_);}
	.st31{fill-rule:evenodd;clip-rule:evenodd;fill:url(#SVGID_32_);}
	.st32{fill-rule:evenodd;clip-rule:evenodd;fill:url(#SVGID_33_);}
	.st33{fill-rule:evenodd;clip-rule:evenodd;fill:url(#SVGID_34_);}
	.st34{fill-rule:evenodd;clip-rule:evenodd;fill:url(#SVGID_35_);}
	.st35{fill-rule:evenodd;clip-rule:evenodd;fill:url(#SVGID_36_);}
	.st36{fill-rule:evenodd;clip-rule:evenodd;fill:url(#SVGID_37_);}
	.st37{fill-rule:evenodd;clip-rule:evenodd;fill:url(#SVGID_38_);}
	.st38{fill-rule:evenodd;clip-rule:evenodd;fill:url(#SVGID_39_);}
	.st39{fill-rule:evenodd;clip-rule:evenodd;fill:url(#SVGID_40_);}
	.st40{fill-rule:evenodd;clip-rule:evenodd;fill:url(#SVGID_41_);}
	.st41{fill-rule:evenodd;clip-rule:evenodd;fill:url(#SVGID_42_);}
	.st42{fill-rule:evenodd;clip-rule:evenodd;fill:url(#SVGID_43_);}
	.st43{fill-rule:evenodd;clip-rule:evenodd;fill:url(#SVGID_44_);}
	.st44{fill-rule:evenodd;clip-rule:evenodd;fill:url(#SVGID_45_);}
	.st45{fill-rule:evenodd;clip-rule:evenodd;fill:url(#SVGID_46_);}
	.st46{fill-rule:evenodd;clip-rule:evenodd;fill:url(#SVGID_47_);}
	.st47{fill-rule:evenodd;clip-rule:evenodd;fill:url(#SVGID_48_);}
	.st48{fill-rule:evenodd;clip-rule:evenodd;fill:#758A8B;}
	.st49{fill-rule:evenodd;clip-rule:evenodd;fill:url(#SVGID_49_);}
	.st50{fill-rule:evenodd;clip-rule:evenodd;fill:url(#SVGID_50_);}
	.st51{fill-rule:evenodd;clip-rule:evenodd;fill:url(#SVGID_51_);}
	.st52{fill-rule:evenodd;clip-rule:evenodd;fill:url(#SVGID_52_);}
	.st53{fill-rule:evenodd;clip-rule:evenodd;fill:url(#SVGID_53_);}
	.st54{fill-rule:evenodd;clip-rule:evenodd;fill:url(#SVGID_54_);}
	.st55{fill-rule:evenodd;clip-rule:evenodd;fill:url(#SVGID_55_);}
	.st56{fill-rule:evenodd;clip-rule:evenodd;fill:url(#SVGID_56_);}
	.st57{fill-rule:evenodd;clip-rule:evenodd;fill:url(#SVGID_57_);}
	.st58{fill-rule:evenodd;clip-rule:evenodd;fill:url(#SVGID_58_);}
	.st59{fill-rule:evenodd;clip-rule:evenodd;fill:url(#SVGID_59_);}
	.st60{fill-rule:evenodd;clip-rule:evenodd;fill:url(#SVGID_60_);}
	.st61{fill-rule:evenodd;clip-rule:evenodd;fill:url(#SVGID_61_);}
	.st62{fill:url(#SVGID_62_);}
	.st63{fill:url(#SVGID_63_);}
	.st64{fill:url(#SVGID_64_);}
	.st65{fill:url(#SVGID_65_);}
	.st66{fill-rule:evenodd;clip-rule:evenodd;fill:url(#SVGID_66_);}
	.st67{fill:url(#SVGID_67_);}
	.st68{fill:url(#SVGID_68_);}
	.st69{fill:url(#SVGID_69_);}
	.st70{fill:url(#SVGID_70_);}
	.st71{fill:url(#SVGID_71_);}
	.st72{fill:url(#SVGID_72_);}
	.st73{fill:url(#SVGID_73_);}
	.st74{fill:url(#SVGID_74_);}
	.st75{fill:url(#SVGID_75_);}
	.st76{fill:url(#SVGID_76_);}
	.st77{fill-rule:evenodd;clip-rule:evenodd;fill:url(#SVGID_77_);}
	.st78{fill-rule:evenodd;clip-rule:evenodd;fill:url(#SVGID_78_);}
	.st79{fill-rule:evenodd;clip-rule:evenodd;fill:url(#SVGID_79_);}
	.st80{fill:url(#SVGID_80_);}
	.st81{fill:url(#SVGID_81_);}
	.st82{fill:url(#SVGID_82_);}
	.st83{fill:url(#SVGID_83_);}
	.st84{fill-rule:evenodd;clip-rule:evenodd;fill:#62A447;}
	.st85{fill:url(#SVGID_84_);}
	.st86{fill-rule:evenodd;clip-rule:evenodd;fill:#498347;}
	.st87{fill-rule:evenodd;clip-rule:evenodd;fill:url(#SVGID_85_);}
	.st88{fill-rule:evenodd;clip-rule:evenodd;fill:#53974C;}
	.st89{fill-rule:evenodd;clip-rule:evenodd;fill:url(#SVGID_86_);}
	.st90{fill-rule:evenodd;clip-rule:evenodd;fill:url(#SVGID_87_);}
	.st91{fill-rule:evenodd;clip-rule:evenodd;fill:url(#SVGID_88_);}
	.st92{fill-rule:evenodd;clip-rule:evenodd;fill:url(#SVGID_89_);}
	.st93{fill-rule:evenodd;clip-rule:evenodd;fill:url(#SVGID_90_);}
	.st94{fill-rule:evenodd;clip-rule:evenodd;fill:#427247;}
	.st95{fill-rule:evenodd;clip-rule:evenodd;fill:url(#SVGID_91_);}
	.st96{fill-rule:evenodd;clip-rule:evenodd;fill:url(#SVGID_92_);}
	.st97{fill:url(#SVGID_93_);}
	.st98{fill-rule:evenodd;clip-rule:evenodd;fill:url(#SVGID_94_);}
	.st99{fill-rule:evenodd;clip-rule:evenodd;fill:url(#SVGID_95_);}
	.st100{fill-rule:evenodd;clip-rule:evenodd;fill:url(#SVGID_96_);}
	.st101{fill:url(#SVGID_97_);}
	.st102{fill-rule:evenodd;clip-rule:evenodd;fill:url(#SVGID_98_);}
	.st103{fill-rule:evenodd;clip-rule:evenodd;fill:url(#SVGID_99_);}
	.st104{fill-rule:evenodd;clip-rule:evenodd;fill:url(#SVGID_100_);}
	.st105{fill-rule:evenodd;clip-rule:evenodd;fill:url(#SVGID_101_);}
	.st106{fill-rule:evenodd;clip-rule:evenodd;fill:url(#SVGID_102_);}
	.st107{fill-rule:evenodd;clip-rule:evenodd;fill:url(#SVGID_103_);}
	.st108{fill-rule:evenodd;clip-rule:evenodd;fill:url(#SVGID_104_);}
	.st109{fill-rule:evenodd;clip-rule:evenodd;fill:url(#SVGID_105_);}
	.st110{fill-rule:evenodd;clip-rule:evenodd;fill:url(#SVGID_106_);}
	.st111{fill-rule:evenodd;clip-rule:evenodd;fill:url(#SVGID_107_);}
	.st112{fill-rule:evenodd;clip-rule:evenodd;fill:url(#SVGID_108_);}
	.st113{fill:url(#SVGID_109_);}
	.st114{fill:url(#SVGID_110_);}
	.st115{fill:url(#SVGID_111_);}
	.st116{fill:url(#SVGID_112_);}
	.st117{fill:url(#SVGID_113_);}
	.st118{fill:url(#SVGID_114_);}
	.st119{fill-rule:evenodd;clip-rule:evenodd;fill:url(#SVGID_115_);}
	.st120{fill-rule:evenodd;clip-rule:evenodd;fill:url(#SVGID_116_);}
	.st121{fill-rule:evenodd;clip-rule:evenodd;fill:url(#SVGID_117_);}
	.st122{fill-rule:evenodd;clip-rule:evenodd;fill:url(#SVGID_118_);}
	.st123{fill-rule:evenodd;clip-rule:evenodd;fill:url(#SVGID_119_);}
	.st124{fill-rule:evenodd;clip-rule:evenodd;fill:url(#SVGID_120_);}
	.st125{fill-rule:evenodd;clip-rule:evenodd;fill:url(#SVGID_121_);}
	.st126{fill-rule:evenodd;clip-rule:evenodd;fill:url(#SVGID_122_);}
	.st127{fill:url(#SVGID_123_);}
	.st128{fill:url(#SVGID_124_);}
	.st129{fill:url(#SVGID_125_);}
	.st130{fill:url(#SVGID_126_);}
	.st131{fill:url(#SVGID_127_);}
	.st132{fill-rule:evenodd;clip-rule:evenodd;fill:#385D00;}
	.st133{fill-rule:evenodd;clip-rule:evenodd;fill:#3D6800;}
	.st134{fill-rule:evenodd;clip-rule:evenodd;fill:#4C7200;}
	.st135{fill:url(#SVGID_128_);}
	.st136{fill:url(#SVGID_129_);}
	.st137{fill:url(#SVGID_130_);}
	.st138{fill-rule:evenodd;clip-rule:evenodd;fill:url(#SVGID_131_);}
	.st139{fill-rule:evenodd;clip-rule:evenodd;fill:#6A8324;}
	.st140{fill-rule:evenodd;clip-rule:evenodd;fill:#608800;}
	.st141{fill-rule:evenodd;clip-rule:evenodd;fill:#7D9700;}
	.st142{fill-rule:evenodd;clip-rule:evenodd;fill:#3A5B00;}
	.st143{fill-rule:evenodd;clip-rule:evenodd;fill:#496D31;}
	.st144{fill-rule:evenodd;clip-rule:evenodd;fill:#688300;}
	.st145{fill-rule:evenodd;clip-rule:evenodd;fill:#C26048;}
	.st146{fill-rule:evenodd;clip-rule:evenodd;fill:#A3A29D;}
	.st147{fill-rule:evenodd;clip-rule:evenodd;fill:#473F3A;}
	.st148{fill-rule:evenodd;clip-rule:evenodd;fill:#BD8D5B;}
	.st149{fill-rule:evenodd;clip-rule:evenodd;fill:#FD9A52;}
	.st150{fill-rule:evenodd;clip-rule:evenodd;fill:#FDCC8A;}
	.st151{fill-rule:evenodd;clip-rule:evenodd;fill:#FFFFFF;}
	.st152{fill-rule:evenodd;clip-rule:evenodd;fill:#E18853;}
	.st153{fill-rule:evenodd;clip-rule:evenodd;fill:#292F31;}
	.st154{fill-rule:evenodd;clip-rule:evenodd;fill:#655237;}
	.st155{fill-rule:evenodd;clip-rule:evenodd;fill:#A26862;}
	.st156{fill-rule:evenodd;clip-rule:evenodd;fill:#977453;}
	.st157{fill-rule:evenodd;clip-rule:evenodd;fill:#C7B18B;}
	.st158{fill-rule:evenodd;clip-rule:evenodd;fill:#B39077;}
	.st159{fill-rule:evenodd;clip-rule:evenodd;fill:#775237;}
	.st160{fill-rule:evenodd;clip-rule:evenodd;fill:#9D5D4C;}
	.st161{fill-rule:evenodd;clip-rule:evenodd;fill:#A96F47;}
	.st162{fill-rule:evenodd;clip-rule:evenodd;fill:#B67C6D;}
	.st163{fill-rule:evenodd;clip-rule:evenodd;fill:#29212F;}
	.st164{fill-rule:evenodd;clip-rule:evenodd;fill:#A15534;}
	.st165{fill-rule:evenodd;clip-rule:evenodd;fill:#52402B;}
	.st166{fill-rule:evenodd;clip-rule:evenodd;fill:#7C4E3A;}
	.st167{fill-rule:evenodd;clip-rule:evenodd;fill:#C0A96D;}
	.st168{fill-rule:evenodd;clip-rule:evenodd;fill:#987B53;}
	.st169{fill-rule:evenodd;clip-rule:evenodd;fill:#6A3E2B;}
	.st170{fill-rule:evenodd;clip-rule:evenodd;fill:#655249;}
	.st171{fill-rule:evenodd;clip-rule:evenodd;fill:#77472B;}
	.st172{fill-rule:evenodd;clip-rule:evenodd;fill:#AC3F26;}
	.st173{fill-rule:evenodd;clip-rule:evenodd;fill:#AC7B41;}
	.st174{fill-rule:evenodd;clip-rule:evenodd;fill:#8D603A;}
	.st175{fill:#303435;}
	.st176{fill:#5D6668;}
	.st177{opacity:0.32;}
	.st178{fill:#0A0A0A;}
	.st179{fill:#3F4149;}
	.st180{fill:#242426;}
	.st181{fill:#FFFFFF;}
	.st182{fill:#E6E7E9;}
	.st183{fill:#1E212A;}
	.st184{fill:#EC1C2C;}
	.st185{fill:#DBDBDD;}
	.st186{fill:#A00013;}
	.st187{fill:#454547;}
	.st188{clip-path:url(#SVGID_133_);}
	.st189{fill:url(#SVGID_134_);}
	.st190{fill:url(#SVGID_135_);}
	.st191{fill:url(#SVGID_136_);}
	.st192{fill:url(#SVGID_137_);}
	.st193{fill:#686858;}
	.st194{fill:url(#SVGID_138_);}
	.st195{fill:url(#SVGID_139_);}
	.st196{fill:url(#SVGID_140_);}
	.st197{fill:url(#SVGID_141_);}
	.st198{fill:url(#SVGID_142_);}
	.st199{fill:url(#SVGID_143_);}
	.st200{fill:url(#SVGID_144_);}
	.st201{fill:url(#SVGID_145_);}
	.st202{fill:url(#SVGID_146_);}
	.st203{fill:url(#SVGID_147_);}
	.st204{fill:url(#SVGID_148_);}
	.st205{fill:url(#SVGID_149_);}
	.st206{fill:url(#SVGID_150_);}
	.st207{fill:url(#SVGID_151_);}
	.st208{fill:url(#SVGID_152_);}
	.st209{fill:url(#SVGID_153_);}
	.st210{fill:url(#SVGID_154_);}
	.st211{fill-rule:evenodd;clip-rule:evenodd;fill:url(#SVGID_155_);}
	.st212{fill-rule:evenodd;clip-rule:evenodd;fill:url(#SVGID_156_);}
	.st213{fill-rule:evenodd;clip-rule:evenodd;fill:url(#SVGID_157_);}
	.st214{fill-rule:evenodd;clip-rule:evenodd;fill:url(#SVGID_158_);}
	.st215{fill-rule:evenodd;clip-rule:evenodd;fill:url(#SVGID_159_);}
	.st216{fill-rule:evenodd;clip-rule:evenodd;fill:url(#SVGID_160_);}
	.st217{fill-rule:evenodd;clip-rule:evenodd;fill:url(#SVGID_161_);}
	.st218{fill-rule:evenodd;clip-rule:evenodd;fill:#4E4200;}
	.st219{fill-rule:evenodd;clip-rule:evenodd;fill:#333333;}
	.st220{fill-rule:evenodd;clip-rule:evenodd;fill:#2B2300;}
	.st221{fill-rule:evenodd;clip-rule:evenodd;fill:url(#SVGID_162_);}
	.st222{fill-rule:evenodd;clip-rule:evenodd;fill:url(#SVGID_163_);}
	.st223{fill-rule:evenodd;clip-rule:evenodd;fill:url(#SVGID_164_);}
	.st224{fill:url(#SVGID_165_);}
	.st225{fill:url(#SVGID_166_);}
	.st226{fill:url(#SVGID_167_);}
	.st227{fill:url(#SVGID_168_);}
	.st228{fill-rule:evenodd;clip-rule:evenodd;fill:#6A654D;}
	.st229{fill-rule:evenodd;clip-rule:evenodd;fill:#9F884E;}
	.st230{fill-rule:evenodd;clip-rule:evenodd;fill:#534933;}
	.st231{fill-rule:evenodd;clip-rule:evenodd;fill:#38321A;}
	.st232{fill:url(#SVGID_169_);}
	.st233{fill:url(#SVGID_170_);}
	.st234{fill:url(#SVGID_171_);}
	.st235{fill:url(#SVGID_172_);}
	.st236{fill:url(#SVGID_173_);}
	.st237{fill-rule:evenodd;clip-rule:evenodd;fill:url(#SVGID_174_);}
	.st238{fill:url(#SVGID_175_);}
	.st239{fill:url(#SVGID_176_);}
	.st240{fill:url(#SVGID_177_);}
	.st241{fill:url(#SVGID_178_);}
	.st242{fill:url(#SVGID_179_);}
	.st243{fill:url(#SVGID_180_);}
	.st244{fill-rule:evenodd;clip-rule:evenodd;fill:#565130;}
	.st245{fill-rule:evenodd;clip-rule:evenodd;fill:#6A624C;}
	.st246{fill:url(#SVGID_181_);}
	.st247{fill:url(#SVGID_182_);}
	.st248{fill:url(#SVGID_183_);}
	.st249{fill:url(#SVGID_184_);}
	.st250{fill:url(#SVGID_185_);}
	.st251{fill:url(#SVGID_186_);}
	.st252{fill:url(#SVGID_187_);}
	.st253{fill:url(#SVGID_188_);}
	.st254{fill:url(#SVGID_189_);}
	.st255{fill:url(#SVGID_190_);}
	.st256{fill:url(#SVGID_191_);}
	.st257{fill:url(#SVGID_192_);}
	.st258{fill:url(#SVGID_193_);}
	.st259{fill:url(#SVGID_194_);}
	.st260{fill:url(#SVGID_195_);}
	.st261{fill:url(#SVGID_196_);}
	.st262{fill:url(#SVGID_197_);}
	.st263{fill:url(#SVGID_198_);}
	.st264{fill:url(#SVGID_199_);}
	.st265{fill:url(#SVGID_200_);}
	.st266{fill:url(#SVGID_201_);}
	.st267{fill:url(#SVGID_202_);}
	.st268{fill:url(#SVGID_203_);}
	.st269{fill:url(#SVGID_204_);}
	.st270{fill:url(#SVGID_205_);}
	.st271{fill:url(#SVGID_206_);}
	.st272{fill:url(#SVGID_207_);}
	.st273{fill:url(#SVGID_208_);}
	.st274{fill:url(#SVGID_209_);}
	.st275{fill:url(#SVGID_210_);}
	.st276{fill:url(#SVGID_211_);}
	.st277{fill:url(#SVGID_212_);}
	.st278{fill:url(#SVGID_213_);}
	.st279{fill:url(#SVGID_214_);}
	.st280{fill:url(#SVGID_215_);}
	.st281{fill:url(#SVGID_216_);}
	.st282{fill:url(#SVGID_217_);}
	.st283{fill:url(#SVGID_218_);}
	.st284{fill:url(#SVGID_219_);}
	.st285{fill:url(#SVGID_220_);}
	.st286{fill:url(#SVGID_221_);}
	.st287{fill:url(#SVGID_222_);}
	.st288{fill:url(#SVGID_223_);}
	.st289{fill:none;}
	.st290{fill:url(#SVGID_224_);}
	.st291{fill:url(#SVGID_225_);}
	.st292{fill:url(#SVGID_226_);}
	.st293{fill:url(#SVGID_227_);}
	.st294{fill:url(#SVGID_228_);}
	.st295{fill:url(#SVGID_229_);}
	.st296{fill:url(#SVGID_230_);}
	.st297{fill:url(#SVGID_231_);}
	.st298{fill:url(#SVGID_232_);}
	.st299{fill:url(#SVGID_233_);}
	.st300{fill:url(#SVGID_234_);}
	.st301{fill:url(#SVGID_235_);}
	.st302{fill:url(#SVGID_236_);}
	.st303{fill:url(#SVGID_237_);}
	.st304{fill:url(#SVGID_238_);}
	.st305{fill:url(#SVGID_239_);}
	.st306{fill:url(#SVGID_240_);}
	.st307{fill:url(#SVGID_241_);}
	.st308{fill:url(#SVGID_242_);}
	.st309{fill:url(#SVGID_243_);}
	.st310{fill:url(#SVGID_244_);}
	.st311{fill:url(#SVGID_245_);}
	.st312{fill:url(#SVGID_246_);}
	.st313{fill:url(#SVGID_247_);}
	.st314{fill:url(#SVGID_248_);}
	.st315{fill:url(#SVGID_249_);}
	.st316{fill:url(#SVGID_250_);}
	.st317{fill:url(#SVGID_251_);}
	.st318{fill:url(#SVGID_252_);}
	.st319{fill:url(#SVGID_253_);}
	.st320{fill:url(#SVGID_254_);}
	.st321{display:none;}
	.st322{display:inline;fill-rule:evenodd;clip-rule:evenodd;fill:#828484;}
	.st323{display:inline;}
	.st324{fill:url(#SVGID_255_);}
	.st325{fill-rule:evenodd;clip-rule:evenodd;fill:#5F6060;}
	.st326{display:inline;fill-rule:evenodd;clip-rule:evenodd;fill:#D5D7D8;}
	.st327{display:inline;fill-rule:evenodd;clip-rule:evenodd;fill:#C7D9DD;}
	.st328{display:inline;fill-rule:evenodd;clip-rule:evenodd;fill:#C2B691;}
	.st329{display:inline;fill-rule:evenodd;clip-rule:evenodd;fill:#4C4C4D;}
	.st330{display:inline;fill-rule:evenodd;clip-rule:evenodd;fill:#393A3A;}
	.st331{display:inline;fill-rule:evenodd;clip-rule:evenodd;fill:#666666;}
	.st332{display:inline;fill-rule:evenodd;clip-rule:evenodd;fill:#939595;}
	.st333{display:inline;fill-rule:evenodd;clip-rule:evenodd;fill:#717272;}
	.st334{display:inline;fill-rule:evenodd;clip-rule:evenodd;fill:#5F6060;}
	.st335{display:inline;fill-rule:evenodd;clip-rule:evenodd;fill:#7F7F7F;}
	.st336{display:inline;fill-rule:evenodd;clip-rule:evenodd;fill:#999999;}
	.st337{fill-rule:evenodd;clip-rule:evenodd;fill:#ACA9AC;}
	.st338{display:inline;fill-rule:evenodd;clip-rule:evenodd;fill:#ACA9AC;}
	.st339{opacity:0.15;fill:#FFFFFF;}
	.st340{fill:#EAB619;}
	.st341{fill:#8BB52B;}
	.st342{fill:#E17413;}
	.st343{fill:#4AA337;}
	.st344{fill:#96B928;}
	.st345{fill:#4689C1;}
	.st346{fill:#4FB5DD;}
	.st347{fill:#B0257A;}
	.st348{fill:#D53F84;}
	.st349{fill:#F3C920;}
	.st350{fill:#F3D825;}
	.st351{fill:#C6CC1E;}
	.st352{fill:#DDD624;}
	.st353{clip-path:url(#SVGID_257_);fill:url(#SVGID_258_);}
	.st354{clip-path:url(#SVGID_260_);fill:url(#SVGID_261_);}
	.st355{clip-path:url(#SVGID_263_);fill:url(#SVGID_264_);}
	.st356{clip-path:url(#SVGID_266_);fill:url(#SVGID_267_);}
	.st357{clip-path:url(#SVGID_269_);fill:url(#SVGID_270_);}
	.st358{clip-path:url(#SVGID_272_);fill:url(#SVGID_273_);}
	.st359{clip-path:url(#SVGID_275_);fill:url(#SVGID_276_);}
	.st360{clip-path:url(#SVGID_278_);fill:url(#SVGID_279_);}
	.st361{clip-path:url(#SVGID_281_);fill:url(#SVGID_282_);}
	.st362{clip-path:url(#SVGID_284_);fill:url(#SVGID_285_);}
	.st363{clip-path:url(#SVGID_287_);fill:url(#SVGID_288_);}
	.st364{clip-path:url(#SVGID_290_);fill:url(#SVGID_291_);}
	.st365{clip-path:url(#SVGID_293_);fill:url(#SVGID_294_);}
	.st366{clip-path:url(#SVGID_296_);fill:url(#SVGID_297_);}
	.st367{clip-path:url(#SVGID_299_);fill:url(#SVGID_300_);}
	.st368{clip-path:url(#SVGID_302_);fill:url(#SVGID_303_);}
</style>
<g id="Sky">
</g>
<g id="Mountain">
</g>
<g id="Landscape_1_">
</g>
<g id="Слой_4">
</g>
<g id="Слой_5">
	<g>
		<polygon class="st340" points="261.1,88.6 254.9,94.8 261.1,101 270.4,91.7 267.3,88.6 		"/>
		<polygon class="st340" points="261.1,76.2 270.4,85.5 267.3,88.6 261.1,88.6 254.9,82.4 		"/>
		<polygon class="st341" points="298.4,88.6 304.6,82.4 298.4,76.2 289.1,85.5 292.2,88.6 		"/>
		<polygon class="st341" points="298.4,101 289.1,91.7 292.2,88.6 298.4,88.6 304.6,94.8 		"/>
		<polygon class="st342" points="279.8,107.2 286,113.5 292.2,107.2 282.9,97.9 279.8,101 		"/>
		<polygon class="st342" points="267.3,107.2 276.7,97.9 279.8,101 279.8,107.2 273.6,113.5 		"/>
		<polygon class="st343" points="279.8,69.9 273.5,63.7 267.3,69.9 276.7,79.3 279.8,76.2 		"/>
		<polygon class="st343" points="292.2,69.9 282.9,79.3 279.8,76.2 279.8,69.9 286,63.7 		"/>
		
			<rect x="276.7" y="85.5" transform="matrix(0.7071 -0.7071 0.7071 0.7071 19.2952 223.7735)" class="st344" width="6.2" height="6.2"/>
		<polygon class="st345" points="223.8,88.6 213.8,98.6 213.8,115.9 223.8,125.9 251.8,97.9 242.5,88.6 		"/>
		<polygon class="st346" points="223.8,51.3 213.8,61.3 213.8,78.6 223.8,88.6 242.5,88.6 251.8,79.3 		"/>
		<polygon class="st347" points="335.7,51.3 307.7,79.3 317.1,88.6 335.7,88.6 345.7,78.6 345.7,61.3 		"/>
		<polygon class="st348" points="317.1,88.6 307.7,97.9 335.7,125.9 345.7,115.9 345.7,98.6 335.7,88.6 		"/>
		<polygon class="st349" points="289.1,116.6 279.8,125.9 279.8,144.5 289.8,154.5 307.1,154.5 317.1,144.5 		"/>
		<polygon class="st350" points="270.5,116.6 242.5,144.5 252.5,154.5 269.8,154.5 279.8,144.5 279.8,125.9 		"/>
		<polygon class="st351" points="252.5,22.7 242.5,32.7 270.5,60.6 279.8,51.3 279.8,32.7 269.8,22.7 		"/>
		<polygon class="st352" points="289.8,22.7 279.8,32.7 279.8,51.3 289.1,60.6 317.1,32.7 307.1,22.7 		"/>
		<g>
			<defs>
				<path id="SVGID_256_" d="M42.9,213l1.1-4.8l1.1,4.8l5.6,17.5H37.4L42.9,213z M40.4,200.8l-9.5,29.7h-6.3v5.7h4.4l-4.2,13.1h6.5
					l4.1-13.1h17l1.8,5.5c0.5,1.6,1.1,3,1.7,4c0.6,1,1.3,1.8,2.1,2.3c0.8,0.5,1.6,0.9,2.6,1c1,0.2,2.1,0.3,3.3,0.3h2.5v-5.7h-1.6
					c-1.4,0-2.5-0.3-3.1-0.8c-0.6-0.5-1.1-1.4-1.5-2.5l-12.6-39.5H40.4z"/>
			</defs>
			<clipPath id="SVGID_1_">
				<use xlink:href="#SVGID_256_"  style="overflow:visible;"/>
			</clipPath>
			
				<linearGradient id="SVGID_2_" gradientUnits="userSpaceOnUse" x1="-311.1083" y1="1269.7289" x2="-309.6893" y2="1269.7289" gradientTransform="matrix(160.6158 2.1559 2.1559 -160.6158 47240.0898 204833.875)">
				<stop  offset="0" style="stop-color:#E27615"/>
				<stop  offset="1" style="stop-color:#EAB519"/>
			</linearGradient>
			<polygon style="clip-path:url(#SVGID_1_);fill:url(#SVGID_2_);" points="24.7,200.3 67.2,200.8 66.5,249.9 24,249.4 			"/>
		</g>
		<g>
			<defs>
				<path id="SVGID_259_" d="M81.2,206.5h7.8c1.6,0,3,0.2,4.2,0.7c1.2,0.5,2.2,1.1,3,1.9c0.8,0.8,1.4,1.7,1.8,2.8
					c0.4,1.1,0.6,2.2,0.6,3.2c0,2.6-0.8,4.8-2.4,6.5c-1.6,1.7-4,2.5-7.2,2.5h-7.8V206.5z M65.8,200.8v5.7h9.1v42.9h6.4v-19.6h8.9
					l9.9,13.4c1.5,2.1,3.1,3.6,4.7,4.7c1.6,1,3.6,1.5,6,1.5h3.1v-5.7h-1.2c-1.5,0-2.8-0.2-3.9-0.5c-1.1-0.3-2.1-1.1-3-2.4l-9-12.4
					c2.6-1.2,4.6-2.9,6-5.2c1.3-2.3,2-4.7,2-7.2c0-2-0.3-3.9-0.9-5.7c-0.6-1.8-1.6-3.4-3-4.8c-1.4-1.4-3.2-2.5-5.6-3.4
					c-2.3-0.8-5.2-1.3-8.7-1.3H65.8z"/>
			</defs>
			<clipPath id="SVGID_3_">
				<use xlink:href="#SVGID_259_"  style="overflow:visible;"/>
			</clipPath>
			
				<linearGradient id="SVGID_4_" gradientUnits="userSpaceOnUse" x1="-311.1083" y1="1269.73" x2="-309.6893" y2="1269.73" gradientTransform="matrix(160.6158 2.1559 2.1559 -160.6158 47240.0938 204833.4531)">
				<stop  offset="0" style="stop-color:#E27615"/>
				<stop  offset="1" style="stop-color:#EAB519"/>
			</linearGradient>
			<polygon style="clip-path:url(#SVGID_3_);fill:url(#SVGID_4_);" points="65.8,200.2 114.5,200.8 113.9,250 65.1,249.4 			"/>
		</g>
		<g>
			<defs>
				<path id="SVGID_262_" d="M121.6,200.8c-1.8,0-3.4,0.2-4.6,0.7c-1.2,0.5-2.1,1.1-2.8,1.9c-0.7,0.8-1.1,1.7-1.4,2.8
					c-0.3,1-0.4,2.2-0.4,3.4v2.5h5.5v-1.6c0-1.3,0.3-2.3,0.9-3c0.6-0.7,1.9-1,3.8-1h7.3v42.9h6.4v-42.9h15.7v-5.7H121.6z"/>
			</defs>
			<clipPath id="SVGID_5_">
				<use xlink:href="#SVGID_262_"  style="overflow:visible;"/>
			</clipPath>
			
				<linearGradient id="SVGID_6_" gradientUnits="userSpaceOnUse" x1="-311.1083" y1="1269.73" x2="-309.6893" y2="1269.73" gradientTransform="matrix(160.6158 2.1559 2.1559 -160.6158 47240.1016 204832.8906)">
				<stop  offset="0" style="stop-color:#E27615"/>
				<stop  offset="1" style="stop-color:#EAB519"/>
			</linearGradient>
			<polygon style="clip-path:url(#SVGID_5_);fill:url(#SVGID_6_);" points="112.4,200.3 152.5,200.8 151.9,249.9 111.7,249.4 			"/>
		</g>
		<g>
			<defs>
				<path id="SVGID_265_" d="M221.6,200.8c-2.4,0-4.4,0.5-6,1.5c-1.5,1-3.1,2.6-4.6,4.7l-11.8,16.4v-22.6h-6.4v48.6h6.4v-16.2
					l3.6-4.9l12.3,14.9c0.8,1,1.6,1.9,2.3,2.7c0.7,0.8,1.5,1.4,2.4,1.9c0.8,0.5,1.7,0.9,2.7,1.2c0.9,0.3,2,0.4,3.2,0.4h4v-5.7H228
					c-1.5,0-2.8-0.2-3.8-0.5c-1.1-0.3-2-1-2.9-2l-14.7-17.9l10.4-14c0.6-0.8,1.4-1.5,2.3-2c0.9-0.5,2.1-0.7,3.7-0.7h2v-5.7H221.6z"
					/>
			</defs>
			<clipPath id="SVGID_7_">
				<use xlink:href="#SVGID_265_"  style="overflow:visible;"/>
			</clipPath>
			
				<linearGradient id="SVGID_8_" gradientUnits="userSpaceOnUse" x1="-311.1083" y1="1269.7325" x2="-309.6893" y2="1269.7325" gradientTransform="matrix(160.6158 2.1559 2.1559 -160.6158 47240.1094 204832.2344)">
				<stop  offset="0" style="stop-color:#E27615"/>
				<stop  offset="1" style="stop-color:#EAB519"/>
			</linearGradient>
			<polygon style="clip-path:url(#SVGID_7_);fill:url(#SVGID_8_);" points="192.9,200.3 230.2,200.8 229.6,249.9 192.2,249.4 			"/>
		</g>
		<g>
			<defs>
				<rect id="SVGID_268_" x="483.3" y="222.3" width="13.5" height="5.7"/>
			</defs>
			<clipPath id="SVGID_9_">
				<use xlink:href="#SVGID_268_"  style="overflow:visible;"/>
			</clipPath>
			
				<linearGradient id="SVGID_10_" gradientUnits="userSpaceOnUse" x1="-311.133" y1="1268.7528" x2="-309.714" y2="1268.7528" gradientTransform="matrix(212.0485 0 0 -212.0485 66216.0938 269262.1875)">
				<stop  offset="0" style="stop-color:#4689C1"/>
				<stop  offset="0.9993" style="stop-color:#51B5DD"/>
				<stop  offset="1" style="stop-color:#51B5DD"/>
			</linearGradient>
			<rect x="483.3" y="222.3" style="clip-path:url(#SVGID_9_);fill:url(#SVGID_10_);" width="13.5" height="5.7"/>
		</g>
		<g>
			<defs>
				<polygon id="SVGID_271_" points="474.1,200.8 474.1,249.4 480.4,249.4 480.4,206.5 500.9,206.5 500.9,200.8 				"/>
			</defs>
			<clipPath id="SVGID_11_">
				<use xlink:href="#SVGID_271_"  style="overflow:visible;"/>
			</clipPath>
			
				<linearGradient id="SVGID_12_" gradientUnits="userSpaceOnUse" x1="-311.133" y1="1268.7528" x2="-309.714" y2="1268.7528" gradientTransform="matrix(212.0485 0 0 -212.0485 66216.0938 269262.1875)">
				<stop  offset="0" style="stop-color:#4689C1"/>
				<stop  offset="0.9993" style="stop-color:#51B5DD"/>
				<stop  offset="1" style="stop-color:#51B5DD"/>
			</linearGradient>
			<rect x="474.1" y="200.8" style="clip-path:url(#SVGID_11_);fill:url(#SVGID_12_);" width="26.8" height="48.6"/>
		</g>
		<g>
			<defs>
				<rect id="SVGID_274_" x="483.3" y="243.7" width="21" height="5.7"/>
			</defs>
			<clipPath id="SVGID_13_">
				<use xlink:href="#SVGID_274_"  style="overflow:visible;"/>
			</clipPath>
			
				<linearGradient id="SVGID_14_" gradientUnits="userSpaceOnUse" x1="-311.133" y1="1268.723" x2="-309.714" y2="1268.723" gradientTransform="matrix(212.0485 0 0 -212.0485 66216.0938 269277.2813)">
				<stop  offset="0" style="stop-color:#4689C1"/>
				<stop  offset="0.9993" style="stop-color:#51B5DD"/>
				<stop  offset="1" style="stop-color:#51B5DD"/>
			</linearGradient>
			<rect x="483.3" y="243.7" style="clip-path:url(#SVGID_13_);fill:url(#SVGID_14_);" width="21" height="5.7"/>
		</g>
		<g>
			<defs>
				<rect id="SVGID_277_" x="167.2" y="222.3" width="15.2" height="5.7"/>
			</defs>
			<clipPath id="SVGID_15_">
				<use xlink:href="#SVGID_277_"  style="overflow:visible;"/>
			</clipPath>
			
				<linearGradient id="SVGID_16_" gradientUnits="userSpaceOnUse" x1="-311.7379" y1="1268.4202" x2="-310.3188" y2="1268.4202" gradientTransform="matrix(238.7327 0 0 -238.7327 74316.2656 303038.5313)">
				<stop  offset="0" style="stop-color:#E27615"/>
				<stop  offset="1" style="stop-color:#EAB519"/>
			</linearGradient>
			<rect x="167.2" y="222.3" style="clip-path:url(#SVGID_15_);fill:url(#SVGID_16_);" width="15.2" height="5.7"/>
		</g>
		<g>
			<defs>
				<polygon id="SVGID_280_" points="158,200.8 158,249.4 164.3,249.4 164.3,206.5 186.5,206.5 186.5,200.8 				"/>
			</defs>
			<clipPath id="SVGID_17_">
				<use xlink:href="#SVGID_280_"  style="overflow:visible;"/>
			</clipPath>
			
				<linearGradient id="SVGID_18_" gradientUnits="userSpaceOnUse" x1="-311.6603" y1="1268.5752" x2="-310.2413" y2="1268.5752" gradientTransform="matrix(225.5075 0 0 -225.5075 70191.6719 286298.2813)">
				<stop  offset="0" style="stop-color:#E27615"/>
				<stop  offset="1" style="stop-color:#EAB519"/>
			</linearGradient>
			<rect x="158" y="200.8" style="clip-path:url(#SVGID_17_);fill:url(#SVGID_18_);" width="28.5" height="48.6"/>
		</g>
		<g>
			<defs>
				<rect id="SVGID_283_" x="167.2" y="243.7" width="19.3" height="5.7"/>
			</defs>
			<clipPath id="SVGID_19_">
				<use xlink:href="#SVGID_283_"  style="overflow:visible;"/>
			</clipPath>
			
				<linearGradient id="SVGID_20_" gradientUnits="userSpaceOnUse" x1="-311.4435" y1="1268.9824" x2="-310.0244" y2="1268.9824" gradientTransform="matrix(194.8904 0 0 -194.8904 60641.6992 247559.0313)">
				<stop  offset="0" style="stop-color:#E27615"/>
				<stop  offset="1" style="stop-color:#EAB519"/>
			</linearGradient>
			<rect x="167.2" y="243.7" style="clip-path:url(#SVGID_19_);fill:url(#SVGID_20_);" width="19.3" height="5.7"/>
		</g>
		<g>
			<defs>
				<path id="SVGID_286_" d="M249.5,200.8v5.7h9.1v42.9h6.4v-42.9h2.4c3,0,5.2,0.5,6.7,1.6c1.5,1,2.2,2.5,2.2,4.5
					c0,2.2-0.7,4-2.1,5.3c-1.4,1.4-3.5,2.2-6.4,2.4v4.9h5.1c2.4,0,4.4,0.3,6.2,0.8c1.7,0.5,3.1,1.3,4.3,2.2c1.1,0.9,2,1.9,2.5,3.1
					c0.5,1.1,0.8,2.3,0.8,3.5c0,1.2-0.2,2.3-0.5,3.4c-0.3,1.1-1,2-1.9,2.8c-0.9,0.8-2.2,1.5-3.7,1.9c-1.5,0.5-3.5,0.7-5.9,0.7h-6.9
					v5.7h7.7c3.1,0,5.8-0.4,8-1.3c2.2-0.8,4-2,5.3-3.3c1.4-1.4,2.4-2.9,3-4.7c0.6-1.8,0.9-3.6,0.9-5.4c0-1.6-0.3-3.2-0.9-4.8
					c-0.6-1.6-1.4-3-2.6-4.3c-1.2-1.3-2.6-2.4-4.4-3.3c-1.8-0.9-3.8-1.5-6.2-1.8c1.4-1.4,2.4-2.9,2.9-4.4c0.5-1.6,0.7-2.9,0.7-3.8
					c0-1.5-0.3-3-0.8-4.4c-0.5-1.4-1.4-2.6-2.5-3.6c-1.1-1-2.5-1.8-4.1-2.4c-1.6-0.6-3.6-0.9-5.8-0.9H249.5z"/>
			</defs>
			<clipPath id="SVGID_21_">
				<use xlink:href="#SVGID_286_"  style="overflow:visible;"/>
			</clipPath>
			
				<linearGradient id="SVGID_22_" gradientUnits="userSpaceOnUse" x1="-311.133" y1="1268.7528" x2="-309.714" y2="1268.7528" gradientTransform="matrix(212.0485 0 0 -212.0485 66216.0938 269262.1875)">
				<stop  offset="0" style="stop-color:#4689C1"/>
				<stop  offset="0.9993" style="stop-color:#51B5DD"/>
				<stop  offset="1" style="stop-color:#51B5DD"/>
			</linearGradient>
			<rect x="249.5" y="200.8" style="clip-path:url(#SVGID_21_);fill:url(#SVGID_22_);" width="43.1" height="48.6"/>
		</g>
		<g>
			<defs>
				<path id="SVGID_289_" d="M328.3,200.8v32.5c0,3.2-0.9,5.7-2.7,7.3c-1.8,1.6-4.3,2.5-7.5,2.5h-1.6c-3.2,0-5.7-0.8-7.5-2.5
					c-1.8-1.6-2.7-4.1-2.7-7.3V210c0-3.5-0.8-5.9-2.5-7.2c-1.7-1.3-4.1-2-7.2-2h-2.2v5.7h1.7c1.5,0,2.5,0.4,3.1,1.3
					c0.5,0.9,0.8,2.3,0.8,4.1v21.4c0,5.2,1.4,9.2,4.3,12c2.9,2.7,6.9,4.1,12.2,4.1h1.6c5.3,0,9.4-1.4,12.2-4.1
					c2.9-2.7,4.3-6.7,4.3-12v-32.5H328.3z"/>
			</defs>
			<clipPath id="SVGID_23_">
				<use xlink:href="#SVGID_289_"  style="overflow:visible;"/>
			</clipPath>
			
				<linearGradient id="SVGID_24_" gradientUnits="userSpaceOnUse" x1="-311.133" y1="1268.7528" x2="-309.714" y2="1268.7528" gradientTransform="matrix(212.0485 0 0 -212.0485 66216.0938 269262.1875)">
				<stop  offset="0" style="stop-color:#4689C1"/>
				<stop  offset="0.9993" style="stop-color:#51B5DD"/>
				<stop  offset="1" style="stop-color:#51B5DD"/>
			</linearGradient>
			<rect x="294.5" y="200.8" style="clip-path:url(#SVGID_23_);fill:url(#SVGID_24_);" width="40.2" height="48.6"/>
		</g>
		<g>
			<defs>
				<path id="SVGID_292_" d="M372,200.8c-2.4,0-4.4,0.5-6,1.5c-1.5,1-3.1,2.6-4.6,4.7l-11.8,16.4v-22.6h-6.4v48.6h6.4v-16.2l3.6-4.9
					l12.3,14.9c0.8,1,1.6,1.9,2.3,2.7c0.7,0.8,1.5,1.4,2.4,1.9c0.8,0.5,1.7,0.9,2.7,1.2c0.9,0.3,2,0.4,3.2,0.4h4v-5.7h-1.6
					c-1.5,0-2.8-0.2-3.8-0.5c-1.1-0.3-2-1-2.9-2l-14.7-17.9l10.4-14c0.6-0.8,1.4-1.5,2.3-2c0.9-0.5,2.1-0.7,3.7-0.7h2v-5.7H372z"/>
			</defs>
			<clipPath id="SVGID_25_">
				<use xlink:href="#SVGID_292_"  style="overflow:visible;"/>
			</clipPath>
			
				<linearGradient id="SVGID_26_" gradientUnits="userSpaceOnUse" x1="-311.133" y1="1268.7528" x2="-309.714" y2="1268.7528" gradientTransform="matrix(212.0485 0 0 -212.0485 66216.0938 269262.1875)">
				<stop  offset="0" style="stop-color:#4689C1"/>
				<stop  offset="0.9993" style="stop-color:#51B5DD"/>
				<stop  offset="1" style="stop-color:#51B5DD"/>
			</linearGradient>
			<rect x="343.3" y="200.8" style="clip-path:url(#SVGID_25_);fill:url(#SVGID_26_);" width="36.7" height="48.6"/>
		</g>
		<g>
			<defs>
				<path id="SVGID_295_" d="M450.9,237.2l-1,4.4l-1-4.4l-9.2-28.8c-0.5-1.6-1.1-3-1.8-4c-0.6-1-1.3-1.8-2.1-2.3
					c-0.8-0.5-1.6-0.9-2.6-1c-1-0.2-2.1-0.3-3.3-0.3h-2.5v5.7h1.6c1.4,0,2.5,0.3,3.1,0.8c0.6,0.5,1.1,1.4,1.5,2.5l12.6,39.5h7.2
					l15.1-47.1l-6-1.9L450.9,237.2z"/>
			</defs>
			<clipPath id="SVGID_27_">
				<use xlink:href="#SVGID_295_"  style="overflow:visible;"/>
			</clipPath>
			
				<linearGradient id="SVGID_28_" gradientUnits="userSpaceOnUse" x1="-311.133" y1="1268.7532" x2="-309.714" y2="1268.7532" gradientTransform="matrix(212.0485 0 0 -212.0485 66216.0938 269262)">
				<stop  offset="0" style="stop-color:#4689C1"/>
				<stop  offset="0.9993" style="stop-color:#51B5DD"/>
				<stop  offset="1" style="stop-color:#51B5DD"/>
			</linearGradient>
			<rect x="427.4" y="200.3" style="clip-path:url(#SVGID_27_);fill:url(#SVGID_28_);" width="41.2" height="49.1"/>
		</g>
		<g>
			<defs>
				<path id="SVGID_298_" d="M508.6,200.8v39.4c0,1,0.1,1.9,0.4,2.8c0.4,1.4,1.2,2.6,2.2,3.6c0.8,0.8,1.8,1.5,3,1.9
					c1.2,0.5,2.5,0.7,3.8,0.7h18.6c1,0,1.9-0.8,1.9-1.9v-7.8h-5.8v4h-12.5c-1.6,0-2.9-0.4-3.8-1.1c-0.9-0.7-1.4-2.1-1.4-4v-37.7
					H508.6z"/>
			</defs>
			<clipPath id="SVGID_29_">
				<use xlink:href="#SVGID_298_"  style="overflow:visible;"/>
			</clipPath>
			
				<linearGradient id="SVGID_30_" gradientUnits="userSpaceOnUse" x1="-311.133" y1="1268.7528" x2="-309.714" y2="1268.7528" gradientTransform="matrix(212.0489 0 0 -212.0489 66216.2188 269262.6875)">
				<stop  offset="0" style="stop-color:#4689C1"/>
				<stop  offset="0.9993" style="stop-color:#51B5DD"/>
				<stop  offset="1" style="stop-color:#51B5DD"/>
			</linearGradient>
			<rect x="508.6" y="200.8" style="clip-path:url(#SVGID_29_);fill:url(#SVGID_30_);" width="29.9" height="48.6"/>
		</g>
		<g>
			<defs>
				<path id="SVGID_301_" d="M396.9,242.2c-1.9-1-3.5-2.3-4.8-3.9c-1.3-1.6-2.2-3.5-2.8-5.7c-0.6-2.2-0.9-4.4-0.9-6.8
					c0-1.7,0.2-3.5,0.5-5.2c0.3-1.7,0.8-3.3,1.5-4.9c0.7-1.5,1.5-2.9,2.5-4.1c1-1.2,2.1-2.3,3.5-3.1c1.1-0.6,2.6-1.3,4.7-1.8
					c0.8-0.1,1.6-0.2,2.5-0.2c2.1,0,4,0.4,5.8,1.3c1,0.5,4,2.6,5.1,4.2c1.4,1.8,2.5,4,3.2,6.4c0.7,2.4,1.1,4.9,1.1,7.5
					c0,2.4-0.3,4.7-1,6.8c-0.6,2.2-1.6,4.1-2.9,5.7c-1.3,1.6-2.9,3-4.7,3.9c-1.9,1-4.1,1.5-6.6,1.5
					C401.1,243.7,398.8,243.2,396.9,242.2 M394.2,202.6c-2.7,1.5-4.9,3.5-6.8,5.9c-1.8,2.4-3.2,5.2-4.1,8.3
					c-0.9,3.1-1.3,6.2-1.3,9.3c0,3.1,0.4,6.1,1.3,8.9c0.9,2.8,2.2,5.4,4,7.5c1.8,2.2,4,3.9,6.8,5.2c2.7,1.3,5.9,1.9,9.5,1.9
					c3.6,0,6.8-0.6,9.5-1.9c2.7-1.3,5-3,6.8-5.2c1.8-2.2,3.1-4.7,4-7.5c0.9-2.8,1.3-5.8,1.3-8.9c0-3-0.4-6.1-1.3-9
					c-0.8-3-2.1-5.7-3.9-8.1c-0.8-1.2-2.3-2.9-4.2-4.6c-1.6-1.3-3.4-2.2-5.5-2.9c-2-0.7-4.3-1.1-6.8-1.1
					C400,200.3,396.9,201,394.2,202.6"/>
			</defs>
			<clipPath id="SVGID_31_">
				<use xlink:href="#SVGID_301_"  style="overflow:visible;"/>
			</clipPath>
			
				<linearGradient id="SVGID_32_" gradientUnits="userSpaceOnUse" x1="-311.133" y1="1268.7531" x2="-309.714" y2="1268.7531" gradientTransform="matrix(212.0485 0 0 -212.0485 66216.0938 269262.0938)">
				<stop  offset="0" style="stop-color:#4689C1"/>
				<stop  offset="0.9993" style="stop-color:#51B5DD"/>
				<stop  offset="1" style="stop-color:#51B5DD"/>
			</linearGradient>
			<rect x="382" y="200.3" style="clip-path:url(#SVGID_31_);fill:url(#SVGID_32_);" width="43.2" height="49.4"/>
		</g>
	</g>
</g>
</svg>
