<svg width="33" height="33" viewBox="0 0 33 33" fill="none" xmlns="http://www.w3.org/2000/svg">
<g clip-path="url(#clip0_2_19)">
<path d="M4.90725 14.68C3.33278 14.3433 8.00824 11.0962 10.7256 11.5612C12.332 11.8338 14.7777 14.6078 15.8726 17.3097C16.7757 19.5386 17.3592 11.3608 27.805 2.7179C31.1858 -0.0802025 33 -0.28064 33 0.20041C33 0.673442 31.3536 2.13263 30.0109 3.62388C23.4892 10.9038 19.565 20.4205 19.0935 23.6275C18.8218 25.4956 14.7617 27.7726 14.1783 26.0889C12.0044 19.7791 7.93631 15.3294 4.90725 14.68Z" fill="#3AD813"/>
<path d="M29.3236 33H0.991039C0.447566 33 0 32.559 0 32.0058V3.58381C0 3.03862 0.439574 2.59766 0.991039 2.59766H18.558C19.1015 2.59766 19.549 3.03862 19.549 3.58381C19.549 4.129 19.0935 4.56996 18.55 4.56996H1.97409V31.0197H28.3405V12.1786C28.3405 11.6334 28.7801 11.1924 29.3236 11.1924C29.867 11.1924 30.3066 11.6334 30.3066 12.1786V32.0058C30.3146 32.559 29.875 33 29.3236 33Z" fill="#303030"/>
</g>
<defs>
<clipPath id="clip0_2_19">
<rect width="33" height="33" fill="white"/>
</clipPath>
</defs>
</svg>
