<?xml version="1.0" encoding="utf-8"?>
<!-- Generator: Adobe Illustrator 22.0.1, SVG Export Plug-In . SVG Version: 6.00 Build 0)  -->
<svg version="1.1" xmlns="http://www.w3.org/2000/svg" xmlns:xlink="http://www.w3.org/1999/xlink" x="0px" y="0px"
	 viewBox="0 0 500 500" style="enable-background:new 0 0 500 500;" xml:space="preserve">
<style type="text/css">
	.st0{fill:#3A6480;}
	.st1{fill:#D7D8D5;}
	.st2{opacity:0.5;fill:#394F6D;}
	.st3{fill:#47799B;}
	.st4{fill:#EDEEE9;}
	.st5{fill:#6D4733;}
	.st6{fill:#7E533D;}
	.st7{fill:#FBBD90;}
	.st8{fill:#F9A77A;}
	.st9{fill:#FED5B0;}
	.st10{fill:#895B44;}
	.st11{fill:#4691B3;}
	.st12{opacity:0.7;}
	.st13{clip-path:url(#SVGID_2_);}
	.st14{fill:#FFFFFF;}
	.st15{opacity:0.4;fill:#D3D4D1;}
	.st16{fill:#F1F2F2;}
	.st17{opacity:0.5;fill:#4691B3;}
	.st18{fill:#B2BDBB;}
	.st19{fill:#394F6D;}
	.st20{fill:#595352;}
	.st21{fill:#BFCAC8;}
	.st22{fill:#2D405A;}
	.st23{fill:#6F7878;}
	.st24{fill:#9AA4A3;}
	.st25{fill:#848D8D;}
	.st26{fill:#E3F3F3;}
	.st27{opacity:0.7;fill:#FBBD90;}
	.st28{fill:#F8A486;}
	.st29{fill:#523423;}
	.st30{fill:#C28C5C;}
	.st31{fill:#66422F;}
	.st32{fill:#936149;}
	.st33{fill:#E1E1E1;}
	.st34{fill:#F5F5F5;}
	.st35{fill:#FF4F5B;}
	.st36{fill:#FAFAFA;}
	.st37{opacity:0.3;}
	.st38{fill:#FFBF9D;}
	.st39{fill:#1A2E35;}
	.st40{fill:#FF9A6C;}
	.st41{fill:#375A64;}
	.st42{fill:#4C5C62;}
	.st43{clip-path:url(#SVGID_4_);}
	.st44{fill:#2C2C2D;}
	.st45{fill:#4F4F4F;}
	.st46{fill:#F4F6FA;}
	.st47{fill:#C4D8ED;}
	.st48{fill:#222626;}
	.st49{fill:#3C4147;}
	.st50{fill:#9D9D9D;}
	.st51{fill:#5181BA;}
	.st52{fill:#E1ECFA;}
	.st53{fill:#DFAA80;}
	.st54{fill:#B82534;}
	.st55{fill:#F8A362;}
	.st56{fill:#4E5255;}
	.st57{clip-path:url(#SVGID_6_);}
	.st58{fill:#E2E5E8;}
	.st59{fill:#C9CDCF;}
	.st60{fill:#343535;}
	.st61{fill:#D5D8DB;}
	.st62{fill:#51B897;}
	.st63{fill:#444749;}
	.st64{fill:#95CCDC;}
	.st65{filter:url(#Adobe_OpacityMaskFilter);}
	.st66{mask:url(#SVGID_7_);}
	.st67{fill:#1B2C3B;}
</style>
<g id="OBJECT">
	<g>
		<defs>
			<filter id="Adobe_OpacityMaskFilter" filterUnits="userSpaceOnUse" x="137.1" y="122.8" width="225.8" height="300.8">
				<feColorMatrix  type="matrix" values="1 0 0 0 0  0 1 0 0 0  0 0 1 0 0  0 0 0 1 0"/>
			</filter>
		</defs>
		<mask maskUnits="userSpaceOnUse" x="137.1" y="122.8" width="225.8" height="300.8" id="SVGID_2_">
			<g class="st65">
				<g>
					<rect x="40.1" y="75.1" class="st14" width="384.6" height="377.7"/>
					<g>
						<g>
							<path d="M320.4,375.8L320.4,375.8l0-1.9c-0.1,0-0.1,0-0.1,0l0,0l0,0c0,0,0,0,0.1,0l-1.7,3.3l0,0c0.4,0.2,0.8,0.4,1.3,0.4l0,0
								c0,0,0,0,0,0h0c0,0,0,0,0,0h0h0c0.1,0,0.2,0,0.3,0L320.4,375.8L320.4,375.8z"/>
							<path d="M345,395.9C345,395.9,345,395.9,345,395.9l0.7-1.7l0,0c0,0,0,0,0-0.1H344c0,0,0,0,0,0l1.7,0l-3.4-0.1v0.1l1.7,0
								c0,0,0,0,0,0h-1.7c0,1.6,0.7,2.9,2,3.6L345,395.9C345,395.9,345,395.9,345,395.9z"/>
							<path d="M321.8,263.6L321.8,263.6l0.3-0.6l0.6-1.1c-0.1-0.1-0.1-0.2-0.2-0.2c-0.1-0.1-0.2-0.2-0.3-0.3
								c-0.1-0.1-0.2-0.2-0.3-0.2l0,0l0,0l-2.1,3.1h0l0,0c0.1,0.1,0.2,0.2,0.2,0.2c0.2,0.2,0.5,0.5,0.8,0.7l0.1,0.1L321.8,263.6
								L321.8,263.6z"/>
							<path d="M223.6,405.4l0.1,1.9c1.2-0.1,2.3-0.7,2.9-1.8l-2.8-2.2c0,0,0,0,0,0c0,0,0,0,0,0c0,0-0.1,0.1-0.3,0.1c0,0,0,0,0,0
								L223.6,405.4L223.6,405.4L223.6,405.4z"/>
							<path d="M411.2,246.6l-1.6,0.7c0.2,0.7,0.7,1.3,1.2,1.7c0,0,0,0,0,0s0,0,0,0c0.5,0.4,1.1,0.6,1.8,0.7l0.2,0l0.2,0
								c0.6-0.1,1.1-0.2,1.6-0.5c0.2-0.1,0.3-0.2,0.5-0.3l0,0l-2.1-3c0,0,0,0-0.1,0c-0.1,0-0.1,0-0.1,0l0,0l0,0c0,0,0,0,0,0
								c0,0-0.1,0-0.1,0l0,0c0,0,0,0,0,0l0,0.1L411.2,246.6C411.2,246.6,411.2,246.6,411.2,246.6
								C411.2,246.6,411.2,246.6,411.2,246.6z"/>
							<path d="M224.2,368.5l-1.7,0.2c0.1,1.5,1.1,2.8,2.6,3.3l0.3,0.1c1,0.1,2-0.1,2.8-0.6l-1.8-3.2l0,0c0,0,0,0,0,0
								c-0.1,0-0.2,0-0.3,0c-0.1,0-0.1-0.1-0.1-0.1c0,0,0,0,0,0l0,0c0,0,0,0,0,0.1c0,0,0,0-0.1,0v0h0l0,0.1L224.2,368.5
								C224.2,368.5,224.2,368.5,224.2,368.5C224.2,368.5,224.2,368.5,224.2,368.5z"/>
							<polygon points="295,340.1 295,340.1 295,340.1 296.2,341.5 296.2,341.5 296.2,341.5 297.2,340.4 294.9,337.6 294.4,338.1 
								294.4,338.1 293.8,338.7 295,340.1 							"/>
							<path d="M257.9,391.5C257.9,391.5,257.9,391.5,257.9,391.5l1-1.6c0,0,0,0-0.1,0c0,0-0.1-0.1-0.2-0.1c0,0-0.1,0-0.1-0.1l0,0
								c0,0,0,0,0,0l-1.8,3.3l0.1,0.1L257.9,391.5C257.9,391.5,257.9,391.5,257.9,391.5z"/>
							<path d="M152.8,417.7L152.8,417.7l1,1.5L152.8,417.7l-0.3,0.3l2.1,3l0,0l0,0l0.6-0.5l-2.1-3L152.8,417.7L152.8,417.7z"/>
							<path d="M131.6,277.4c0.1,0,0.3,0.1,0.5,0.2l0.3,0.1l0,0l0,0l1.1-3.6l0,0h0l-0.3-0.1c-0.3-0.1-0.7-0.3-1.1-0.4
								c0,0-0.1,0-0.1,0l0,0l-0.7,3.8C131.4,277.4,131.5,277.4,131.6,277.4z"/>
							<path d="M130.9,314.7l-0.5,1.1c-0.1,0.2-0.2,0.5-0.4,0.8c0,0,0,0,0,0c0,0,0,0,0,0c0,0,0,0,0,0c0,0,0,0,0,0
								c-0.1,0.2-0.1,0.3-0.2,0.5l1.6,0.6l0,0l0,0l0.6,0.2l0,0l0.3-0.5l0.1,0.7l0.7,0.3c0.1-0.3,0.2-0.6,0.4-0.9l0.2-0.3l0,0v0
								l-0.9-0.5l1.1-1.9c-0.6-0.4-1.3-0.6-2.1-0.4L130.9,314.7z"/>
							<path d="M355.4,334.2l0,0.2h-0.3l0,0.4l0.3-0.1l0.1,3c1.6-0.1,2.7-1.3,3-3l0-0.4l-0.1-0.3l-1.3,0.3L355.4,334.2z"/>
							<path d="M335.1,227.2C335.1,227.2,335.1,227.2,335.1,227.2C335.1,227.2,335.1,227.2,335.1,227.2
								C335,227.2,335,227.2,335.1,227.2C335,227.2,335,227.2,335.1,227.2C335,227.2,335,227.2,335.1,227.2L335.1,227.2
								c-0.2,0.1-0.4,0.2-0.5,0.2l0.7,1.6l-0.4,0.1v0l0,0l0.1,0.3l0.4-0.1l0.7,1.6c0,0,0,0,0,0c0,0,0,0,0,0l0,0l0,0c0,0,0,0,0,0
								c0,0,0,0,0,0c0,0,0,0,0,0c0,0,0,0,0,0l0,0c0.2-0.1,0.4-0.2,0.7-0.3l0.3-0.1v0h0l-0.5-1.6l1.7-0.5l-0.5-2.3l-2.1,0.8
								C335.5,227,335.3,227.1,335.1,227.2z"/>
							<path d="M275.9,230.8C275.9,230.8,275.9,230.8,275.9,230.8L275.9,230.8c-0.1-0.1-0.2-0.1-0.2-0.2c-0.2-0.2-0.5-0.5-0.9-0.6
								l-1.4,3.5c0.1,0,0.1,0.1,0.2,0.1c0,0,0,0,0.1,0.1c0.2,0.1,0.3,0.3,0.5,0.4v0c0,0,0,0,0,0L275.9,230.8z"/>
							<path d="M357.3,294.3C357.3,294.3,357.3,294.3,357.3,294.3L357.3,294.3c0.1,0.1,0.1,0.1,0.2,0.2c0.1,0.1,0.3,0.3,0.5,0.4l0,0
								c0,0,0,0,0,0c0.1,0.1,0.2,0.1,0.3,0.2l0.6-1.2l-0.5,1.3l0.8-1.7l0,0l0,0l0,0l0.8-1.7h0c0,0,0,0,0,0c-0.1,0-0.1-0.1-0.2-0.2
								c-0.2-0.1-0.3-0.3-0.5-0.4v0c0,0,0,0,0,0L357.3,294.3z"/>
							<path d="M299,369.9c0,0-0.1,0-0.1,0l0,0h0l0.1,3.8c0.7,0,1.3-0.2,1.8-0.5l-1.5-3.4c0,0,0,0,0,0
								C299.1,369.8,299.1,369.9,299,369.9z"/>
							<path d="M200.3,210.9C200.3,210.9,200.3,210.9,200.3,210.9L200.3,210.9c-0.1-0.1-0.1-0.2-0.2-0.2c-0.2-0.3-0.5-0.6-0.8-0.8
								l-2,3.2l0,0c0,0,0,0,0,0c0,0.1,0.1,0.1,0.2,0.2c0,0,0,0,0,0c0.1,0.2,0.3,0.3,0.4,0.5l0,0c0,0,0,0,0,0L200.3,210.9z"/>
							<path d="M375.7,211.6L375.7,211.6L375.7,211.6l1.7-0.2c-0.1-1.4-1-2.4-2.5-2.9l-0.9,3.3L375.7,211.6z"/>
							<path d="M212.2,416.5L212.2,416.5l-1,0.4c0,0,0-0.1,0-0.1c0,0,0,0,0,0c0,0.2,0,0.3,0,0.5l0,0v0l1-0.2l-0.2,2.3l0.2,0
								c0,0,0,0,0,0c0,0,0,0,0,0c0,0,0.1,0,0.1,0c0,0,0,0,0,0c0.2,0,0.4-0.1,0.7-0.2c0,0,0,0,0,0l0,0l0,0h0c0.4-0.2,0.9-0.6,1.3-1.3
								l0.4-0.7l-0.1-0.7c0-0.1,0-0.1,0-0.2v0c0,0,0,0,0,0c0-0.1,0-0.1,0-0.2c0,0,0,0,0,0c0,0,0,0,0,0c0-0.1,0-0.2-0.1-0.3
								L212.2,416.5L212.2,416.5z"/>
							<path d="M300,151.3C300,151.3,300,151.3,300,151.3L300,151.3c0.1,0.1,0.2,0.1,0.3,0.2c0.2,0.1,0.3,0.2,0.5,0.4l1.8-3.3l0,0
								c0,0,0,0,0,0c-0.1-0.1-0.2-0.1-0.2-0.2c-0.2-0.2-0.4-0.3-0.5-0.4h0c0,0,0,0,0,0L300,151.3z"/>
							<path d="M394.1,395.4c0,0-0.1-0.1-0.1-0.1c-0.1-0.1-0.1-0.2-0.1-0.3l-3.3,1v0c0,0.1,0,0.1,0,0.2c0,0,0,0,0,0
								c0.3,1.2,1,2.1,1.9,2.7l0.8-1.7l-0.8,1.7c0.3,0.2,0.6,0.3,1,0.4l0.9-3.7C394.2,395.5,394.1,395.4,394.1,395.4z"/>
							<path d="M329.4,433.9C329.4,433.9,329.4,433.9,329.4,433.9L329.4,433.9c-0.1-0.1-0.1-0.1-0.2-0.2c0,0,0-0.1-0.1-0.1
								c-0.1-0.1-0.1-0.1-0.2-0.2l0,0l-1.2,1.4c0,0,0,0,0,0c0,0,0,0,0,0l-1.2,1.4l0.1,0.2c0,0.1,0.1,0.1,0.1,0.2
								c0.1,0.1,0.2,0.2,0.3,0.3l0,0c0,0,0,0,0,0L329.4,433.9z"/>
							<path d="M363.6,234.5L363.6,234.5C363.6,234.5,363.6,234.5,363.6,234.5C363.6,234.5,363.6,234.5,363.6,234.5
								C363.6,234.5,363.6,234.5,363.6,234.5C363.6,234.5,363.6,234.5,363.6,234.5L363.6,234.5C363.6,234.5,363.7,234.5,363.6,234.5
								L363.6,234.5C363.7,234.5,363.7,234.5,363.6,234.5L363.6,234.5c0.2-0.1,0.4-0.2,0.6-0.3l0,0c0,0,0,0,0,0c0,0,0,0,0,0
								c0,0,0,0,0,0c0,0,0,0,0,0c0,0,0,0,0,0c0,0,0,0,0,0c0,0,0,0,0,0c0,0,0,0,0,0c0,0,0,0,0,0c0.4-0.2,0.7-0.6,1-1l-2.7-2.3
								c0,0,0,0,0,0c-0.1,0.1-0.4,0.3-1.4,0.3c-0.5-0.1-0.9-0.2-1-0.3c0,0,0,0,0,0c0,0,0,0,0,0l-1.1,1.5l-1.1,1.5
								c0.1,0.1,0.2,0.2,0.4,0.3c0,0,0,0,0,0c0,0,0,0,0,0c0.3,0.2,0.5,0.3,0.8,0.4c0,0,0,0,0,0c0,0,0,0,0,0c0.5,0.2,1.1,0.3,1.6,0.4
								l0.2,0l0.2,0C361.5,235,362.6,234.9,363.6,234.5z"/>
							<path d="M256.4,374L256.4,374C256.4,374,256.4,374,256.4,374c-0.1-0.1-0.1-0.2-0.1-0.3c0,0,0-0.1-0.1-0.1
								c-0.1-0.1-0.1-0.2-0.2-0.3c0-0.1-0.1-0.1-0.1-0.2l-2.9,2c0,0,0,0,0,0h0c0.1,0.1,0.1,0.2,0.1,0.3c0.1,0.3,0.2,0.6,0.4,0.8l0,0
								c0,0,0,0,0,0v0c0,0,0,0,0,0c0,0.1,0.1,0.1,0.1,0.2h0l0,0L256.4,374L256.4,374z"/>
							<path d="M290.4,366.2l-1.7-0.3L290.4,366.2c0-0.1,0-0.2,0-0.3c0-0.1,0-0.2,0-0.2l-1.7,0l1.7,0h-1.7c0,0,0,0,0,0c0,0,0,0,0,0
								h-1.1l0,0l-0.6-0.1l0.5,0.1l-0.5-0.1l0.4,0.1h0h0h-0.1h0l-0.4,0l0.2,0H287l0.5,0l0.2,0l1.5,2.6
								C289.8,367.8,290.3,367,290.4,366.2z"/>
							<path d="M241.1,393.1c0.3-0.1,0.6-0.3,0.9-0.5l-1.8-3.2c-0.1,0-0.2,0.1-0.3,0.1c-0.2,0.1-0.5,0.2-0.7,0.3l0,0c0,0,0,0,0,0
								l0,0l-0.8,0l0,0l0,0l-1.7-0.1l0,0.1c0,1.1,0.5,2.1,1.3,2.8c0.5,0.4,1.1,0.7,1.8,0.8l0.6,0.1l0.5-0.3
								C240.9,393.2,241,393.2,241.1,393.1z"/>
							<path d="M150.5,393.3L150.5,393.3c1.6-0.3,2.6-1.4,3.1-3l-3.3-1.2c0,0,0,0,0,0.1c0,0,0,0,0,0c0,0.1-0.1,0.1-0.1,0.2
								c-0.2,0.2-0.5,0.3-1.4,0.2c-0.3-0.1-0.4-0.2-0.5-0.2l0,0l-2.8,2.3l0,0l0,0c0.1,0.2,0.2,0.3,0.4,0.5c0.5,0.6,1.3,1,2.2,1.3
								l0.3,0C149.2,393.4,149.9,393.4,150.5,393.3C150.5,393.3,150.5,393.3,150.5,393.3z"/>
							<path d="M193.6,382.3L193.6,382.3L193.6,382.3c0-0.1-0.1-0.2-0.1-0.3c-0.1-0.2-0.2-0.5-0.4-0.8c0,0,0,0,0,0
								c0-0.1-0.1-0.1-0.1-0.2l0,0l-2.8,2.2c0,0.1,0.1,0.2,0.1,0.3c0.1,0.2,0.2,0.5,0.3,0.7h0c0,0,0,0,0,0L193.6,382.3z"/>
							<path d="M424.7,300.4l-0.1-0.1L424.7,300.4v-0.7h-0.1l0.1,0v0h-0.1v0l0.1,0v-0.2l-0.1,0l-1.7,0.2l0,0c0-0.1,0.1-0.1,0.1-0.2
								c0,0,0.1-0.1,0.1-0.1c0,0,0,0,0,0c-0.1,0.1-0.4,0.1-0.7,0.2c-0.2,0-0.2-0.1-0.2-0.1s0,0,0.1,0.1c0,0-0.1,0-0.1,0v0l0,0l0,0.3
								l-2.6,2c0.2,0.4,0.5,0.7,0.9,0.9c0,0,0,0,0,0c0.4,0.3,1,0.5,1.6,0.6l0.2,0l0.2,0c0.5-0.1,1.1-0.1,1.7-0.4
								c0.2-0.1,0.3-0.1,0.5-0.2V300.4z"/>
							<path d="M346.6,294.6l-6.2-0.6c-0.1,0-0.2,0-0.2,0c0,0,0,0,0,0c0,0,0,0,0,0c0,0,0,0,0.1,0.1c0,0,0,0.1,0.1,0.1l-0.1,0
								l-0.7,0.2l-2.6,0.8l0,0c0,0.1,0.1,0.2,0.1,0.3c0.5,1.4,1.6,2.2,3,2.4l0.1,0h0.5L346.6,294.6z"/>
							<path d="M120.7,294.4c0.2-0.2,0.5-0.4,0.8-0.8l0,0c0,0,0,0,0,0c0,0,0,0,0,0c0,0,0,0,0,0c0,0,0,0,0,0c0,0,0,0,0,0c0,0,0,0,0,0
								c0,0,0,0,0,0c0,0,0,0,0,0c0,0,0,0,0,0c0,0,0,0,0,0c0,0,0,0,0,0s0,0,0,0v0c0.1-0.2,0.2-0.3,0.3-0.5c0,0,0,0,0,0c0,0,0,0,0,0
								c0,0,0,0,0,0c0,0,0,0,0-0.1v0c0,0,0,0,0,0l0,0c0,0,0,0,0,0h0c0,0,0,0,0,0c0,0,0,0,0,0c0,0,0,0,0,0l0,0c0,0,0,0,0,0
								c0,0,0,0,0,0c0,0,0,0,0,0c0,0,0,0,0,0c0,0,0,0,0,0c0,0,0,0,0,0l0,0c0,0,0,0,0,0l0,0c0,0,0-0.1,0-0.1l0,0c0,0,0,0,0,0v0
								c0,0,0,0,0,0l-2.6-0.8v0l-0.1,0.1v-0.1l-0.6-0.2c0.1-0.3,0.2-0.5,0.2-0.5c0,0,0,0,0,0c0,0,0,0,0,0c-0.1,0.1-0.2,0.1-0.2,0.2
								c-0.2,0.1-0.4,0.3-0.5,0.4l0,0c0,0,0,0,0,0l0.6,0.8l-0.3,0.4l0,0l0,0l-1.2,1.4c0.5,0.5,1.2,0.8,2,0.8l0.7,0l0.5-0.5
								C120.5,294.5,120.6,294.5,120.7,294.4z"/>
							<path d="M418.3,282.3c0.2-0.1,0.4-0.3,0.6-0.5c0.1-0.1,0.1-0.1,0.2-0.2l0,0l-2-2.1c0,0,0,0,0,0l0,0c0,0,0,0,0,0l-0.1,0l0-0.1
								h0l0,0l-0.4-0.5c-0.1,0.1-0.2,0.1-0.2,0.2c-0.2,0.2-0.4,0.3-0.5,0.5l0,0h0l0.3,0.4l-2.2,0.9c0.2,0.7,0.9,2,2.9,2.2l0.7,0.1
								l0.5-0.5C418.1,282.4,418.2,282.4,418.3,282.3z"/>
							<path d="M421.8,369.4C421.9,369.4,421.9,369.4,421.8,369.4L421.8,369.4C421.9,369.4,421.9,369.4,421.8,369.4
								C421.9,369.4,421.9,369.4,421.8,369.4C421.9,369.4,421.9,369.4,421.8,369.4l-1-1.6l0,0l0,0l-0.1-0.2l1-0.3c0,0,0,0,0,0l0,0
								c0-0.2-0.1-0.3-0.2-0.5c0,0,0,0,0,0l0-0.1h0l0,0c0,0,0,0,0,0c0,0,0,0.1,0,0.1l0,0c0,0,0,0,0,0l-1.2,0.2l-0.3-0.4v0.5l-0.2,0
								h0h0l-1.7,0.3c0,0.1,0,0.2,0.1,0.3l0,0c0,0,0,0,0,0c0,0,0,0,0,0l0,0c0,0.1,0.1,0.2,0.1,0.3l0,0c0,0.1,0,0.1,0.1,0.2l0.4,1.4
								h1.3l0.1,0C420.5,369.8,421.2,369.9,421.8,369.4L421.8,369.4z"/>
							<path d="M273.5,358.5L273.5,358.5L273.5,358.5L273.5,358.5L273.5,358.5L273.5,358.5L273.5,358.5l0.5-0.6
								c0.1,0.1,0.2,0.2,0.2,0.3c0,0,0,0,0,0c0,0,0,0,0,0c0-0.1-0.1-0.2-0.1-0.3c0-0.2-0.1-0.3-0.1-0.5l0.2-0.5l0,0l0,0l0.7-1.7
								l-0.2-0.1c0,0-0.1,0-0.1,0c-1-0.4-2.1-0.3-2.9,0.5h0c0,0,0,0,0,0c-0.4,0.4-0.8,0.9-1.1,1.6l-0.3,0.7l0.3,0.8
								c0,0.1,0.1,0.2,0.1,0.3c0.1,0.5,0.3,1.1,0.8,1.6L273.5,358.5z"/>
							<path d="M215.9,302.7l-1.1-1.2L215.9,302.7c0.3-0.3,0.5-0.7,0.6-1.1l-2.8-1.3l-0.3-0.3c0,0-0.1,0.1-0.4,0.2
								c-0.1,0-0.2,0-0.2,0c0,0,0,0,0,0s0,0,0,0l0,0h0c0,0,0,0,0,0l0,0c0,0,0,0,0.1,0.1c0,0-0.1,0-0.1,0v0l0,0l0,0.1l-3,1.5l0.1,0.2
								c0.1,0.2,0.2,0.4,0.3,0.6c0,0,0,0,0,0c0,0,0,0,0,0c0,0,0,0,0,0c0,0,0,0,0,0c0,0,0,0,0,0h0c0.3,0.4,0.7,0.7,1.1,0.9
								c0,0,0,0,0,0c0,0,0,0,0,0c0,0,0,0,0,0h0c0.5,0.3,1.2,0.4,1.8,0.4l0.4-0.1C214.6,303.7,215.3,303.3,215.9,302.7z M213.3,300.1
								c0-0.1,0.1-0.1,0.1-0.1l0.2,0.2l-0.2-0.2l0.3,0.3L213.3,300.1z"/>
							<path d="M323.8,313c-0.1,0-0.2,0-0.4,0l0,0l0,0l-0.6,3.8c0.2,0,0.5,0.1,0.7,0.1c0.1,0,0.1,0,0.2,0l0,0L323.8,313
								C323.8,313,323.8,313,323.8,313z"/>
							<path d="M281.3,342.2L281.3,342.2c0.1-0.1,0.2-0.1,0.3-0.2c0.2-0.1,0.4-0.2,0.5-0.3l0,0c0,0,0,0,0,0c0,0,0,0,0,0s0,0,0,0
								c0.1-0.1,0.2-0.2,0.4-0.3l-2.2-2.9c-0.1,0.1-0.2,0.1-0.3,0.2c-0.2,0.1-0.3,0.2-0.5,0.3c0,0-0.1,0.1-0.1,0.1c0,0,0,0,0,0
								l1,1.6l0,0l0,0L281.3,342.2L281.3,342.2z"/>
							<path d="M379.6,307.1C379.6,307.1,379.6,307.1,379.6,307.1C379.7,307.1,379.7,307.1,379.6,307.1
								C379.7,307.1,379.7,307.1,379.6,307.1L379.6,307.1c0.7-0.4,1.4-1,1.8-2l-1.6-0.8c0,0,0,0,0,0c0,0,0,0,0,0l-1.6-0.8
								c-0.2,0.2-0.9,0.2-1.4,0.2c-0.6-0.1-0.8-0.3-0.8-0.3l0,0c0,0,0,0,0,0c0,0,0,0,0,0l-3.2,1.4l0.1,0.2c0.4,1,1.4,2.3,3.7,2.6
								l0.2,0l0.1,0C377.6,307.6,378.7,307.5,379.6,307.1z"/>
							<path d="M193.2,320.9l0.5-1.3c0.2-0.4,0.4-0.9,0.5-1.4l-1.7-0.5l0,0l0,0l-0.6-0.2h0l-0.1,0.3l0-0.3l-0.9-0.2
								c0,0.2-0.2,0.5-0.3,0.8l-0.2,0.4l0,0c0,0,0,0,0,0l1,0.5l-0.7,2h0c0,0,0,0,0.1,0l0,0c0,0,0,0,0,0c0.5,0.2,1,0.2,1.5,0.1
								L193.2,320.9z"/>
							<path d="M276.1,332.9L276.1,332.9c0.1-0.1,0.2-0.1,0.3-0.2c0.1-0.1,0.2-0.2,0.4-0.3v0c0,0,0,0,0,0c0.1-0.1,0.2-0.2,0.4-0.4
								l0.1-0.1l-1.3-1.3l1.3,1.2l-1.9-1.8l-0.7-0.8c-0.1,0.1-0.1,0.1-0.2,0.2c0,0,0,0,0,0c-0.1,0-0.1,0.1-0.2,0.1
								c-0.2,0.1-0.3,0.2-0.4,0.4l1.1,1.5l0,0l0,0L276.1,332.9L276.1,332.9z"/>
							<path d="M320.5,412.9C320.5,412.8,320.5,412.8,320.5,412.9c0.5-0.5,0.9-1.2,1.1-2l0.3-0.9l-0.5-0.8c-0.1-0.1-0.1-0.2-0.2-0.3
								c-0.1-0.2-0.2-0.4-0.3-0.6v0c0,0,0,0,0,0c-0.1-0.1-0.2-0.2-0.3-0.4c0,0,0,0,0,0c0,0,0,0,0,0c0,0,0,0,0,0l-1.9,2l0,0l0-0.1h0
								l0,0l0,0v0h0l0,0.1l-0.5,0.6c0.1,0.1,0.1,0.2,0.2,0.3c0,0.1,0.1,0.1,0.1,0.2l-0.2,0.6l0,0l0,0l-0.4,1.9
								c0.2,0,0.3,0.1,0.5,0.1c0.1,0,0.1,0,0.2,0c0,0,0,0,0,0c0,0,0,0,0,0C319.2,413.7,319.9,413.4,320.5,412.9L320.5,412.9z"/>
							<path d="M168.7,432.9c-0.1-0.1-0.2-0.1-0.3-0.2c-0.2-0.2-0.5-0.3-0.7-0.5l-0.5,1.1l-0.2-0.5l0.2,0.5l-1.1,2.3c0,0,0,0,0,0
								l0,0c0,0,0,0,0,0c0.1,0.1,0.2,0.2,0.3,0.2c0.1,0.1,0.2,0.2,0.3,0.2l0.8,0.6l3.6-2L168.7,432.9z"/>
							<path d="M180.1,434.1l-1.3,0.2l0,0l0,0l-1.7,0.3l0,0c0,0.1,0,0.3,0.1,0.4c0.3,1,1.1,2,2.7,2.1c0,0,0,0,0,0c0,0,0,0,0,0
								c0,0,0.1,0,0.1,0c0,0,0,0,0,0L180.1,434.1L180.1,434.1z"/>
							<polygon points="232.9,251.7 232.9,251.8 232.9,251.8 232.9,251.8 232.9,251.8 							"/>
							<polygon points="232.9,251.8 232.9,251.9 232.9,251.9 							"/>
							<path d="M395.6,376l0-0.1L395.6,376l-0.7-1.8c0,0,0,0,0,0L395.6,376l-0.6-1.6L395.6,376l-0.7-1.8h0L395.6,376l-0.5-1.5
								L395.6,376l0-0.1L395.6,376l-0.6-1.8c0,0,0,0,0,0L395.6,376l-0.6-1.6L395.6,376l-0.6-1.8l0.7,1.7l-0.7-1.8c0,0,0,0,0,0
								l0.7,1.8l-0.7-1.8c0,0,0,0,0,0l0.7,1.8l-0.7-1.6l0.7,1.5l0,0l-0.7-1.8v0l0.7,1.8c1.2-0.6,1.9-1.8,1.9-3.2c0-0.2,0-0.3,0-0.5
								l0-0.3l-0.1-0.3c-0.6-1.6-1.7-2.1-2.5-2.3l-0.5,3.3l-0.1,0l-0.1-0.2v0l0.1,0.2l0,0l0.1,0.2v0l0,0l-0.1-0.2l0,0l0,0l0.1,0.2
								l0,0l-0.1-0.4l0,0l0,0l0,0l0,0l0,0h0v0l0,0l0.1,0.2l0-0.1l0,0.1l0,0l0.1,0.2v0l-0.1-0.2l0,0l0-0.1l0,0.1h0l0.1,0.2l0,0l0,0.2
								c0,0,0,0,0,0c0,0-0.1,0-0.1-0.1h0c0,0,0,0,0,0c0,0,0,0,0.1,0.1l0,0l0,0l0.2-0.1l0,0l0.4,1.2L395.6,376l-0.7-1.8L395.6,376z"
								/>
							<path d="M194.1,423l0.2-3.8c-0.2,0-0.3,0-0.3-0.1c0,0,0,0,0,0c0,0,0,0,0,0c0,0,0.1,0.1,0.1,0.1c0,0,0,0,0,0.1l-2.8,2.2
								c0.3,0.5,1,1.2,2.1,1.4C193.6,423,193.8,423,194.1,423L194.1,423L194.1,423z"/>
							<path d="M340.4,186.2l-0.1-0.2c0,0,0-0.1,0-0.1c0-0.1,0-0.1-0.1-0.2l-1.6,0.7l1.6-0.7c-0.1-0.2-0.2-0.5-0.3-0.8
								c0,0,0,0,0-0.1v0c0,0,0,0,0,0l-3,1.9c0,0,0,0,0,0c0,0,0,0,0,0c0,0,0,0,0,0c0,0,0,0,0,0c0,0.1,0.1,0.2,0.1,0.3
								c0,0,0,0.1,0,0.1c0.1,0.2,0.1,0.3,0.2,0.5l0.1,0.3l1.9-1.2L340.4,186.2z"/>
							<path d="M149.8,377C149.9,377,149.9,377,149.8,377c0.1,0,0.1-0.1,0.1-0.1c0,0,0.1,0,0.1,0l0,0l-1.2-2.9l0.1-0.5l0,0
								c-0.1,0-0.2,0-0.2,0c0,0,0,0,0,0h0c0,0,0.1,0,0.1,0.1c0,0,0,0,0,0l-0.1,0v0l-0.1-0.1l0,0c-0.1,0-0.1,0-0.2,0.1l0,0l0,0l0,0.1
								l0,0l-2.9,0.8c0.1,0.3,0.1,0.5,0.2,0.7c0,0,0,0,0,0c0,0,0,0,0,0c0,0,0,0,0,0h0c0.5,1.2,1.5,2,2.8,2.1l0.2,0l0.3,0
								C149.3,377.2,149.6,377.1,149.8,377z"/>
							<path d="M123.1,400.4L123.1,400.4c0.1-0.1,0.1-0.2,0.2-0.3c0,0,0,0,0,0c0.2-0.3,0.5-0.6,0.7-1c0,0,0,0,0-0.1l-3.1-1.8
								c-0.1,0.1-0.1,0.2-0.2,0.3c-0.1,0.2-0.3,0.3-0.4,0.5c0,0,0,0.1,0,0.1h0L123.1,400.4C123.1,400.4,123.1,400.4,123.1,400.4z"/>
							<path d="M346.3,237.2l0-0.3l0,0l0-0.1l0.3,0l-0.3,0v0h0.3l-0.1,0l0.1,0l-0.3,0l0.1-1.4l0,0l0,0l0.1-1.9l0,0
								c-1.5-0.1-2.7,0.9-3.2,2.6l-0.1,0.4c0,0.1,0,0.3,0,0.4l0,0h0.1h1.7h0c0,0,0,0,0,0h-1.7c0,0.1,0,0.2,0,0.3l2.8-0.2l0.3,0.1
								L346.3,237.2z"/>
							<path d="M293.2,242.8l-1.7,0.4c0,0,0,0,0,0l0,0c0,0,0,0,0,0l-1.4,0.3l-0.1-0.3l0,0.1l0-0.1l0.1,0.3v0l0.4,1.5l0.6,1.8
								C292.6,246.2,293.5,244.6,293.2,242.8z"/>
							<path d="M385.8,224.7l-3.2-1.5l0,0c0,0,0,0.1,0,0.1c-0.2,0.3-0.6,0.4-1,0.5c-0.3,0-0.4-0.1-0.5-0.1c0,0,0,0,0,0l0,0
								c0,0,0,0,0,0l0,0l-2.1,3c0.6,0.6,1.5,0.9,2.6,0.9l0.2,0l0.2,0C383.9,227.3,385.2,226.3,385.8,224.7z"/>
							<path d="M385.1,286.1l8.5-3.5l-8.7-0.4c-0.2,0-0.2,0-0.2,0c0,0,0,0,0,0s0,0,0,0c0,0,0.1,0.1,0.2,0.2c0,0,0,0,0,0
								c0,0,0,0,0,0.1l-0.6,0.3l-0.1-0.4l0.1,0.4l-1,0.5c0,0,0,0,0,0c0,0,0,0,0,0l-1.6,0.8c0.1,0.1,0.1,0.3,0.2,0.4
								c0.5,1,1.5,1.5,2.8,1.6l0,0c0,0,0,0,0.1,0H385.1z"/>
							<path d="M111.6,443.9l0-0.8l-0.5-0.5l-1.2,1.3l-1.5,0l0,0.1l0,0v0l-0.2,0l0,0l0,0v0.7l0.5,0.6l0.4,2.1h0
								c0.1,0,0.2-0.1,0.3-0.1C110.8,446.9,111.7,445.6,111.6,443.9z"/>
							<path d="M111.8,420.1c-0.2-0.3-0.5-0.6-0.8-0.9c-0.2-0.2-0.4-0.3-0.6-0.4l-0.1,0l-0.7,1.8l0,0l0,0l-0.5,1.4l-0.2,0.4l0,0v0
								l0,0l0,0l0,0l0,0L111.8,420.1z"/>
							<path d="M162.7,205.3L162.7,205.3L162.7,205.3l-0.7-1.7c-0.6,0.3-1,0.7-1.4,1.3c0,0,0,0,0,0.1l0,0l2.8,2.3
								c0-0.1,0.1-0.1,0.1-0.1L162.7,205.3z"/>
							<path d="M114.5,218.1c0.3-0.1,0.5-0.3,0.8-0.5l0,0l0,0l-2-3.1c0,0-0.1,0.1-0.4,0.1c0,0,0,0,0,0s0,0,0,0c0,0,0,0,0,0s0,0,0,0
								c0,0-0.1,0-0.2,0v0h0l0,0.5l-1.3,0.2c0,0,0,0,0,0c0,0,0,0,0,0l-1.7,0.3c0,0.2,0.1,0.3,0.1,0.5c0,0,0,0,0,0c0,0,0,0,0,0l0,0
								c0,0,0,0,0,0c0,0,0,0,0,0c0,0,0,0,0,0c0,0,0,0,0,0c0,0,0,0,0,0v0c0,0,0,0,0,0c0,0,0,0,0,0c0,0,0,0,0,0c0,0,0,0,0,0
								c0,0,0,0,0,0c0,0,0,0,0,0c0,0,0,0,0,0l0,0c0,0,0,0,0,0l0,0c0,0,0,0,0,0c0.4,1,1.4,1.7,2.6,1.9l0.1,0l0.1,0
								C113.4,218.4,114,218.3,114.5,218.1z M112.9,214.7c0,0.1,0.1,0.1,0.1,0.2c0,0,0,0,0,0c0,0,0,0.1,0,0.1l-0.2,0L112.9,214.7z"
								/>
							<path d="M418.9,188.6C418.9,188.6,418.9,188.6,418.9,188.6C418.9,188.6,418.9,188.6,418.9,188.6L418.9,188.6
								c0.1,0,0.2,0,0.2,0h0l-0.5-3.5l0,0l0,0l-3.2,1.2l0,0l0,0c0.1,0.2,0.1,0.4,0.2,0.6C416.3,188.2,417.5,188.8,418.9,188.6
								L418.9,188.6z"/>
							<path d="M381.7,332.2c0,0,0.1-0.1,0.2-0.1l-0.5-3.8c-1,0.2-1.8,0.7-2.4,1.5L381.7,332.2C381.7,332.2,381.7,332.2,381.7,332.2
								C381.7,332.2,381.7,332.2,381.7,332.2z"/>
							<path d="M347.1,209.4c0,0-0.2,0.1-0.9,0.2l0.1,1.9l0,0l0,0l0.1,1.9c0.9-0.1,2.3-0.3,3.2-1.4L347.1,209.4z"/>
							<path d="M342.4,319.1l0-1.9l0,0l0,0l-0.1-1.9c-0.1,0-0.2,0-0.3,0c0,0,0,0,0,0c0,0,0,0,0,0c0,0,0.1,0.1,0.1,0.1
								c0,0,0,0.1,0,0.1l-3.2,1.5C339.6,318.3,340.8,319.1,342.4,319.1L342.4,319.1L342.4,319.1z"/>
							<path d="M296.8,290.2l0.1-0.1l-1.2-1.4l0,0l1.2,1.4l0.2-0.2c0,0,0,0,0,0c0.3-0.4,0.5-0.9,0.5-1.4l0-0.2l0-0.6l-2.4,0.4h0l0,0
								l-0.8-0.9l0.5,0.6l0.2,0.2h0l0,0h-0.1l-0.1,0l-0.9,0l0.4,0l0.3,0l-0.3,0l0.2,0l-0.6,0.1l1.1-0.1L296.8,290.2z"/>
							<path d="M148.3,339.1c-1.4,0-2.5,0.7-3.1,1.9l2.9,2c0,0,0.1,0,0.3,0L148.3,339.1z"/>
							<path d="M113.3,317.6c0.2,0.2,0.4,0.4,0.6,0.8l1.6-0.8c0,0,0,0,0,0l-1.6,0.8l1.6-0.8l0,0l0,0l1.6-0.8l0,0l-1.6,0.8
								c0,0,0,0,0,0l1.6-0.8c-0.3-0.8-0.8-1.5-1.4-2.1l0,0c0,0,0,0,0,0c-0.1-0.1-0.2-0.2-0.3-0.3l0,0l0,0L113.3,317.6z"/>
							<path d="M410.8,200.9l0.5-0.3l3.7-4.2l-5,0.7c0.2,0,0.5,0.3,0.5,0.5l-3.4-0.1l0,0.1l0,0.1c0,0.2,0,0.4,0.1,0.5
								c0.1,0.8,0.4,1.4,0.9,1.9c0.4,0.4,1.2,0.9,2.4,0.7L410.8,200.9z"/>
							<path d="M418.5,219.1c0.3-0.2,0.7-0.4,1-0.7c0,0,0,0,0,0c0,0,0,0,0,0c0,0,0.1-0.1,0.1-0.1l0,0l-0.5-0.8h0v-0.5l-0.2-0.4
								l-0.3,0.2l-1.1-1.6c-0.1,0.1-0.4,0.2-0.6,0.4l-1.8,1.1l0.6,1.3v2.8l2.6-1.6L418.5,219.1z"/>
							<path d="M294.5,322.8l0.3,0.4L294.5,322.8l0.5-2.5h0c0,0,0,0,0,0c0,0-0.1,0-0.1,0c0,0,0,0,0,0l-0.2-0.1
								c-0.2-0.1-0.4-0.2-0.5-0.2l-0.8-0.3l-0.7,0.6l-2.3,2.5l2.8,0.9c0.1,0,0.2,0.1,0.3,0.1l0.2,0.1c0,0,0.1,0,0.1,0.1
								c0.2,0.1,0.3,0.1,0.5,0.2l0.2-1L294.5,322.8z"/>
							<path d="M288.5,183.1C288.5,183.2,288.6,183.2,288.5,183.1L288.5,183.1L288.5,183.1l3.3-1c-0.2-0.6-0.1-1.5,0.2-2.5l3-10.6
								l-5.7,8.5l-0.8,0.6v1v0l0,0.4c-0.1,0.7-0.2,1.4-0.2,2C288.4,182.1,288.4,182.6,288.5,183.1
								C288.5,183.1,288.5,183.1,288.5,183.1z"/>
							<path d="M179.7,233.6c0.4-0.1,0.8-0.1,1.3-0.4v0l0,0c0,0,0,0,0,0c0,0,0,0,0,0h0c0,0,0,0,0,0v0l0,0c0,0,0,0,0,0c0,0,0,0,0,0
								c0,0,0,0,0,0c0,0,0,0,0,0c0,0,0,0,0,0c0,0,0,0,0,0c0,0,0,0,0,0c0,0,0,0,0,0c0,0,0,0,0,0c0,0,0,0,0,0c0,0,0,0,0,0c0,0,0,0,0,0
								l0,0c0,0,0,0,0,0c0,0,0,0,0,0c0,0,0,0,0,0h0l0,0c0,0,0,0,0,0c0,0,0,0,0,0c0,0,0,0,0,0c0,0,0,0,0,0l0,0c0,0,0,0,0,0h0
								c0,0,0,0,0,0l0,0c0,0,0,0,0,0l0,0c0,0,0,0,0,0c0,0,0,0,0,0c0,0,0,0,0,0c0,0,0,0,0,0v0c0,0,0,0,0,0c0,0,0,0,0,0c0,0,0,0,0,0
								c0,0,0,0,0.1-0.1l0,0c0,0,0,0,0,0l0,0c0,0,0,0,0,0l0,0c0,0,0,0,0,0v0c0,0,0,0,0,0c0,0,0,0,0,0c0,0,0,0,0,0l0,0
								c0,0,0,0,0.1-0.1c0,0,0,0,0,0c0,0,0,0,0,0c0,0,0,0,0,0v0c0,0,0,0,0,0h0c0,0,0,0,0,0c0,0,0,0,0,0l-1.2-1.3l0,0l0,0l-0.8-0.9
								l0.1-0.2l0,0l0,0l-0.1,0.1v0l0.1-0.1l0,0l-0.1,0.1l-0.4-0.4c0,0,0,0,0,0c0,0,0,0,0.1-0.1l0,0c0.2-0.2,0.3-0.2,0.3-0.2
								s0,0,0,0c0,0,0,0,0,0c-0.1,0-0.2,0-0.3,0.1c-0.2,0-0.5,0.1-0.7,0.1v0l0,0l0.3,1.3l-0.2,0.3h0l0,0l-1.2,1.4
								c0.2,0.2,0.5,0.4,0.7,0.6l0.6,0.3l0.6-0.2C179.5,233.6,179.6,233.6,179.7,233.6z"/>
							<path d="M197.3,231.8L197.3,231.8c0,0-0.1,0-0.4,0c-0.1,0-0.1-0.1-0.1-0.1c0,0,0,0,0,0c0,0,0,0,0,0c0,0,0,0,0,0.1
								c0,0,0,0,0,0v0c0,0,0,0,0,0l0,0.1l-1.6-0.1l0,0l0,0l-1.7-0.1l0,0.2c0,0.2,0,0.4,0.1,0.6c0,0,0,0,0,0c0,0,0,0,0,0c0,0,0,0,0,0
								c0,0,0,0,0,0c0,0,0,0,0,0c0,0,0,0,0,0c0.1,0.5,0.3,0.9,0.5,1.3c0,0,0,0,0,0c0,0,0,0,0,0c0,0,0,0,0,0c0,0,0,0,0,0c0,0,0,0,0,0
								v0c0.5,0.7,1.2,1.3,2.2,1.5l0.2,0c1.1,0.1,2-0.1,2.7-0.6L197.3,231.8z"/>
							<path d="M281.5,389.6c0.6,0.8,1.5,1.3,2.6,1.3h0h0c0.1,0,0.1,0,0.2,0l0,0h0l0-1.7l0.1,1.7l-0.1-3.6h0l0,0l0,0v-0.1l0,0.1l0,0
								L281.5,389.6z"/>
							<path d="M312.7,371.5l-3.2,0.5l0,0h0l1.9,3.1C312.5,374.3,312.9,373,312.7,371.5z"/>
							<path d="M125.1,283l2-0.5l0,0c0.1,0,0.2-0.1,0.4-0.1l-1-3.6l0-0.1l-2.8,0.5l-1.1,0.1l-0.1,0.5l-0.9,0.2l0.7,3.8l1-0.2
								l1.2,1.3L125.1,283z"/>
							<path d="M264.7,300.5l-3-1.9c0,0.1-0.1,0.1-0.1,0.2c-0.9,1.5-2.8,2.5-5,2.5c-1,0-2-0.2-3.1-0.7c-0.1-0.1-0.3-0.1-0.5-0.2l0,0
								l-1.5,3.5c1.8,0.9,3.5,1.4,5.1,1.3C260.2,305.1,263.2,303.4,264.7,300.5z"/>
							<path d="M203.7,413.6L203.7,413.6c0.4,0.3,0.8,0.5,1.3,0.6h0c0,0,0,0,0.1,0c0,0,0,0,0,0c0,0,0,0,0,0h0l0,0c0,0,0,0,0.1,0
								c0.1,0,0.2,0,0.4,0l-0.2-1.9l0.3,1.9l-0.2-1.9l0,0l0,0l-0.1-0.8v0l0,0l0-0.4v0l0-0.2l-0.1-0.5l0.1,0.7v0.4L203.7,413.6
								L203.7,413.6z"/>
							<polygon points="184.5,376.3 184.5,378.2 182.9,377.9 182.9,378.1 184.5,378.2 184.5,378.4 183.7,379.9 186.1,381.4 
								186.5,376.3 							"/>
							<path d="M332.9,382.6l0.1-0.3c0.2-0.4,0.4-0.8,0.6-1.3l-3.2-1.4l0,0c0,0.1-0.1,0.1-0.1,0.2c-0.1,0.1-0.2,0.3-0.2,0.5
								c0,0,0,0,0,0l-0.2,0.3h0L332.9,382.6L332.9,382.6L332.9,382.6z"/>
							<path d="M234.2,255.3l-0.6-1.8L234.2,255.3l-0.6-1.8h0v0v0l0,0L234.2,255.3c0.3-0.1,0.5-0.2,0.7-0.4c0,0,0,0,0,0c0,0,0,0,0,0
								c1.1-0.8,1.6-1.9,1.4-3.5l0-0.3l-0.1-0.3c-0.5-1.1-1.3-1.9-2.3-2.1h0c0,0,0,0,0,0s0,0,0,0h0c-0.2,0-0.4-0.1-0.6-0.1l-0.1,1.9
								c0,0,0,0,0,0c0,0,0,0,0,0l0,1.4l-0.1,0l0-0.1c0,0,0-0.1,0.1-0.1l0,0c0,0,0,0,0,0c0,0,0,0-0.1,0l0,0h0l0.2,0.5l0,0v0l-0.1-0.4
								l0,0h0l0,0l0.1,0.4v0l0,0c0,0-0.1,0-0.1-0.1c0,0,0,0,0,0c0,0,0,0,0,0c0,0,0,0.1,0.1,0.1l0,0c0,0,0,0,0,0l0.1,0l0,0l0.4,1.1
								L234.2,255.3z M233.1,252.4L233.1,252.4L233.1,252.4l0.1,0.3l0.3,0.8l0,0l-0.3-0.9L233.1,252.4l0.4,1.1h0L233.1,252.4z"/>
							<path d="M222.6,269C222.6,269,222.6,269,222.6,269L222.6,269c-0.1-0.1-0.2-0.1-0.2-0.2c-0.2-0.2-0.5-0.4-0.8-0.6l-1.5,3.5
								c0,0,0.1,0.1,0.1,0.1c0,0,0,0,0,0c0,0,0.1,0.1,0.1,0.1c0.2,0.2,0.4,0.3,0.5,0.4l0,0h0L222.6,269z"/>
							<path d="M328.5,239.3c-0.2,0.1-0.4,0.1-0.5,0.2c0,0,0,0,0,0c0,0,0,0,0,0c-0.1,0-0.1,0.1-0.2,0.1l0,0l0.8,1.7l0,0l0,0l0.8,1.7
								l-0.1-1.9l0,0l0,0l-0.1-1.9C329,239.2,328.8,239.3,328.5,239.3z"/>
							<path d="M379.8,203.9l0.2-0.2c0.2-0.3,0.5-0.6,0.7-1c0,0,0,0,0,0c0,0,0-0.1,0.1-0.1l0,0l-2.9-2.2c-0.1,0.2-0.3,0.5-0.5,0.7
								l-0.2,0.3l0,0l0,0l1.3,1.3l0,0l0,0L379.8,203.9L379.8,203.9L379.8,203.9z"/>
							<path d="M348.3,440.6l0.1,0.3l0.1,0l-0.1-0.2h0l0.1,0.2c0.5-0.2,0.9-0.4,1.3-0.8v0c0,0,0,0,0,0h0c0,0,0,0,0,0c0,0,0,0,0,0
								l0,0c0,0,0,0,0,0l0,0c0,0,0,0,0,0l0,0h0c0.1-0.2,0.3-0.4,0.3-0.6c0.2-0.6,0.3-1.4,0-2.1l-0.3-1l-1-0.3
								c-0.1,0-0.2-0.1-0.3-0.1c-0.3-0.1-0.6-0.2-1-0.3l0,0l-0.1,1.7v0c-0.1,0.1-0.2,0.2-0.3,0.3c0.1-0.2,0.3-0.2,0.3-0.2l-0.1,0.5
								l-0.3-0.3v0c0,0,0,0,0,0c0,0,0,0,0,0l0.3,0.3l0,0.3l-0.5,0.2c0,0,0,0,0-0.1c0-0.2,0-0.3,0.1-0.5c0-0.1,0.1-0.1,0.1-0.1
								c-0.2,0.3-0.4,0.7-0.4,1.2C346.7,439.7,347.4,440.5,348.3,440.6z"/>
							<path d="M386.1,229.7L386.1,229.7L386.1,229.7c-0.1,0-0.2-0.1-0.3-0.1c-0.3-0.1-0.7-0.2-1.2-0.2l-0.1,0l-0.1,1.9h0h0l0,1.9
								c0,0,0.1,0,0.1,0l0,0c0.1,0,0.3,0.1,0.4,0.1c0.1,0,0.2,0.1,0.4,0.1l0,0h0L386.1,229.7z"/>
						</g>
					</g>
					<g>
						<g>
							<path id="XMLID_415_" d="M104.4,253.2c0.3-4.4,0.6-5.3,3.2-5.6c4.2-0.5,6.5-3,7.8-7.3c0.2-0.5,0.5-0.9,0.7-1.3
								c1.2,2.3,2.3,4.5,3.5,6.8c-3.9,5.1-2.8,11.4-3.7,17.1c-0.4,2.5-0.7,4.9-1.1,7.4c-0.4,2.6-0.9,5.3-1.2,7.9c-0.2,1.9,0,4-2,5.6
								c-1.8-2.4-1.6-5-0.5-7.5c1.2-2.9,1.4-5.8,1.1-8.9c-0.6-5.1-1.9-6.4-6.5-6.6c-0.4,0-0.9,0-1.4-0.1
								C103,258.3,103.7,255.7,104.4,253.2c0.7,0.3,1.4,0.7,2.2,1c0.1-0.2,0.1-0.5,0.2-0.7C105.9,253.4,105.1,253.3,104.4,253.2z"/>
							<path id="XMLID_414_" d="M151.9,308.8c-0.4,0.7-0.7,1.6-1.3,2c-1.2,1-2.6,1-3.4-0.5c-0.7-1.4,0.1-2.5,1.2-3.3
								c0.6-0.4,1.4-0.6,2.1-0.8C151.1,307.1,151.5,307.9,151.9,308.8z"/>
							<path id="XMLID_413_" d="M19.3,298.6c3.1-2.1,5-1.9,6.4,0.9c1.9,3.7,1.2,7.1-1.8,9.2c-3,2.1-6,1.4-7.5-1.7
								C14.9,303.9,15.9,300.9,19.3,298.6z"/>
							<path id="XMLID_412_" d="M62.3,251.4c1.5,2.8,0.8,6.7-1.5,8.4c-2.2,1.6-5.7,0.8-7-1.6c-1.4-2.5-0.7-7.2,1.2-8.7
								C57.3,247.8,60.8,248.7,62.3,251.4z"/>
							<path id="XMLID_411_" d="M38.7,280.4c-2.1-4-1.3-6.1,2.1-7.5c2.7-1.1,5.3-2.1,7.7,0.4c1.3,1.3,1.6,2.7,0.5,4.3
								c-1.9,2.6-4.4,4.3-7.3,4.3C40.4,281.9,39.2,280.7,38.7,280.4z"/>
							<path id="XMLID_410_" d="M67.9,272.6c1.4,2.3,0.6,3.5-0.5,4.6c-1.3,1.2-3.1,1-3.7-0.4c-0.7-1.5-0.5-3.2,0.9-3.9
								C65.6,272.4,67,272.7,67.9,272.6z"/>
							<path id="XMLID_409_" d="M105.4,237.6c2.6,1.4,3.6,3.4,3,6.4C104,244.2,103.1,242.5,105.4,237.6z"/>
							<path id="XMLID_408_" d="M15.9,382.5c0.9,0.3,1.7,0.4,1.8,0.7c0.1,0.4-0.1,1.2-0.4,1.7c-0.1,0.2-1,0.1-1.1-0.2
								C15.9,384.3,16,383.6,15.9,382.5z"/>
							<path id="XMLID_407_" d="M106.4,226.4c-0.2,0-0.6,0-0.7-0.2c-0.1-0.2,0-0.5,0.1-0.8c0.3,0.1,0.6,0.1,0.9,0.2
								C106.6,225.9,106.5,226.2,106.4,226.4z"/>
							<path id="XMLID_406_" d="M40.8,386.5c0.2,0,0.5,0,0.7,0c0,0,0.1,0.4,0,0.4c-0.2,0.2-0.4,0.2-0.7,0.4
								C40.9,387,40.8,386.8,40.8,386.5z"/>
							<path id="XMLID_405_" d="M104.4,253.2c0.8,0.1,1.5,0.2,2.3,0.4c-0.1,0.2-0.1,0.5-0.2,0.7
								C105.8,253.9,105.1,253.5,104.4,253.2C104.4,253.1,104.4,253.2,104.4,253.2z"/>
							<g id="XMLID_399_">
								<path d="M61.6,452.8c1.8-3.5,3-6.9,2.7-10.6c-0.1-1.7-1.5-3.5-2.8-4.6c-2.4-2.1-4.1-1.1-4.7,2.3c-0.8,4.8,0.4,8.8,2.6,12.9
									H61.6z"/>
								<path id="XMLID_404_" d="M137,341.7c1.6-0.7,2.9-1.5,4.2-1.7c2.6-0.3,4,1.5,3.8,4.5c-0.3,3.9-2.3,6.6-5,6.7
									c-1.4,0-2.6-1-1.8-2.3C139.9,346.1,138.1,344.3,137,341.7z"/>
								<path id="XMLID_403_" d="M121.9,376.9c1.8-1.1,4.2-0.6,5,1.1c1.1,2.1,0.3,5.6-1.5,6.6c-1.6,0.9-4.5-0.2-5.3-2
									C119.4,380.8,120.2,378,121.9,376.9z"/>
								<path id="XMLID_402_" d="M205.5,436.4c1-2,1.4-3.4,2.1-4.1c1.2-1.2,2.6-0.8,3.2,0.8c0.6,1.4-0.1,2.7-1.3,3.1
									C208.5,436.5,207.4,436.3,205.5,436.4z"/>
								<path id="XMLID_401_" d="M102.4,441.8c0.5-1.1,0.7-1.9,1.2-2.3c0.2-0.2,1.4,0.3,1.4,0.6c0,0.7-0.3,1.5-0.7,2.1
									C104.1,442.4,103.3,442,102.4,441.8z"/>
								<path id="XMLID_400_" d="M178.9,385.3c0.2-0.2,0.4-0.6,0.6-0.6c0.2,0,0.4,0.2,0.6,0.4c-0.2,0.2-0.3,0.6-0.5,0.6
									C179.3,385.7,179.1,385.5,178.9,385.3z"/>
							</g>
							<path id="XMLID_391_" d="M250.2,451.7c-5.1,0.9-9.9-2.2-10.2-6.6c-0.3-5,4.1-11.4,8.3-12.2c4.8-0.9,9.3,2.6,9.8,7.5
								C258.6,446,255.3,450.8,250.2,451.7z M250.7,444.2c0.2-0.2,0.6-0.5,0.6-0.7c0-0.3-0.3-0.6-0.5-0.9c-0.3,0.3-0.6,0.7-0.9,1
								C250.2,443.8,250.5,444,250.7,444.2z"/>
							<path id="XMLID_390_" d="M131.4,433.4c4.5-1,6.6,0.7,7.3,5.9c0.6,4.9-2.6,10.7-6.4,11.5c-3,0.7-9.3-3.5-9.8-6.5
								C121.8,440.2,126.4,434.6,131.4,433.4z"/>
							<path id="XMLID_388_" d="M123.1,349.6c-1.8,2.2-2.8,4-4.1,4.7c-0.6,0.3-2.4-1.2-2.9-2.3c-0.8-1.8,0.7-4.3,2.6-4.3
								C119.9,347.7,121,348.6,123.1,349.6z"/>
							<path id="XMLID_387_" d="M90.5,420.3c-1.9,2.2-2.7,3.8-4,4.4c-1.7,0.9-3.2,0-3.5-2.2c-0.3-2.1,0.7-3.8,2.5-4
								C86.7,418.4,88,419.4,90.5,420.3z"/>
							<path id="XMLID_386_" d="M108.4,370.1c1.8-1.9,2.7-3.4,3.9-3.9c0.7-0.3,2.4,0.9,2.6,1.7c0.5,2-0.8,3.6-2.5,3.9
								C111.4,371.9,110.4,371,108.4,370.1z"/>
							<path id="XMLID_385_" d="M243,445.1c-1-1.1-2.2-1.8-2.2-2.5c0-0.8,1.1-1.9,1.9-2.3c0.4-0.2,1.7,0.9,1.7,1.4
								C244.4,442.6,243.6,443.6,243,445.1z"/>
							<path id="XMLID_384_" d="M184.3,421.6c-0.6,0.6-0.9,1-1.3,1.3c-0.3-0.4-0.6-0.7-0.8-1.2c0-0.1,0.4-0.8,0.6-0.8
								C183.2,421,183.6,421.3,184.3,421.6z"/>
							<path id="XMLID_383_" d="M202.5,361c-0.1,0.3-0.2,0.8-0.4,0.9c-0.2,0.1-0.5-0.2-0.8-0.3c0.1-0.3,0.1-0.8,0.3-0.9
								C201.9,360.6,202.2,360.9,202.5,361z"/>
							<path id="XMLID_382_" d="M265.2,446c-0.2-0.2-0.5-0.4-0.7-0.6c0.3-0.3,0.6-0.7,0.9-1c0.2,0.3,0.5,0.6,0.5,0.9
								C265.8,445.5,265.4,445.7,265.2,446z"/>
						</g>
						<g>
							<path id="XMLID_381_" d="M356.5-8.1c0.3-4.4,0.6-5.3,3.2-5.6c4.2-0.5,6.5-3,7.8-7.2c0.1-0.5,0.5-0.9,0.7-1.3
								c1.2,2.3,2.3,4.5,3.5,6.8c-3.9,5.1-2.8,11.4-3.7,17.1c-0.4,2.5-0.7,4.9-1.1,7.4c-0.4,2.6-0.9,5.3-1.2,7.9c-0.2,1.9,0,4-2,5.6
								c-1.8-2.4-1.6-5-0.5-7.5c1.3-2.9,1.4-5.8,1.1-8.9c-0.6-5.1-1.9-6.4-6.5-6.6c-0.4,0-0.9,0-1.4-0.1
								C355.1-3,355.8-5.6,356.5-8.1c0.7,0.3,1.4,0.7,2.2,1c0.1-0.2,0.1-0.5,0.2-0.7C358-7.8,357.2-7.9,356.5-8.1z"/>
							<path id="XMLID_380_" d="M404,47.5c-0.4,0.7-0.7,1.6-1.3,2.1c-1.2,1-2.6,1-3.4-0.5c-0.7-1.4,0.1-2.5,1.2-3.3
								c0.6-0.4,1.4-0.6,2.1-0.8C403.2,45.9,403.6,46.7,404,47.5z"/>
							<path id="XMLID_379_" d="M271.4,37.4c3.1-2.1,5-1.9,6.4,0.8c1.9,3.7,1.2,7.1-1.8,9.2c-3,2.1-6,1.4-7.5-1.7
								C267,42.6,268,39.7,271.4,37.4z"/>
							<path id="XMLID_377_" d="M290.7,19.1c-2.1-4-1.3-6.1,2.2-7.5c2.7-1.1,5.3-2.1,7.7,0.4c1.3,1.3,1.6,2.7,0.5,4.3
								c-1.9,2.6-4.4,4.3-7.3,4.3C292.5,20.6,291.3,19.4,290.7,19.1z"/>
							<path id="XMLID_376_" d="M320,11.4c1.4,2.3,0.6,3.5-0.5,4.6c-1.3,1.2-3.1,1-3.7-0.4c-0.7-1.5-0.5-3.2,0.9-3.9
								C317.7,11.1,319.1,11.4,320,11.4z"/>
							<path id="XMLID_374_" d="M419.3,421.7c-2,3.9-2,3.9-6,3.4C414.8,420.2,414.9,420.1,419.3,421.7z"/>
							<path id="XMLID_373_" d="M268,121.2c0.9,0.3,1.7,0.4,1.8,0.7c0.1,0.4-0.2,1.2-0.4,1.7c-0.1,0.2-1,0.1-1.1-0.2
								C268,123,268.1,122.4,268,121.2z"/>
							<path id="XMLID_371_" d="M292.9,125.2c0.2,0,0.5,0,0.7,0c0,0,0.1,0.4,0,0.4c-0.2,0.1-0.4,0.2-0.7,0.4
								C293,125.8,292.9,125.5,292.9,125.2z"/>
							<g id="XMLID_343_">
								<path id="XMLID_368_" d="M334.4,275.7c-0.1,0.3-0.4,0.6-0.3,0.8c0.1,0.2,0.4,0.3,0.6,0.5c0.1-0.3,0.3-0.7,0.4-1
									C334.8,275.8,334.6,275.7,334.4,275.7z"/>
								<path id="XMLID_367_" d="M412.4,190.8c-3.3,2.3-5.4,1.7-7.2-2c-1.7-3.5-0.7-8.9,2.1-10.8c2.2-1.5,8.2-0.4,9.3,1.7
									C418.2,182.6,416.1,188.3,412.4,190.8z"/>
								<path id="XMLID_366_" d="M273.9,286c0.7-3.5,1.2-7,2.1-10.3c0.5-2,1.5-3.9,3.8-3.6c1.9,0.2,3.2,2.3,3.2,5.1
									c0,2.6-0.3,5.3-0.5,8.3C279.6,285,277,288.8,273.9,286z"/>
								<path id="XMLID_365_" d="M308.8,187.8c-2.8-4.8-4.6-9.3-3.7-14.9c0.6-3.4,2.3-4.4,4.7-2.3c1.3,1.1,2.7,2.9,2.8,4.6
									C312.9,179.6,311.1,183.6,308.8,187.8z"/>
								<path id="XMLID_364_" d="M319.7,243.7c2.3-1.5,5.1-1.1,6.3,1.1c1.2,2.2,0.2,5.9-2.1,7.5c-2.1,1.5-5.6,0.6-6.6-1.7
									C316.3,248.4,317.4,245.3,319.7,243.7z"/>
								<path id="XMLID_363_" d="M415.4,95.9c1.6-0.7,2.9-1.5,4.2-1.7c2.6-0.3,4,1.5,3.8,4.5c-0.3,3.9-2.3,6.6-5,6.7
									c-1.4,0-2.6-1-1.8-2.3C418.3,100.3,416.6,98.5,415.4,95.9z"/>
								<path id="XMLID_362_" d="M404.3,117.7c1.8-1.1,4.2-0.6,5,1.1c1.1,2.1,0.3,5.6-1.5,6.6c-1.6,0.9-4.5-0.2-5.3-2
									C401.8,121.5,402.6,118.7,404.3,117.7z"/>
								<path id="XMLID_361_" d="M383.5,226.3c0.7-2.1,0.8-3.7,1.6-4.6c1-1.3,3-0.7,3.7,0.8c0.7,1.6,0.3,3.2-1,3.9
									C386.7,226.8,385.4,226.4,383.5,226.3z"/>
								<path id="XMLID_360_" d="M308.5,257.3c3,0.1,4.2,1.2,4.4,4C310.2,261.8,309.2,260.4,308.5,257.3z"/>
								<path id="XMLID_359_" d="M352,269c1.1,0.5,2.2,0.6,2.4,1.1c0.2,0.6-0.4,1.8-0.9,2.3c-0.3,0.3-1.6-0.1-1.7-0.5
									C351.6,271.3,351.9,270.3,352,269z"/>
								<path id="XMLID_358_" d="M354.5,180.6c0.5-1.1,0.7-1.9,1.2-2.3c0.2-0.2,1.4,0.3,1.3,0.6c0,0.7-0.3,1.5-0.7,2.1
									C356.2,181.2,355.4,180.8,354.5,180.6z"/>
								<path id="XMLID_348_" d="M320.2,203.6c0.5-1.1,0.6-1.8,0.9-2c0.3-0.2,1,0.1,1.3,0.4c0.1,0.1-0.1,1.1-0.3,1.3
									C321.8,203.5,321.2,203.4,320.2,203.6z"/>
								<path id="XMLID_347_" d="M404.1,267.3c0.3-0.6,0.5-1,0.6-1.4c0.3,0.2,0.7,0.3,0.9,0.6c0.1,0.1-0.1,0.8-0.3,0.8
									C405.1,267.4,404.7,267.3,404.1,267.3z"/>
								<path id="XMLID_346_" d="M284.1,255c0.2-0.7,0.3-1.4,0.5-1.4c0.3-0.1,0.9,0,1.1,0.2c0.2,0.2,0.1,0.8,0.2,1.2
									C285.4,255,284.8,255,284.1,255z"/>
								<path id="XMLID_345_" d="M405.2,318.9c0-0.3-0.1-0.6,0-0.8c0.1-0.1,0.4-0.1,0.7-0.1c0,0.3,0.1,0.6,0,0.8
									C405.8,319,405.5,318.9,405.2,318.9z"/>
								<path id="XMLID_344_" d="M334.4,275.7c0.2,0.1,0.5,0.2,0.7,0.2c-0.2,0.3-0.3,0.7-0.4,1c-0.2-0.2-0.5-0.3-0.6-0.5
									C334,276.2,334.2,275.9,334.4,275.7z"/>
							</g>
							<path id="XMLID_342_" d="M398.3,245.2c4.5-1,6.6,0.7,7.3,5.9c0.6,4.9-2.6,10.7-6.4,11.5c-3,0.7-9.3-3.5-9.8-6.5
								C388.8,252,393.3,246.4,398.3,245.2z"/>
							<path d="M424.7,98.9c-1.8-0.9-2.9-1.8-3.9-1.8c-1.9,0-3.4,2.5-2.6,4.3c0.5,1.1,2.3,2.7,2.9,2.3c1.2-0.7,2.1-2.2,3.7-4.2V98.9
								z"/>
							<path id="XMLID_341_" d="M342.6,159.1c-1.9,2.2-2.7,3.8-4,4.4c-1.7,0.9-3.2,0-3.5-2.2c-0.3-2.1,0.7-3.8,2.5-4
								C338.8,157.1,340.2,158.2,342.6,159.1z"/>
							<path id="XMLID_340_" d="M342.1,241.4c-1.9,1.9-2.8,3.2-3.9,3.7c-1.8,0.7-3.2-0.3-3.3-2.5c-0.1-1.9,1.1-3.1,2.7-3
								C338.7,239.7,339.8,240.5,342.1,241.4z"/>
							<path id="XMLID_339_" d="M360.5,108.9c1.8-1.9,2.7-3.4,3.9-3.9c0.7-0.3,2.4,0.9,2.6,1.7c0.5,2-0.8,3.6-2.5,3.9
								C363.5,110.7,362.5,109.8,360.5,108.9z"/>
							<path id="XMLID_338_" d="M393.5,208.3c-0.6-0.5-1.2-0.8-1.2-1.1c0-0.4,0.4-0.9,0.8-1.2c0.1-0.1,0.7,0.3,0.8,0.5
								C393.9,206.9,393.7,207.4,393.5,208.3z"/>
							<path id="XMLID_337_" d="M352.4,313.8c-0.3,0.2-0.6,0.5-0.9,0.4c-0.2,0-0.4-0.5-0.5-0.7c0.3-0.2,0.6-0.5,0.8-0.5
								C352.1,313.1,352.2,313.5,352.4,313.8z"/>
							<path id="XMLID_336_" d="M355.8,226.5c-0.2-0.2-0.4-0.5-0.6-0.7c0.3-0.2,0.5-0.4,0.8-0.5c0.1,0,0.4,0.3,0.3,0.4
								C356.2,226,356,226.3,355.8,226.5z"/>
							<path id="XMLID_333_" d="M397.6,426.1c0.5,0.9,0.7,1.8,1.2,2.4c1.2,1.7,1.6,3.6,0.7,5.8c-0.2,0.5-0.4,1.1-0.7,1.7
								c-0.2,0.4-0.4,1-0.7,1.1c-1.7,0.6-3.4,1.6-5.2,0.9c-0.2-0.1-0.4-0.2-0.5-0.3c-0.8-0.5-2.1-0.8-2.4-1.6
								c-0.4-1.6-0.6-3.6-0.3-5.3c0.5-3.5,3.6-4.9,5.8-4.7C396.2,426.2,396.9,426.1,397.6,426.1z M394.3,431.7
								c0.1-0.1,0.2-0.2,0.2-0.3c0-0.1-0.1-0.2-0.2-0.3c-0.1,0.1-0.2,0.2-0.3,0.3C394.2,431.5,394.2,431.6,394.3,431.7z"/>
							<path id="XMLID_332_" d="M330.8,272.9c0.3-2.1,0.3-2.2,1.8-1.9c0.6,0.1,1.2,0.2,1.7,0.3c1.6,0.5,2.3,1.8,2.1,3.7
								c-0.1,0.6-0.2,1.2-0.3,1.8c-0.4,1.7-1.2,2.8-2.7,3c-1,0.2-1.9,0.6-2.8,1.3c-0.6,0.5-1.4,0.7-2.1,0.8c-2,0.2-3.7-1.5-3.7-3.6
								c-0.1-2.8,1.4-4.9,3.6-5.2C329.2,273,329.9,273,330.8,272.9z"/>
							<path id="XMLID_329_" d="M337.9,432c0.4-1.4,0.4-2.5-0.4-3.7c-1-1.5,0-4.3,1.3-5.2c1.4-1.1,4.1-0.9,5.2,0.5
								c1.4,1.7,1.7,3.8,1,6.1c-0.6,2.1-2.2,2.9-3.8,3.5C340,433.6,339.1,432.6,337.9,432z M341.8,427.2c0.1,0.1,0.2,0.3,0.3,0.4
								c0.5-0.4,0.9-0.8,1.7-1.6C342.5,426,342.1,426.4,341.8,427.2z"/>
							<path id="XMLID_328_" d="M373.7,369.7c0.5-1.3,1-2.4,1.5-3.6c0.7-1.5,2.2-2.6,3.5-2.2c1.3,0.4,2.5,1.2,3.5,2.2
								c0.9,0.9,0.3,2.5,0,3.7c-0.9,3.1-4.3,4.1-6.3,2C375.1,371.1,374.5,370.5,373.7,369.7z"/>
							<path id="XMLID_326_" d="M321.4,437.9c0.2,1-0.7,2.4-1.6,2.6c-0.8,0.2-1.9-0.6-2-1.6c-0.1-1,0.5-2.3,1.3-2.6
								C319.9,436,321.2,436.9,321.4,437.9z"/>
							<path id="XMLID_325_" d="M356.1,320.5c-0.8,0.2-1.7-0.5-1.9-1.5c-0.2-1,0.5-2.1,1.4-2.4c0.9-0.3,1.7,0.3,1.8,1.4
								C357.6,319.1,357,320.3,356.1,320.5z"/>
							<path id="XMLID_324_" d="M384.3,332.1c-0.8,0.2-1.8-0.5-2-1.4c-0.2-0.9,0.4-1.8,1.2-2.1c0.8-0.2,1.5,0.3,1.8,1.3
								C385.5,330.9,385.1,331.8,384.3,332.1z"/>
							<path id="XMLID_323_" d="M343.2,403.3c0.3,1.6-0.4,2.9-1.3,3.1c-0.7,0.1-1.1-0.3-1.2-1.1c-0.2-1.1,0.4-2.6,1.4-2.6
								C342.6,402.6,343,403.1,343.2,403.3z"/>
							<path id="XMLID_322_" d="M407.2,306.8c-0.6,0.1-1.8-1.1-1.8-2c0-0.9,0.6-1.3,1.3-1.5c0.9-0.3,1.8,0.5,1.8,1.4
								C408.6,305.6,407.9,306.7,407.2,306.8z"/>
							<path id="XMLID_321_" d="M397.4,323.4c-0.5-0.9-1-1.6-1.2-2.5c-0.1-0.5,0.2-1.3,0.6-1.7c0.2-0.3,0.9-0.3,1.3-0.1
								c0.6,0.4,0.5,1.1,0.3,1.8C398.1,321.6,397.8,322.3,397.4,323.4z"/>
							<path id="XMLID_320_" d="M412.3,378.8c-0.7-0.7-1.3-1.1-1.4-1.7c-0.2-0.7,0.1-1.4,0.8-1.5c0.7-0.1,1.3,0.3,1.4,1.1
								C413.2,377.2,412.7,377.8,412.3,378.8z"/>
							<path id="XMLID_319_" d="M340.2,440.8c-0.7,0.8-1,1.5-1.4,1.7c-0.7,0.3-1.2-0.1-1.3-0.9c-0.1-0.8,0.2-1.5,0.9-1.5
								C338.9,440.1,339.4,440.5,340.2,440.8z"/>
							<path id="XMLID_318_" d="M333.4,423.5c-0.2-1,0.2-2.2,0.8-2.3c0.3,0,0.7,0.3,0.9,0.6c0.3,0.9-0.2,2.1-0.9,2.1
								C333.9,424,333.6,423.6,333.4,423.5z"/>
							<path id="XMLID_317_" d="M385,380c-0.5,0.6-0.8,1.2-1.2,1.4c-0.6,0.3-1.1-0.2-1-0.9c0.1-0.5,0.5-1,0.9-1.3
								C383.9,379.1,384.3,379.6,385,380z"/>
							<path id="XMLID_316_" d="M349.6,366.3c-0.4,0.6-0.8,1.3-0.9,1.2c-0.4-0.1-1-0.5-1.1-0.8c-0.1-0.4,0.4-0.9,0.7-1.4
								C348.6,365.6,349,365.9,349.6,366.3z"/>
							<path id="XMLID_315_" d="M404.4,340.8c-0.5,0.7-0.7,1.4-1,1.4c-0.4,0-0.9-0.3-1.1-0.7c-0.1-0.2,0.3-1.1,0.6-1.1
								C403.2,340.3,403.7,340.6,404.4,340.8z"/>
							<path id="XMLID_314_" d="M411.5,280.3c-0.9-0.9-0.7-1.7-0.1-2.4c0.1-0.1,0.6-0.1,0.7,0C412.6,278.8,412.3,279.5,411.5,280.3z
								"/>
							<path id="XMLID_313_" d="M405.2,278.6c0.4-0.5,0.6-1.1,0.8-1.1c0.4,0,0.7,0.3,1.1,0.5c-0.2,0.4-0.4,1-0.6,1.1
								C406.1,279.2,405.7,278.8,405.2,278.6z"/>
							<path id="XMLID_312_" d="M382.1,356.2c-0.3-0.4-0.7-0.7-0.7-0.9c0.1-0.4,0.4-0.7,0.6-1c0.3,0.2,0.7,0.4,0.8,0.7
								C382.8,355.3,382.4,355.7,382.1,356.2z"/>
							<path id="XMLID_311_" d="M422.4,420.9c-0.8-0.3-1.1-0.7-0.7-1.4c0.1-0.2,0.7-0.3,0.8-0.2
								C423.1,419.7,422.8,420.3,422.4,420.9z"/>
							<path id="XMLID_310_" d="M332.4,301.2c-0.3-0.4-0.6-0.7-0.6-0.9c0-0.3,0.3-0.5,0.5-0.8c0.2,0.2,0.5,0.4,0.6,0.6
								C332.9,300.4,332.6,300.7,332.4,301.2z"/>
							<path id="XMLID_309_" d="M356,305.2c0.4-0.5,0.5-1,0.8-1.1c0.2-0.1,0.7,0.2,0.7,0.4c0,0.4-0.1,0.9-0.4,1.1
								C356.9,305.7,356.5,305.4,356,305.2z"/>
							<path id="XMLID_308_" d="M379.4,444.2c-0.3-0.5-0.6-0.8-0.6-1c0-0.2,0.4-0.5,0.6-0.6c0.1,0,0.5,0.3,0.5,0.5
								C379.9,443.4,379.6,443.7,379.4,444.2z"/>
							<path id="XMLID_307_" d="M364.2,329.5c0-0.8,0-1.6-0.1-2.4c0.1,0,0.2,0,0.3,0c0.1,0.8,0.2,1.6,0.3,2.4
								C364.5,329.4,364.4,329.5,364.2,329.5z"/>
							<path id="XMLID_306_" d="M360.9,401.6c-0.3-0.3-0.7-0.5-0.6-0.7c0.1-0.3,0.3-0.6,0.5-0.9c0.2,0.1,0.6,0.3,0.6,0.4
								C361.3,400.8,361.1,401.1,360.9,401.6z"/>
							<path id="XMLID_305_" d="M359.8,306.6c0.4-0.2,0.9-0.4,1.3-0.6C361.4,306.7,361.2,306.7,359.8,306.6z"/>
							<path id="XMLID_304_" d="M394,297.4c-0.9-1.4-0.9-1.4,0.3-2.1C394.2,295.9,394.1,296.5,394,297.4z"/>
							<path id="XMLID_303_" d="M315.7,447.5c-0.2,0.2-0.4,0.4-0.6,0.5c-0.1,0-0.3-0.3-0.3-0.4c0.1-0.2,0.3-0.4,0.4-0.6
								C315.4,447.1,315.5,447.3,315.7,447.5z"/>
							<path id="XMLID_302_" d="M322.8,318c-0.3-0.3-0.7-0.4-0.7-0.6c0-0.3,0.2-0.6,0.4-0.8c0.1-0.1,0.6,0.2,0.6,0.3
								C323.1,317.2,322.9,317.5,322.8,318z"/>
							<path id="XMLID_301_" d="M386.1,308.3c-0.2,0.1-0.5,0.4-0.7,0.4c-0.2,0-0.5-0.1-0.6-0.3c-0.1-0.2,0.1-0.6,0.3-0.7
								c0.2-0.1,0.4,0.1,0.6,0.1C385.9,308,386,308.2,386.1,308.3z"/>
							<path id="XMLID_300_" d="M311,323.9c-0.2-0.2-0.4-0.4-0.4-0.5c0-0.2,0.2-0.3,0.3-0.5c0.1,0.1,0.3,0.2,0.4,0.4
								C311.3,323.4,311.1,323.6,311,323.9z"/>
							<path id="XMLID_299_" d="M421.9,437.9c-0.3-0.5-0.5-0.7-0.5-0.8c0-0.2,0.2-0.3,0.3-0.5c0.1,0.1,0.3,0.3,0.3,0.4
								C422.1,437.2,422,437.4,421.9,437.9z"/>
							<path id="XMLID_298_" d="M343.6,450.3c-0.2,0.2-0.4,0.4-0.5,0.4c-0.2,0-0.4-0.2-0.5-0.4c0.1-0.1,0.2-0.4,0.4-0.4
								C343.1,449.9,343.3,450,343.6,450.3z"/>
							<path id="XMLID_297_" d="M415.2,325c-0.1,0-0.2-0.1-0.3-0.2c0.1-0.1,0.1-0.3,0.2-0.3c0.1,0,0.2,0.1,0.3,0.1
								C415.4,324.7,415.3,324.9,415.2,325z"/>
							<path id="XMLID_296_" d="M322,432.7c0.2-0.1,0.4-0.1,0.7-0.2c0,0.1,0,0.2,0,0.2c-0.2,0.1-0.4,0.2-0.6,0.3
								C322,432.9,322,432.8,322,432.7z"/>
							<path id="XMLID_295_" d="M307.9,417.1c0,0.1-0.1,0.3-0.1,0.3c-0.1,0-0.2-0.1-0.3-0.1c0-0.1,0.1-0.3,0.1-0.3
								C307.6,417,307.8,417.1,307.9,417.1z"/>
							<path id="XMLID_294_" d="M377.7,394c-0.1-0.1-0.2-0.1-0.3-0.2c0.1-0.1,0.2-0.3,0.3-0.4c0.1,0.1,0.2,0.2,0.2,0.3
								C377.9,393.7,377.7,393.8,377.7,394z"/>
							<path id="XMLID_293_" d="M372.9,443.6c0,0.1,0,0.3-0.1,0.4c-0.2-0.1-0.3-0.1-0.5-0.2c0.1-0.1,0.1-0.3,0.2-0.3
								C372.7,443.4,372.8,443.5,372.9,443.6z"/>
							<path id="XMLID_292_" d="M345.8,396c-0.1-0.1-0.2-0.1-0.3-0.2c0.1-0.1,0.1-0.3,0.2-0.3c0.1,0,0.2,0.1,0.3,0.2
								C346,395.7,345.9,395.8,345.8,396z"/>
							<path id="XMLID_291_" d="M422.8,303.7c-0.1,0.1-0.1,0.2-0.2,0.3c-0.1-0.1-0.2-0.1-0.3-0.2c0-0.1,0.1-0.2,0.2-0.3
								C422.6,303.6,422.7,303.6,422.8,303.7z"/>
							<path id="XMLID_290_" d="M355,444.4c0.1-0.1,0.1-0.2,0.2-0.3c0,0,0.2,0,0.2,0.1c0,0.1,0,0.2,0,0.4
								C355.2,444.5,355.1,444.5,355,444.4z"/>
							<path id="XMLID_289_" d="M341.2,400.1c0-0.2-0.1-0.3-0.1-0.4c0.1-0.1,0.2-0.2,0.3-0.2c0.1,0,0.2,0.1,0.2,0.2
								C341.5,399.8,341.4,400,341.2,400.1z"/>
							<path id="XMLID_288_" d="M418.8,321.5c-0.1,0.1-0.1,0.2-0.2,0.3c-0.1-0.1-0.2-0.1-0.3-0.2c0-0.1,0.1-0.2,0.2-0.3
								C418.7,321.4,418.7,321.4,418.8,321.5z"/>
							<path id="XMLID_287_" d="M333.2,386.9c-0.1,0.1-0.1,0.2-0.2,0.3c-0.1-0.1-0.2-0.2-0.3-0.3c0.1-0.1,0.2-0.2,0.3-0.2
								C333.1,386.7,333.1,386.9,333.2,386.9z"/>
							<path id="XMLID_286_" d="M394.3,431.7c-0.1-0.1-0.2-0.2-0.2-0.3c0.1-0.1,0.2-0.2,0.3-0.3c0.1,0.1,0.2,0.2,0.2,0.3
								C394.6,431.5,394.4,431.6,394.3,431.7z"/>
							<path id="XMLID_285_" d="M341.8,427.2c0.2-0.8,0.7-1.2,2-1.2c-0.8,0.7-1.2,1.1-1.7,1.6C342,427.5,341.9,427.3,341.8,427.2z"
								/>
						</g>
						<g>
							<path id="XMLID_284_" d="M398.2,299.4c1.6,2.8,0.8,6.8-1.5,8.4c-2.2,1.6-5.7,0.8-7-1.6c-1.4-2.5-0.7-7.2,1.2-8.7
								C393.3,295.8,396.8,296.7,398.2,299.4z"/>
							<path id="XMLID_283_" d="M403.8,320.7c1.4,2.3,0.6,3.5-0.5,4.6c-1.3,1.2-3.1,1-3.7-0.4c-0.7-1.5-0.5-3.2,0.9-3.9
								C401.6,320.4,403,320.8,403.8,320.7z"/>
							<path id="XMLID_282_" d="M351.9,430.5c0.9,0.3,1.7,0.4,1.8,0.7c0.1,0.4-0.2,1.2-0.4,1.7c-0.1,0.2-1,0.1-1.1-0.2
								C351.9,432.3,352,431.7,351.9,430.5z"/>
							<path id="XMLID_279_" d="M376.8,434.6c0.2,0,0.5,0,0.7,0c0,0,0.1,0.4,0,0.4c-0.2,0.2-0.4,0.2-0.7,0.4
								C376.8,435.1,376.8,434.8,376.8,434.6z"/>
						</g>
					</g>
				</g>
			</g>
		</mask>
		<g style="mask:url(#SVGID_2_);">
			<path class="st67" d="M145.9,388c2.9,1.8,6.5,2.7,10.7,2.7c1.8,0,3.5-0.2,5.3-0.6c1.8-0.4,3.2-0.9,4.5-1.5
				c1.2-0.6,2.3-1.1,3.3-1.7c1-0.6,1.7-1.1,2.2-1.5l0.7-0.6v-10.4h-7.6c-0.1,1.3-0.1,2-0.2,2.4c-0.3,1.4-0.9,2.4-1.9,3.2
				c-1,0.8-2.2,1.2-3.6,1.2c-1,0-1.9-0.2-2.7-0.6c-0.8-0.4-1.4-0.9-1.8-1.5c-0.4-0.6-0.8-1.3-1.1-2.2c-0.3-0.8-0.5-1.7-0.5-2.5
				c-0.1-0.9-0.1-1.8-0.2-2.6c-0.1-0.9-0.1-1.7,0-2.5c0-0.5,0-0.9,0-1.1c0-0.8,0-1.5,0-2c0-0.6,0.1-1.3,0.2-2.1
				c0.1-0.8,0.2-1.5,0.4-2.1c0.2-0.6,0.4-1.2,0.7-1.8c0.3-0.6,0.7-1.2,1.1-1.6c0.4-0.4,0.9-0.7,1.6-1c0.6-0.3,1.3-0.4,2.1-0.4
				c1.1,0,2,0.2,2.8,0.7c0.8,0.5,1.4,1.1,1.9,1.8c0.4,0.8,0.8,1.6,1,2.4c0.2,0.9,0.3,1.7,0.3,2.6h7.6l0-16h-7.9l-0.9,1.8
				c-0.8-0.7-1.7-1.3-2.9-1.7c-1.1-0.4-2.2-0.6-3.1-0.7c-0.9-0.1-2-0.1-3.2-0.1c-2.4,0-4.6,0.4-6.5,1.2c-2,0.8-3.6,1.9-4.9,3.3
				s-2.4,3-3.3,4.9c-0.9,1.9-1.6,3.8-2,5.8c-0.4,2-0.6,4.1-0.6,6.2c0,4.3,0.7,8,2.2,11.1C140.7,383.8,142.9,386.2,145.9,388z"/>
			<polygon class="st67" points="198.9,380.8 198.9,389.9 219.2,389.9 219.2,380.8 215.5,380.8 215.5,357.7 219,357.7 219,348.8 
				198.8,348.8 198.8,357.7 201,357.7 201,364.9 194.2,364.9 194.2,357.7 196.6,357.7 196.6,348.8 176.1,348.8 176.1,357.7 
				179.8,357.7 179.8,380.8 176.1,380.8 176.1,389.9 196.6,389.9 196.7,380.8 194.2,380.8 194.2,373.8 201,373.8 201,380.8 			"/>
			<path class="st67" d="M221.2,369.4c0,4,0.9,7.6,2.7,10.8c1.8,3.2,4.3,5.8,7.5,7.6c3.2,1.8,6.7,2.8,10.6,2.8
				c3.9,0,7.4-0.9,10.6-2.8c3.2-1.8,5.7-4.4,7.5-7.6c1.8-3.2,2.7-6.9,2.7-10.8c0-4.4-0.9-8.2-2.7-11.4c-1.8-3.3-4.3-5.8-7.4-7.4
				c-3.1-1.7-6.7-2.5-10.6-2.5c-4,0-7.6,0.8-10.7,2.5c-3.1,1.7-5.6,4.2-7.4,7.4C222.2,361.3,221.2,365.1,221.2,369.4z M236.8,364.7
				c0-0.6,0.1-1.2,0.2-1.9c0.1-0.6,0.2-1.2,0.4-1.8c0.1-0.6,0.4-1.1,0.6-1.6c0.3-0.5,0.6-0.9,0.9-1.3c0.4-0.4,0.8-0.6,1.3-0.8
				c0.5-0.2,1.1-0.3,1.8-0.3c0.7,0,1.4,0.1,2,0.4c0.6,0.3,1.1,0.6,1.4,1.1c0.4,0.5,0.7,1,0.9,1.6c0.3,0.6,0.5,1.3,0.6,1.9
				c0.1,0.7,0.2,1.4,0.3,2.1c0.1,0.7,0.1,1.4,0.1,2.1c0,0.7,0,1.3,0,1.9c0,0.4,0,0.7,0,0.9c0,0.2,0,0.4,0,0.8c0,0.6,0,1.2,0,1.8
				c0,0.6,0,1.3-0.1,2c0,0.7-0.1,1.3-0.2,2c-0.1,0.7-0.2,1.3-0.4,1.9c-0.2,0.6-0.4,1.2-0.6,1.7c-0.3,0.5-0.6,1-0.9,1.4
				c-0.4,0.4-0.8,0.7-1.3,0.9c-0.5,0.2-1.1,0.3-1.8,0.3c-0.6,0-1.1-0.1-1.6-0.3c-0.5-0.2-0.9-0.4-1.3-0.7c-0.3-0.3-0.7-0.7-0.9-1.1
				c-0.3-0.4-0.5-0.9-0.7-1.4c-0.2-0.5-0.3-1-0.4-1.6c-0.1-0.6-0.2-1.2-0.3-1.7c-0.1-0.6-0.1-1.2-0.1-1.8c0-0.6-0.1-1.2,0-1.7
				c0-0.6,0-1.1,0-1.6c0-0.3,0-0.6,0-0.8c0-0.2,0-0.5,0-0.9c0-0.5,0-1.1,0-1.7C236.7,365.9,236.7,365.3,236.8,364.7z"/>
			<polygon class="st67" points="286.9,357.7 286.9,348.8 265,348.8 265,357.7 268.6,357.7 268.6,380.8 264.9,380.8 264.9,389.9 
				286.8,389.9 286.8,380.8 283.2,380.8 283.2,357.7 			"/>
			<path class="st67" d="M298,388c2.9,1.8,6.5,2.7,10.7,2.7c1.8,0,3.5-0.2,5.3-0.6c1.8-0.4,3.2-0.9,4.5-1.5c1.2-0.6,2.3-1.1,3.3-1.7
				c1-0.6,1.7-1.1,2.2-1.5l0.7-0.6v-10.4h-7.6c-0.1,1.3-0.1,2-0.2,2.4c-0.3,1.4-0.9,2.4-1.9,3.2c-1,0.8-2.2,1.2-3.6,1.2
				c-1,0-1.9-0.2-2.7-0.6c-0.8-0.4-1.4-0.9-1.8-1.5c-0.4-0.6-0.8-1.3-1.1-2.2c-0.3-0.8-0.5-1.7-0.5-2.5c-0.1-0.9-0.1-1.8-0.2-2.6
				c-0.1-0.9-0.1-1.7,0-2.5c0-0.5,0-0.9,0-1.1c0-0.8,0-1.5,0-2c0-0.6,0.1-1.3,0.2-2.1c0.1-0.8,0.2-1.5,0.4-2.1
				c0.2-0.6,0.4-1.2,0.7-1.8c0.3-0.6,0.7-1.2,1.1-1.6c0.4-0.4,0.9-0.7,1.6-1c0.6-0.3,1.3-0.4,2.1-0.4c1.1,0,2,0.2,2.8,0.7
				c0.8,0.5,1.4,1.1,1.9,1.8c0.4,0.8,0.8,1.6,1,2.4c0.2,0.9,0.3,1.7,0.3,2.6h7.6l0-16h-7.9l-0.9,1.8c-0.8-0.7-1.7-1.3-2.9-1.7
				c-1.1-0.4-2.2-0.6-3.1-0.7c-0.9-0.1-2-0.1-3.2-0.1c-2.4,0-4.6,0.4-6.5,1.2c-2,0.8-3.6,1.9-4.9,3.3c-1.3,1.4-2.4,3-3.3,4.9
				c-0.9,1.9-1.6,3.8-2,5.8c-0.4,2-0.6,4.1-0.6,6.2c0,4.3,0.7,8,2.2,11.1C292.8,383.8,295,386.2,298,388z"/>
			<polygon class="st67" points="351.5,357.7 353.4,365.4 360.2,365.4 360.2,348.8 328.1,348.8 328.1,357.7 332.1,357.7 
				332.1,380.8 328.1,380.8 328.1,389.9 360.5,389.9 360.5,372.5 353.6,372.5 352,379.3 351.7,380.8 346.1,380.8 346.1,373.8 
				351.3,373.8 351.3,364.9 346.1,364.9 346.1,357.7 			"/>
			<path class="st67" d="M167.8,316.9c0,0.5-0.2,1.1-0.4,1.8c-0.2,0.7-0.5,1.2-0.9,1.6c-0.4,0.4-1,0.7-1.7,0.9s-1.7,0.4-2.8,0.4v13
				h23v-13c-2,0-3.5-0.4-4.4-1.2c-0.9-0.8-1.3-2.2-1.3-4.2v-14.5l17.1,32.8h21.9v-40.4c0-1.8,0.4-3.1,1.3-4.1
				c0.9-0.9,2.3-1.4,4.4-1.4V276l-23,0v12.7c0.9,0,1.8,0,2.5,0.1c0.7,0.1,1.2,0.3,1.6,0.7c0.4,0.3,0.7,0.6,1,0.9
				c0.2,0.3,0.4,0.7,0.5,1.3c0.1,0.5,0.1,1,0.1,1.2c0,0.3,0,0.7,0,1.3v16.9L188.8,276h-26.5v12.7h5.7v26.1
				C167.9,315.7,167.9,316.4,167.8,316.9z"/>
			<path class="st67" d="M229.4,320.8c2.6,4.6,6.1,8.2,10.7,10.9c4.5,2.6,9.5,3.9,15.1,3.9c5.5,0,10.5-1.3,15.1-3.9
				c4.5-2.6,8.1-6.2,10.7-10.9c2.6-4.6,3.9-9.8,3.9-15.4c0-6.2-1.3-11.6-3.9-16.3c-2.6-4.7-6.1-8.2-10.5-10.6
				c-4.4-2.4-9.5-3.6-15.1-3.6c-5.7,0-10.8,1.2-15.3,3.6c-4.4,2.4-8,5.9-10.5,10.6c-2.6,4.7-3.9,10.1-3.9,16.3
				C225.5,311.1,226.8,316.2,229.4,320.8z M247.5,301.2c0-0.8,0.1-1.7,0.1-2.6c0-0.9,0.1-1.8,0.3-2.6c0.2-0.9,0.3-1.7,0.5-2.5
				c0.2-0.8,0.5-1.6,0.9-2.2c0.4-0.7,0.8-1.3,1.4-1.8c0.5-0.5,1.1-0.9,1.9-1.2c0.8-0.3,1.6-0.4,2.5-0.4c1.1,0,2,0.2,2.9,0.6
				c0.8,0.4,1.5,0.9,2,1.5c0.5,0.6,1,1.4,1.4,2.3c0.4,0.9,0.7,1.8,0.8,2.7c0.2,1,0.3,2,0.4,3c0.1,1,0.2,2,0.1,3c0,1,0,1.9,0,2.7
				c0,0.6,0,1,0,1.3c0,0.2,0,0.6,0,1.1c0,0.8,0,1.7,0,2.6c0,0.9-0.1,1.8-0.1,2.8c0,1-0.1,1.9-0.3,2.8c-0.1,0.9-0.3,1.8-0.5,2.7
				c-0.2,0.9-0.5,1.7-0.9,2.4c-0.4,0.7-0.8,1.4-1.4,1.9c-0.5,0.6-1.2,1-1.9,1.3c-0.7,0.3-1.6,0.5-2.5,0.5c-0.8,0-1.6-0.1-2.3-0.4
				c-0.7-0.3-1.3-0.6-1.8-1c-0.5-0.4-0.9-1-1.3-1.6c-0.4-0.6-0.7-1.3-0.9-2c-0.2-0.7-0.5-1.5-0.6-2.3c-0.2-0.8-0.3-1.6-0.4-2.5
				c-0.1-0.8-0.1-1.7-0.2-2.5c-0.1-0.9-0.1-1.7-0.1-2.5c0-0.8,0-1.6,0-2.3c0-0.5,0-0.8,0-1.1c0-0.3,0-0.7,0-1.3
				C247.5,302.9,247.5,302.1,247.5,301.2z"/>
			<path class="st67" d="M297,335.6c2.9,0,5.4-0.8,7.4-2.4c2-1.6,3-3.8,3-6.6c0-2.7-1-4.9-2.9-6.5c-1.9-1.6-4.4-2.4-7.5-2.4
				c-2.9,0-5.3,0.8-7.2,2.4c-1.9,1.6-2.8,3.7-2.8,6.5c0,2.8,1,5,2.9,6.6C291.7,334.8,294.1,335.6,297,335.6z"/>
			<polygon class="st67" points="333.8,284.9 309.9,291 309.9,300.3 315.8,300.3 315.8,322.9 312.6,322.9 312.6,334.6 337.5,334.6 
				337.5,322.9 334,322.9 			"/>
			<rect x="193.1" y="200.1" class="st67" width="31.5" height="62.5"/>
			<path class="st67" d="M270.7,143.9c-4.7-3.9-9.8-1.5-9.8-1.5V165c-6.2,13.1-22.3,34.3-22.3,34.3c-2.9,2.4-6.7,3.9-9.8,4.9V254
				c8.9,1.2,12.6,5.3,12.6,5.3h9.1h1.7H299c4.1,0,8-3.3,8.7-7.4l0.5-2.9c0.6-3.3-1-6-3.8-7c3.6-0.5,6.9-3.6,7.6-7.3l0.5-2.9
				c0.5-2.5-0.4-4.7-2-6c2.4-1.3,4.3-3.6,4.8-6.4l0.5-2.9c0.6-3.3-1-6-3.8-7c3.6-0.5,6.9-3.6,7.6-7.3l0.5-2.9c0.7-4.1-2-7.4-6-7.4
				h-39.9l5.1-24.9C278.6,158.4,275.4,147.7,270.7,143.9z"/>
			<polygon class="st67" points="139.4,122.8 139.4,340.4 151.3,340.4 151.3,134.7 351,134.7 351,340.4 362.9,340.4 362.9,122.8 			
				"/>
			<polygon class="st67" points="351,411.7 151.3,411.7 151.3,399.8 139.4,399.8 139.4,423.6 362.9,423.6 362.9,399.8 351,399.8 			
				"/>
		</g>
	</g>
</g>
<g id="DESIGNED_BY_FREEPIK">
</g>
</svg>
