<?xml version="1.0" encoding="utf-8"?>
<!-- Generator: Adobe Illustrator 22.0.1, SVG Export Plug-In . SVG Version: 6.00 Build 0)  -->
<svg version="1.1" xmlns="http://www.w3.org/2000/svg" xmlns:xlink="http://www.w3.org/1999/xlink" x="0px" y="0px"
	 viewBox="0 0 500 500" style="enable-background:new 0 0 500 500;" xml:space="preserve">
<style type="text/css">
	.st0{fill:#E0E0E0;}
	.st1{fill:#F5F5F5;}
	.st2{display:none;}
	.st3{display:inline;fill:#F5F5F5;}
	.st4{fill:#E8505B;}
	.st5{fill:#FAFAFA;}
	.st6{opacity:0.3;}
	.st7{fill:#FFBE9D;}
	.st8{fill:#263238;}
	.st9{fill:#EB996E;}
	.st10{fill:#455A64;}
	.st11{fill:#F5F7FB;}
	.st12{fill:#282A2A;}
	.st13{fill:#404348;}
	.st14{fill:#9D9D9D;}
	.st15{fill:#303031;}
	.st16{fill:#505050;}
	.st17{fill:#CAD8ED;}
	.st18{fill:#6281B8;}
	.st19{fill:#E4ECFA;}
	.st20{fill:#D1A982;}
	.st21{fill:#505356;}
	.st22{fill:#565F64;}
	.st23{clip-path:url(#SVGID_2_);}
	.st24{fill:#9F2A37;}
	.st25{fill:#E4A366;}
	.st26{clip-path:url(#SVGID_4_);}
	.st27{fill:#E3E5E8;}
	.st28{fill:#CACDCF;}
	.st29{fill:#373838;}
	.st30{fill:#D6D8DB;}
	.st31{fill:#7AB898;}
	.st32{fill:#47494A;}
</style>
<g id="Background_Complete">
	<g>
		<g>
			<g>
				<g>
					<g>
						<g>
							<path class="st0" d="M167,419.2c0,0,0.1-0.3,0.3-0.8c0.2-0.6,0.5-1.4,0.8-2.4c0.7-2.1,1.7-5.1,2.8-8.8
								c2.3-7.4,5.1-17.8,8-29.3c2.9-11.5,5.7-21.9,7.8-29.4c1-3.6,1.9-6.6,2.5-8.9c0.3-1,0.5-1.8,0.7-2.4c0.1-0.6,0.2-0.8,0.2-0.9
								c0,0-0.1,0.3-0.3,0.8c-0.2,0.6-0.5,1.4-0.8,2.4c-0.7,2.1-1.7,5.1-2.8,8.8c-2.3,7.4-5.1,17.8-8,29.3
								c-2.9,11.5-5.7,21.9-7.8,29.4c-1,3.6-1.9,6.6-2.5,8.9c-0.3,1-0.5,1.8-0.7,2.4C167.1,418.9,167,419.2,167,419.2z"/>
						</g>
					</g>
				</g>
			</g>
		</g>
	</g>
	<g>
		<g>
			<g>
				<path class="st0" d="M153.6,216.8c-0.7,0-1.5-0.4-1.8-1.1l-4.3-9c-0.3-0.6-0.3-1.2,0-1.8c0.3-0.6,0.8-1,1.4-1.1
					c1.6-0.3,3.1-1.3,4.1-2.8c0.9-1.4,1.2-3,0.9-4.4c-0.3-1.4-1.4-2.7-2.8-3.5c-1.5-0.9-3.4-1.1-4.9-0.7c-3.1,0.9-5.4,4.6-4.9,8
					c0.2,1.1-0.6,2.1-1.7,2.3c-1.1,0.2-2.1-0.6-2.3-1.7c-0.8-5.4,2.7-10.9,7.7-12.4c2.6-0.8,5.5-0.4,8.1,1c2.4,1.4,4.1,3.6,4.7,6
					c0.6,2.5,0.1,5.2-1.4,7.5c-1.1,1.7-2.6,3-4.3,3.8l3.3,7c0.5,1,0.1,2.2-0.9,2.7C154.2,216.8,153.9,216.8,153.6,216.8z"/>
			</g>
		</g>
		<g>
			<g>
				<path class="st0" d="M157.9,219.4c0.4,0.8,0.1,1.8-0.7,2.2c-0.8,0.4-1.8,0.1-2.2-0.7c-0.4-0.8-0.1-1.8,0.7-2.2
					C156.5,218.3,157.5,218.6,157.9,219.4z"/>
			</g>
		</g>
	</g>
	<g>
		<g>
			<g>
				<path class="st1" d="M98.6,186.6c-0.5,0-1-0.3-1.3-0.8l-3-6.3c-0.2-0.4-0.2-0.9,0-1.3c0.2-0.4,0.6-0.7,1-0.7
					c1.1-0.2,2.2-0.9,2.9-2c0.6-1,0.8-2.1,0.6-3.1c-0.2-1-1-1.9-2-2.4c-1.1-0.6-2.4-0.8-3.4-0.5c-2.2,0.7-3.8,3.2-3.4,5.6
					c0.1,0.8-0.4,1.5-1.2,1.6c-0.8,0.1-1.5-0.4-1.6-1.2c-0.5-3.7,1.9-7.6,5.4-8.7c1.8-0.5,3.9-0.3,5.6,0.7c1.7,1,2.9,2.5,3.3,4.2
					c0.4,1.7,0.1,3.7-1,5.3c-0.8,1.2-1.8,2.1-3,2.6l2.3,4.9c0.3,0.7,0,1.5-0.7,1.9C99,186.5,98.8,186.6,98.6,186.6z"/>
			</g>
		</g>
		<g>
			<g>
				<path class="st1" d="M101.6,188.4c0.3,0.6,0.1,1.3-0.5,1.5c-0.6,0.3-1.3,0.1-1.5-0.5s-0.1-1.3,0.5-1.5
					C100.6,187.6,101.3,187.8,101.6,188.4z"/>
			</g>
		</g>
	</g>
	<g>
		<g>
			<g>
				<path class="st1" d="M348.1,190c0.2,0.5,0.2,1.1-0.2,1.5l-4.4,5.4c-0.3,0.3-0.7,0.5-1.1,0.5c-0.4,0-0.8-0.2-1.1-0.6
					c-0.7-0.9-1.8-1.6-3-1.7c-1.1-0.2-2.2,0.1-3,0.8c-0.8,0.6-1.3,1.7-1.4,2.8c-0.1,1.2,0.3,2.5,1,3.3c1.5,1.7,4.5,2,6.5,0.7
					c0.6-0.4,1.5-0.2,1.9,0.4c0.4,0.7,0.2,1.5-0.4,1.9c-3.2,2.1-7.7,1.5-10.1-1.2c-1.3-1.4-1.9-3.4-1.7-5.4c0.1-1.9,1-3.7,2.4-4.8
					c1.4-1.1,3.3-1.6,5.2-1.4c1.4,0.2,2.7,0.7,3.7,1.6l3.4-4.2c0.5-0.6,1.4-0.7,2-0.2C347.9,189.6,348,189.8,348.1,190z"/>
			</g>
		</g>
		<g>
			<g>
				<path class="st1" d="M348.5,186.5c0.4-0.5,1.1-0.6,1.6-0.2c0.5,0.4,0.6,1.1,0.2,1.6c-0.4,0.5-1.1,0.6-1.6,0.2
					C348.2,187.7,348.1,187,348.5,186.5z"/>
			</g>
		</g>
	</g>
	<g>
		<g>
			<g>
				<path class="st1" d="M333.5,59.5c0.2,0.5,0.2,1.1-0.2,1.5l-4.4,5.4c-0.3,0.3-0.7,0.5-1.1,0.5c-0.4,0-0.8-0.2-1.1-0.6
					c-0.7-0.9-1.8-1.6-3-1.7c-1.1-0.2-2.2,0.1-3,0.8c-0.8,0.6-1.3,1.7-1.4,2.8c-0.1,1.2,0.3,2.5,1,3.3c1.5,1.7,4.5,2,6.5,0.7
					c0.6-0.4,1.5-0.2,1.9,0.4c0.4,0.7,0.2,1.5-0.4,1.9c-3.2,2.1-7.7,1.5-10.1-1.2c-1.3-1.4-1.9-3.4-1.7-5.4c0.1-1.9,1-3.7,2.4-4.8
					c1.4-1.1,3.3-1.6,5.2-1.4c1.4,0.2,2.7,0.7,3.7,1.6l3.4-4.2c0.5-0.6,1.4-0.7,2-0.2C333.3,59.2,333.4,59.3,333.5,59.5z"/>
			</g>
		</g>
		<g>
			<g>
				<path class="st1" d="M333.8,56c0.4-0.5,1.1-0.6,1.6-0.2c0.5,0.4,0.6,1.1,0.2,1.6c-0.4,0.5-1.1,0.6-1.6,0.2
					C333.5,57.3,333.4,56.5,333.8,56z"/>
			</g>
		</g>
	</g>
	<g>
		<g>
			<g>
				<path class="st0" d="M222.5,79.6c0.7,0,1.3,0.4,1.6,1l3.9,8.2c0.2,0.5,0.2,1.1,0,1.6c-0.3,0.5-0.7,0.9-1.3,1
					c-1.5,0.3-2.8,1.2-3.7,2.5c-0.8,1.2-1.1,2.7-0.8,4c0.3,1.3,1.2,2.4,2.6,3.2c1.4,0.8,3.1,1,4.5,0.6c2.8-0.8,4.9-4.2,4.4-7.3
					c-0.1-1,0.6-1.9,1.6-2.1c1-0.1,1.9,0.6,2.1,1.6c0.7,4.9-2.5,9.9-7,11.3c-2.4,0.7-5,0.4-7.3-0.9c-2.2-1.2-3.7-3.2-4.3-5.5
					c-0.6-2.3-0.1-4.7,1.3-6.8c1-1.5,2.4-2.7,3.9-3.4l-3-6.3c-0.4-0.9-0.1-2,0.9-2.4C221.9,79.6,222.2,79.6,222.5,79.6z"/>
			</g>
		</g>
		<g>
			<g>
				<path class="st0" d="M218.5,77.2c-0.4-0.7-0.1-1.6,0.6-2c0.7-0.4,1.6-0.1,2,0.6c0.4,0.7,0.1,1.6-0.6,2
					C219.8,78.3,218.9,78,218.5,77.2z"/>
			</g>
		</g>
	</g>
	<g>
		<g>
			<g>
				<path class="st0" d="M358.1,241.4c0.7,0,1.3,0.4,1.6,1l3.9,8.2c0.2,0.5,0.2,1.1,0,1.6c-0.3,0.5-0.7,0.9-1.3,1
					c-1.5,0.3-2.8,1.2-3.7,2.5c-0.8,1.2-1.1,2.7-0.8,4c0.3,1.3,1.2,2.4,2.6,3.2c1.4,0.8,3.1,1,4.5,0.6c2.8-0.8,4.9-4.2,4.4-7.3
					c-0.1-1,0.6-1.9,1.6-2.1c1-0.1,1.9,0.6,2.1,1.6c0.7,4.9-2.5,9.9-7,11.3c-2.4,0.7-5,0.4-7.3-0.9c-2.2-1.2-3.7-3.2-4.3-5.5
					c-0.6-2.3-0.1-4.7,1.3-6.8c1-1.5,2.4-2.7,3.9-3.4l-3-6.3c-0.4-0.9-0.1-2,0.9-2.4C357.6,241.4,357.8,241.4,358.1,241.4z"/>
			</g>
		</g>
		<g>
			<g>
				<path class="st0" d="M354.2,239c-0.4-0.7-0.1-1.6,0.6-2s1.6-0.1,2,0.6c0.4,0.7,0.1,1.6-0.6,2C355.5,240.1,354.6,239.8,354.2,239
					z"/>
			</g>
		</g>
	</g>
	<g>
		<g>
			<g>
				<g>
					<path class="st0" d="M324,396.5c0,0,0.4,0,1.1,0c0.8,0.1,1.7,0.1,2.9,0.2c2.4,0.2,5.8,0.4,9.5,0.5c3.7,0.1,7.1,0.1,9.5,0.1
						c1.2,0,2.1,0,2.9,0c0.7,0,1.1,0,1.1,0c0,0-0.4,0.1-1.1,0.1c-0.7,0.1-1.7,0.1-2.9,0.2c-2.4,0.1-5.8,0.2-9.6,0
						c-3.7-0.1-7.1-0.4-9.5-0.7c-1.2-0.1-2.2-0.3-2.9-0.4C324.4,396.6,324,396.6,324,396.5z"/>
				</g>
			</g>
		</g>
		<g>
			<g>
				<g>
					<path class="st0" d="M313.4,373.8c0,0,0.2,0.3,0.5,0.8c0.3,0.6,0.7,1.4,1.2,2.4c1,2,2.4,4.8,3.9,7.9c1.5,3.1,2.8,5.9,3.8,8
						c0.4,1,0.8,1.8,1.1,2.4c0.3,0.6,0.4,0.9,0.3,0.9c0,0-0.2-0.3-0.5-0.8c-0.3-0.6-0.7-1.4-1.2-2.4c-1-2-2.4-4.8-3.9-7.9
						c-1.5-3.1-2.8-5.9-3.8-8c-0.4-1-0.8-1.8-1.1-2.4C313.5,374.2,313.4,373.9,313.4,373.8z"/>
				</g>
			</g>
		</g>
		<g>
			<g>
				<g>
					<path class="st0" d="M291.7,399.1c0,0,0.3,0.4,0.6,1.1c0.4,0.8,0.9,1.8,1.6,3c1.3,2.6,3.1,6.2,5.1,10.1c2,4,3.7,7.6,5,10.2
						c0.6,1.3,1.1,2.3,1.5,3.1c0.3,0.7,0.5,1.2,0.5,1.2c0,0-0.3-0.4-0.6-1.1c-0.4-0.8-0.9-1.8-1.6-3c-1.3-2.6-3.1-6.2-5.1-10.1
						c-2-4-3.7-7.6-5-10.2c-0.6-1.3-1.1-2.3-1.5-3.1C291.8,399.5,291.6,399.1,291.7,399.1z"/>
				</g>
			</g>
		</g>
		<g>
			<g>
				<g>
					<path class="st0" d="M305.7,427c0,0,0.5,0,1.4,0c0.9,0,2.2,0.1,3.7,0.1c3.1,0.1,7.4,0.3,12.1,0.3c4.7,0,9,0,12.1-0.1
						c1.5,0,2.7-0.1,3.7-0.1c0.9,0,1.3,0,1.4,0c0,0-0.5,0.1-1.3,0.2c-0.9,0.1-2.1,0.2-3.7,0.2c-3.1,0.2-7.4,0.3-12.1,0.3
						c-4.7,0-9-0.2-12.1-0.4c-1.5-0.1-2.8-0.2-3.7-0.3C306.2,427,305.7,427,305.7,427z"/>
				</g>
			</g>
		</g>
	</g>
</g>
<g id="Background_Simple" class="st2">
	<path class="st3" d="M420.2,342.6c-32.9,50.7-95.8,81-155.7,81.5c-59.9,0.5-115.7-26.2-155.4-66.4C80.9,328.9,59.8,292.2,57,251.4
		c-2.8-40.8,2.7-85.6,38.6-110.8c13.5-9.5,42.6-16.3,58.4-14.3c25.3,3.1,40.6,26,52.8,46.9c12.2,20.9,27.5,43.8,52.8,47
		c19.4,2.5,38.9-7.7,58.5-12.3c33.3-7.8,69,1.4,91.6,23.8c6.2,6.1,11.4,13.2,15.4,20.9c13.6,25.9,12.8,57.1-1.1,82.8L420.2,342.6z"
		/>
</g>
<g id="Floor">
</g>
<g id="Character">
	<g>
		<g>
			<g>
				<g>
					<g>
						<g>
							<g>
								<path class="st4" d="M344.9,397.5l-15.2-72.6c0,0-8.9-35-39.7-47.1l-2.1-0.7c0,0-2.9-0.9-3-0.9c-1.2-0.5-6.3-2.1-7.6-2.5
									c-41.4-14.4-52.4-10.6-95.6,4.1c0,0-19.2,5.2-28.5,30.2c-9.3,25-27.1,64.2-27.1,64.2l43.1,15.2l8.3-12.3v45.3v38.6h51.1
									h67.4l-3.3-38.6l-0.6-47.6"/>
							</g>
						</g>
					</g>
				</g>
				<g>
					<g>
						<path class="st5" d="M224.3,282.3c0,0-0.3,0.4-1,0.9c-0.3,0.3-0.7,0.6-1.2,1c-0.5,0.4-1.1,0.8-1.7,1.2c-1.3,0.8-3,1.7-4.9,2.5
							c-1.9,0.8-4.1,1.5-6.4,1.9c-2.3,0.4-4.6,0.6-6.7,0.6c-2.1,0-3.9-0.2-5.4-0.5c-0.8-0.1-1.4-0.3-2.1-0.4
							c-0.6-0.1-1.1-0.3-1.5-0.4c-0.8-0.3-1.3-0.4-1.3-0.5c0-0.1,1.8,0.5,4.9,1c1.5,0.2,3.4,0.4,5.4,0.4c2,0,4.3-0.2,6.6-0.7
							c2.3-0.5,4.4-1.1,6.3-1.9c1.9-0.8,3.5-1.6,4.8-2.4C222.8,283.5,224.2,282.3,224.3,282.3z"/>
					</g>
				</g>
				<g class="st6">
					<polygon points="177.4,407.1 187.1,418.3 196.7,418.3 196.7,430.6 295.4,453.4 294.6,443.9 201.7,412 186.2,412 178.7,406 
											"/>
				</g>
				<g>
					<path class="st7" d="M206.5,397.1l-8.2-1.5c0,0-19.5-21.4-23.2-21.7c-3-0.3-19.6-0.1-25.4,0c-1.1,0-2,0.9-2,2l0,0
						c0,1.1,0.9,2,1.9,2l19.6,0.8l0.1,1.6l-19.7,0.3c-2,0.2-3.3,3.3,3.1,3.9l16.4,0.6v1l-16.7,2.3c-0.8,0.1-3.1,0.5-3.1,1.4
						c0,0-1,2.1,3.7,2.7c1.6,0.2,16.1-0.3,16.1-0.3l-0.6,1.3l-15,3.2c-1.1,0.2-1.8,1.3-1.7,2.4l0,0c0.2,1.1,1.2,1.9,2.3,1.8l16-1.5
						l15.7,12.5h21L206.5,397.1z"/>
				</g>
				<g>
					<polyline class="st4" points="344.9,397.5 296.9,407 292.1,372.9 					"/>
				</g>
				<g>
					<g>
						<path class="st4" d="M290.6,398.9l-88.8-2.9l0,30.7l58.9,11.7l41.4,6.6c25.7,0,46.3-23.6,42.3-49l-0.1,0L290.6,398.9z"/>
					</g>
					<g>
						<g>
							<path class="st8" d="M315,398.3c0,0-0.4,0.1-1.2,0.1c-0.8,0-1.9,0.1-3.3,0.1c-2.9,0.1-7.1,0.1-12.1,0.2
								c-10.3,0.1-24.4,0.3-40.1,0.2c-15.7-0.2-29.8-0.7-40.1-1.4c-5.1-0.3-9.3-0.7-12.1-1c-1.4-0.1-2.5-0.3-3.3-0.3
								c-0.8-0.1-1.1-0.1-1.1-0.2c0,0,0.4,0,1.2,0c0.8,0.1,1.9,0.1,3.3,0.2c2.9,0.2,7,0.5,12.1,0.7c10.2,0.6,24.4,1.1,40,1.2
								c15.6,0.1,29.8,0.1,40.1,0c5.1,0,9.2,0,12.1,0c1.4,0,2.5,0,3.3,0C314.6,398.2,315,398.3,315,398.3z"/>
						</g>
					</g>
				</g>
				<g>
					<g>
						<path class="st8" d="M201.7,396.3c0,0,0,0.2,0,0.5c0,0.4,0,0.9,0,1.6c0,1.4,0,3.5,0.1,6.1c0,5.3,0.1,12.7,0.1,21.7l-0.2-0.2
							c10,2.2,22.1,4.8,35,7.5c17.7,3.8,33.9,6.7,45.6,8.5c5.9,0.9,10.6,1.6,13.9,2c1.6,0.2,2.9,0.4,3.8,0.5c0.4,0.1,0.7,0.1,1,0.1
							c0.2,0,0.3,0.1,0.3,0.1c0,0-0.1,0-0.3,0c-0.3,0-0.6-0.1-1-0.1c-0.9-0.1-2.2-0.2-3.8-0.4c-3.3-0.4-8.1-1-14-1.8
							c-11.8-1.7-27.9-4.6-45.7-8.4c-12.9-2.7-25-5.4-35-7.6l-0.2,0l0-0.2c0-9,0.1-16.4,0.1-21.7c0-2.6,0-4.6,0.1-6.1
							c0-0.7,0-1.2,0-1.6C201.7,396.4,201.7,396.3,201.7,396.3z"/>
					</g>
				</g>
				<g>
					<g>
						<path class="st8" d="M194.1,312.3c0,0,0-0.5,0.1-1.5c0.1-1,0.2-2.4,0.2-4.1c0.1-3.4-0.1-8.2-0.9-13.4
							c-0.9-5.1-2.1-9.8-3.8-12.8c-0.9-1.5-1.9-2.4-2.7-3c-0.8-0.6-1.3-0.8-1.3-0.8c0,0,0.1,0,0.4,0.1c0.2,0.1,0.6,0.3,1,0.5
							c0.8,0.5,1.9,1.5,2.9,3c1,1.5,1.8,3.4,2.4,5.6c0.6,2.2,1.2,4.7,1.7,7.3c0.9,5.2,1,10,0.8,13.5c-0.1,1.7-0.2,3.1-0.4,4.1
							C194.3,311.8,194.2,312.3,194.1,312.3z"/>
					</g>
				</g>
				<g>
					<g>
						<path class="st8" d="M291.8,285.3c0.1,0,0.3,20.4,0.3,45.6c0,25.2-0.1,45.6-0.3,45.6s-0.3-20.4-0.3-45.6
							C291.6,305.7,291.7,285.3,291.8,285.3z"/>
					</g>
				</g>
				<g>
					<g>
						<path class="st8" d="M322.5,387.8c0,0.1-1.5,0-3.9,0.3c-1.2,0.1-2.6,0.4-4.2,0.8c-1.5,0.4-3.2,1-4.9,1.7
							c-1.7,0.8-3.2,1.6-4.5,2.5c-1.3,0.9-2.5,1.8-3.4,2.6c-1.8,1.6-2.8,2.8-2.8,2.7c0,0,0.2-0.3,0.6-0.9c0.4-0.5,1.1-1.3,2-2.1
							c0.9-0.9,2-1.8,3.3-2.7c1.3-0.9,2.9-1.8,4.6-2.6c1.7-0.8,3.4-1.3,5-1.7c1.6-0.4,3-0.6,4.2-0.7c1.2-0.1,2.2-0.1,2.9-0.1
							C322.1,387.8,322.5,387.8,322.5,387.8z"/>
					</g>
				</g>
				<g class="st6">
					<g>
						<path d="M195,392.1c15-8.9,24.3-23.7,33.4-38.6c9.1-14.9,17.6-30.4,30.3-42.4c5.8-5.5,12.6-10.1,14.8-17.9l-22.8,18.1
							l-63.4,72.9L195,392.1z"/>
					</g>
				</g>
				<g>
					<g>
						<path class="st8" d="M153.9,353c0,0.2-3.6,0.1-7.7,1.5c-2,0.7-3.8,1.6-5.1,2.2c-1.3,0.7-2,1.1-2.1,1c0-0.1,0.7-0.6,1.9-1.3
							c1.2-0.7,3-1.7,5.1-2.4c2.1-0.7,4.1-1,5.5-1C153,352.8,153.9,352.9,153.9,353z"/>
					</g>
				</g>
				<g>
					<g>
						<path class="st8" d="M153.9,353c0,0.2-3.6,0.1-7.7,1.5c-2,0.7-3.8,1.6-5.1,2.2c-1.3,0.7-2,1.1-2.1,1c0-0.1,0.7-0.6,1.9-1.3
							c1.2-0.7,3-1.7,5.1-2.4c2.1-0.7,4.1-1,5.5-1C153,352.8,153.9,352.9,153.9,353z"/>
					</g>
				</g>
				<g>
					<g>
						<path class="st5" d="M291.5,385.6c0,0.1-1.1-0.9-3.5-1.6c-2.3-0.7-6-0.7-10.2,0.6c-4.2,1.3-8.6,4.3-14.1,6.5
							c-2.7,1.1-5.8,1.9-9,1.7c-3.2-0.2-6.4-1.4-9.4-2.9c-3-1.5-5.9-3.2-8.7-4.6c-2.9-1.3-5.8-2.2-8.7-2.5c-5.8-0.5-11,0.8-15,2.7
							c-4,1.9-6.7,4.3-8.3,6.1c-0.4,0.5-0.8,0.9-1.1,1.2c-0.3,0.4-0.5,0.7-0.7,1c-0.2,0.2-0.3,0.4-0.5,0.6c-0.1,0.1-0.2,0.2-0.2,0.2
							c0,0,0-0.1,0.1-0.2c0.1-0.2,0.2-0.4,0.4-0.6c0.2-0.3,0.4-0.6,0.7-1c0.3-0.4,0.7-0.8,1.1-1.3c1.6-1.8,4.3-4.4,8.3-6.3
							c2-1,4.3-1.8,6.9-2.4c2.6-0.5,5.4-0.8,8.3-0.5c2.9,0.3,6,1.1,8.9,2.5c2.9,1.3,5.7,3,8.7,4.5c3,1.5,6.1,2.7,9.2,2.9
							c3.1,0.2,6.1-0.6,8.8-1.7c5.4-2.2,9.8-5.2,14.1-6.4c4.3-1.3,8-1.3,10.4-0.5c1.2,0.4,2,0.8,2.6,1.2c0.2,0.2,0.4,0.3,0.6,0.4
							C291.4,385.6,291.5,385.6,291.5,385.6z"/>
					</g>
				</g>
				<g>
					<g>
						<path class="st5" d="M334.9,348.7c0,0.1-0.6-0.3-1.8-0.3c-1.2-0.1-2.9,0.3-4.7,1.4c-1.8,1-3.6,2.9-6.1,4.3
							c-1.3,0.7-2.8,1.2-4.4,1.1c-1.6-0.1-3.1-0.7-4.6-1.5c-1.5-0.7-2.8-1.6-4.2-2.1c-1.4-0.6-2.8-1-4.2-1.2c-1.4-0.2-2.7-0.3-4-0.2
							c-1.2,0-2.4,0.2-3.4,0.5c-2.1,0.5-3.7,1.1-4.7,1.7c-1.1,0.5-1.6,0.9-1.6,0.9c0,0,0.1-0.1,0.4-0.3c0.3-0.2,0.6-0.5,1.2-0.7
							c1-0.6,2.6-1.4,4.7-1.9c1-0.3,2.2-0.5,3.5-0.5c1.3-0.1,2.6,0,4.1,0.2c1.4,0.2,2.9,0.6,4.3,1.2c1.5,0.6,2.8,1.4,4.3,2.1
							c1.4,0.7,2.9,1.3,4.4,1.4c1.5,0.1,2.9-0.4,4.1-1c2.4-1.3,4.3-3.2,6.2-4.2c1.9-1.1,3.7-1.5,4.9-1.3c0.6,0.1,1.1,0.2,1.4,0.3
							C334.8,348.6,334.9,348.6,334.9,348.7z"/>
					</g>
				</g>
				<g>
					<g>
						<path class="st5" d="M290.9,335c0,0-0.2,0-0.7-0.1c-0.2,0-0.5-0.1-0.8-0.2c-0.3,0-0.7-0.1-1.1-0.1c-1.7-0.2-4.2-0.1-7.1,0.7
							c-2.9,0.8-6.3,2.4-9.7,4.4c-3.5,2-7.2,4.5-11.6,6.3c-2.2,0.9-4.4,1.6-6.6,1.8c-2.2,0.3-4.4,0.1-6.4-0.4
							c-2-0.5-3.8-1.4-5.4-2.1c-1.6-0.8-3.1-1.6-4.5-2.2c-2.7-1.3-5.2-2-6.9-2.1c-0.8,0-1.5,0-2,0.1c-0.4,0-0.7,0.1-0.7,0
							c0,0,0.2-0.1,0.7-0.1c0.4-0.1,1.1-0.1,2-0.2c1.7,0,4.2,0.6,7,1.9c1.4,0.6,2.9,1.4,4.5,2.2c1.6,0.8,3.4,1.6,5.3,2.1
							c1.9,0.5,4.1,0.7,6.2,0.4c2.2-0.2,4.3-0.9,6.5-1.8c4.3-1.8,8-4.2,11.6-6.2c3.5-2,6.9-3.5,9.9-4.3c3-0.8,5.5-0.8,7.2-0.6
							c0.4,0.1,0.8,0.1,1.1,0.2c0.3,0.1,0.6,0.2,0.8,0.2C290.7,334.9,290.9,335,290.9,335z"/>
					</g>
				</g>
				<g>
					<g>
						<path class="st5" d="M321.9,304.2c0,0-0.4,0.3-1.1,0.6c-0.7,0.4-1.7,0.9-3,1.5c-1.3,0.6-2.9,1.2-4.7,1.6
							c-1.8,0.5-4,0.7-6.1,0.4c-2.2-0.2-4.2-0.7-6-0.9c-1.8-0.3-3.5-0.3-4.9-0.1c-2.8,0.4-4.2,1.7-4.2,1.6c0,0,0.1-0.1,0.2-0.2
							c0.2-0.1,0.4-0.3,0.7-0.5c0.7-0.4,1.8-0.9,3.2-1.1c1.4-0.3,3.2-0.3,5,0c1.9,0.2,3.9,0.7,6,0.9c4.3,0.5,8.1-0.9,10.7-1.9
							c1.3-0.5,2.4-1,3.1-1.3C321.5,304.3,321.9,304.2,321.9,304.2z"/>
					</g>
				</g>
				<g>
					<g>
						<path class="st5" d="M192.6,320.9c0,0.1-0.6-0.4-1.8-0.4c-1.2-0.1-2.9,0.4-4.6,1.7c-0.9,0.6-1.8,1.4-2.8,2.1
							c-1.1,0.7-2.4,1.2-3.8,1.5c-2.9,0.5-6.1,0-9.2-1.1c-3.1-1.1-5.9-2.5-8.5-3.5c-1.3-0.5-2.6-0.8-3.8-1c-1.2-0.2-2.4-0.3-3.4-0.2
							c-2.1,0.1-3.8,0.7-4.8,1.3c-1,0.6-1.5,1.1-1.5,1c0,0,0.1-0.1,0.3-0.4c0.2-0.2,0.6-0.5,1.1-0.8c1-0.7,2.7-1.3,4.9-1.5
							c1.1-0.1,2.3,0,3.5,0.1c1.3,0.2,2.6,0.6,3.9,1c2.7,0.9,5.5,2.3,8.5,3.4c3,1.1,6.2,1.6,8.9,1.1c1.4-0.3,2.6-0.7,3.6-1.4
							c1-0.7,2-1.4,2.9-2c1.8-1.3,3.6-1.7,4.8-1.6c0.6,0,1.1,0.2,1.4,0.4C192.5,320.7,192.6,320.8,192.6,320.9z"/>
					</g>
				</g>
				<g>
					<g>
						<path class="st5" d="M248.9,397.4c0,0,0.1,0.1,0.3,0.3c0.2,0.2,0.5,0.5,0.8,0.9c0.6,0.9,1.4,2.3,1.6,4.1
							c0.3,1.9,0.1,4.3-1.3,6.4c-1.3,2.2-3.6,3.9-4.9,6.3c-0.6,1.2-0.8,2.6-0.5,3.9c0.2,1.3,0.8,2.5,1.3,3.6
							c1.1,2.2,2.1,4.3,2.1,6.3c0,2-1,3.4-1.9,4c-0.4,0.3-0.8,0.5-1.1,0.5c-0.3,0.1-0.4,0.1-0.4,0c0-0.1,0.6-0.1,1.4-0.7
							c0.8-0.6,1.6-2,1.6-3.8c0-1.8-1-3.9-2.1-6.1c-0.5-1.1-1.1-2.3-1.4-3.7c-0.3-1.4-0.1-2.9,0.5-4.2c0.7-1.3,1.6-2.4,2.5-3.4
							c0.9-1,1.8-1.9,2.4-3c1.3-2,1.6-4.3,1.4-6.1c-0.2-1.8-0.9-3.2-1.4-4.1C249.3,397.9,248.9,397.5,248.9,397.4z"/>
					</g>
				</g>
				<g>
					<g>
						<path class="st5" d="M290.8,441.3c0,0-0.1-0.1-0.4-0.3c-0.2-0.2-0.5-0.6-0.8-1.2c-0.5-1.1-0.6-3.1,0.3-5.2
							c0.4-1,1.1-2.1,1.9-3.1c0.9-1,1.9-1.9,2.9-3c1-1,2-2.1,2.8-3.5c0.7-1.3,1.2-2.9,1.3-4.6c0.3-3.3-0.3-6.5-0.4-9.4
							c-0.2-2.9,0-5.6,1-7.7c0.9-2.1,2.2-3.4,3.3-4c0.5-0.3,1-0.5,1.3-0.6c0.3-0.1,0.5-0.1,0.5-0.1c0,0.1-0.7,0.2-1.7,0.9
							c-1,0.7-2.2,2-3.1,4c-0.9,2-1.1,4.6-0.8,7.5c0.2,2.9,0.8,6,0.5,9.4c-0.2,1.7-0.6,3.3-1.4,4.7c-0.8,1.4-1.9,2.6-2.9,3.6
							c-2.1,2-4,3.8-4.8,5.8c-0.9,2-0.9,3.8-0.4,4.9C290.3,440.9,290.9,441.3,290.8,441.3z"/>
					</g>
				</g>
				<g>
					<g>
						<path class="st5" d="M296,454.6c0,0-0.3,0.3-1.1,0.7c-0.8,0.4-2,0.9-3.6,1c-1.6,0.2-3.7,0-5.9-0.7c-2.3-0.6-4.7-1.8-7.2-3.3
							c-2.5-1.4-5.3-3.2-8.5-4.3c-3.2-1.1-7-1.2-10.7-0.4c-3.8,0.8-7.5,2.3-11.4,3.9c-3.9,1.6-7.9,3.4-12.4,4.3
							c-2.2,0.5-4.5,0.6-6.7,0.4c-2.2-0.2-4.3-0.9-6.2-1.8c-3.8-1.9-6.9-4.7-10-6.9c-1.6-1.1-3.1-2.2-4.8-3
							c-0.4-0.2-0.8-0.4-1.2-0.6c-0.4-0.2-0.8-0.3-1.2-0.5c-0.8-0.3-1.7-0.5-2.5-0.7c-3.3-0.8-6.6-0.8-9.4-0.4
							c-2.9,0.4-5.4,1.2-7.5,2.2c-0.5,0.2-1,0.5-1.5,0.8c-0.5,0.2-0.9,0.5-1.3,0.8c-0.4,0.3-0.8,0.5-1.2,0.8c-0.4,0.3-0.7,0.5-1,0.8
							c-0.7,0.5-1.2,1-1.6,1.4c-0.5,0.4-0.8,0.8-1.1,1.1c-0.3,0.3-0.5,0.5-0.7,0.7c-0.2,0.2-0.2,0.2-0.2,0.2c0,0,0.1-0.1,0.2-0.3
							c0.2-0.2,0.4-0.4,0.6-0.8c0.3-0.3,0.6-0.8,1.1-1.2c0.5-0.4,0.9-1,1.6-1.5c0.3-0.3,0.7-0.5,1-0.8c0.4-0.3,0.8-0.5,1.2-0.8
							c0.4-0.3,0.8-0.6,1.3-0.8c0.5-0.3,1-0.6,1.5-0.8c2.1-1,4.7-1.9,7.6-2.3c2.9-0.4,6.2-0.5,9.6,0.3c0.8,0.2,1.7,0.4,2.5,0.7
							c0.4,0.2,0.9,0.3,1.3,0.5c0.4,0.2,0.8,0.4,1.2,0.6c1.7,0.8,3.3,1.9,4.8,3c3.1,2.3,6.2,5,9.9,6.9c1.9,0.9,3.9,1.6,6,1.8
							c2.1,0.2,4.3,0.1,6.5-0.4c4.3-0.9,8.4-2.6,12.3-4.2c3.9-1.6,7.7-3.2,11.5-3.9c3.8-0.8,7.7-0.7,11,0.4c3.3,1.1,6,2.9,8.6,4.3
							c2.5,1.5,4.9,2.7,7.1,3.4c2.2,0.7,4.2,0.9,5.8,0.7c1.6-0.1,2.8-0.6,3.6-0.9C295.6,454.9,296,454.6,296,454.6z"/>
					</g>
				</g>
			</g>
			<g>
				<g>
					<g>
						<g>
							<path class="st7" d="M240.3,287.8L240.3,287.8c11.2,0.6,20.8-7.8,21.7-18.9c0.6-6.6,1-12.2,1-12.2s17-0.4,19.4-17.1
								c2.4-16.7,4.5-55.4,4.5-55.4l0,0c-18.3-10.8-40.9-10.9-59.3-0.2l-2.7,1.6l-4.4,80.4C220,277.4,228.8,287.2,240.3,287.8z"/>
						</g>
					</g>
				</g>
				<g>
					<g>
						<g>
							<g>
								<path class="st8" d="M265.5,228c0-0.2,1.5-0.3,3.8-0.3c0.6,0,1.1-0.1,1.2-0.4c0.2-0.3,0-1-0.2-1.8c-0.4-1.6-0.8-3.2-1.2-4.9
									c-1.6-7-2.7-12.7-2.3-12.8c0.4-0.1,2,5.5,3.6,12.5c0.4,1.7,0.7,3.3,1.1,4.9c0.1,0.7,0.4,1.6,0,2.5c-0.2,0.5-0.8,0.8-1.2,0.8
									c-0.4,0.1-0.8,0-1,0C266.9,228.4,265.5,228.2,265.5,228z"/>
							</g>
						</g>
					</g>
				</g>
				<g>
					<g>
						<g>
							<path class="st9" d="M263.2,256.4c0,0-10.7-0.5-21-9c0,0,3.6,12.7,20.4,13.3L263.2,256.4z"/>
						</g>
					</g>
				</g>
				<g>
					<g>
						<path class="st8" d="M286.8,188.4c0,0-10.5,4.4-23.5-3c-8.5-4.8-18.6-7.5-20.9-5.9c-2.3,1.6-3.3,10.6-12.1,12.8
							c0,0-0.4,17.2-7.2,16.2c-6.8-1-1.1-27.4-1.1-27.4l17.2-7.3l18.5-2.4l17.1,3.4l13.1,4.4L286.8,188.4z"/>
					</g>
				</g>
				<g>
					<g>
						<g>
							<g>
								<path class="st7" d="M224.8,203c-0.3-0.2-11-4.9-12.1,6.6c-1.1,11.5,10.6,10.2,10.7,9.9C223.4,219.2,224.8,203,224.8,203z"
									/>
							</g>
						</g>
					</g>
					<g>
						<g>
							<g>
								<g>
									<path class="st9" d="M220.3,214.8c0,0-0.2,0.1-0.6,0.2c-0.3,0.1-0.9,0.2-1.5-0.1c-1.2-0.6-2-2.6-1.9-4.7
										c0.1-1,0.4-2,0.8-2.8c0.4-0.8,1-1.3,1.7-1.4c0.6-0.1,1,0.3,1.1,0.7c0.1,0.3,0,0.6,0.1,0.6c0,0,0.3-0.2,0.2-0.7
										c0-0.2-0.1-0.5-0.4-0.8c-0.3-0.3-0.6-0.4-1.1-0.4c-0.9,0-1.8,0.7-2.3,1.6c-0.5,0.9-0.9,2-1,3.1c-0.2,2.3,0.8,4.6,2.4,5.2
										c0.8,0.3,1.5,0.1,1.9-0.1C220.2,215.1,220.3,214.9,220.3,214.8z"/>
								</g>
							</g>
						</g>
					</g>
				</g>
				<g>
					<path class="st8" d="M237.9,181.3c-2.3,2.5-4.7,5-7.6,6.8c-2.9,1.8-6.5,2.8-9.8,2.1c-3.3-0.8-6.3-3.7-6.4-7.1
						c-0.1-3.4,3.2-6.8,6.6-6c-2.3,0-4.2-2.5-3.5-4.7c0.7-2.2,3.8-3.1,5.6-1.7c-2.9-0.5-3.2-5.2-0.9-7c2.3-1.8,5.7-1.4,8.4-0.3
						c2.7,1.1,5.3,2.8,8.1,3.5c4.5,1,9.2-0.9,13.2-3.2c4-2.3,7.8-5.2,12.3-6.4c5.5-1.5,11.4-0.4,16.7,1.8c4.4,1.8,8.5,4.5,11.3,8.3
						c2.8,3.8,4.2,8.8,3,13.4c-1.3,4.6-5.5,8.3-10.2,8.3c0,0-10.6,1.1-19.3-5.3c-8.6-6.4-26.8-5.6-26.8-5.6L237.9,181.3z"/>
				</g>
				<g>
					<g>
						<path class="st10" d="M222,168c0,0,0.2,0.2,0.7,0.5c0.4,0.3,1.1,0.7,2.1,1.3c1.8,1,4.6,2.3,8.3,3.3c3.6,1,8.2,1.6,13.2,1.3
							c5-0.3,10.3-1.9,15.8-3.3c5.5-1.3,10.9-2,15.6-0.9c4.7,1.1,8.4,3.9,10,7.1c1.6,3.2,1.5,6.4,0.9,8.3c-0.6,2-1.4,2.8-1.3,2.9
							c0,0,0.2-0.2,0.6-0.6c0.3-0.5,0.8-1.1,1.2-2.1c0.8-2,1.1-5.3-0.5-8.9c-1.7-3.5-5.6-6.6-10.5-7.8c-5-1.3-10.6-0.6-16.2,0.8
							c-5.6,1.4-10.7,3-15.6,3.4c-4.9,0.4-9.3-0.1-12.9-1C225.9,170.5,222.1,167.7,222,168z"/>
					</g>
				</g>
				<g>
					<g>
						<path class="st10" d="M216.8,185.7c-0.1,0.1,0.2,1.2,1.5,2.6c1.2,1.4,3.4,3,6.3,3.7c2.9,0.6,5.5,0,7.2-0.7
							c1.7-0.8,2.5-1.7,2.4-1.8c-0.1-0.2-1.1,0.4-2.7,1c-1.7,0.5-4.1,0.9-6.7,0.4c-2.6-0.6-4.6-1.9-5.9-3.1
							C217.6,186.5,217,185.6,216.8,185.7z"/>
					</g>
				</g>
				<g>
					<g>
						<path class="st10" d="M220.4,180c-0.3,0.1,0.6,2.2,2.8,3.7c2.2,1.5,4.5,1.6,4.5,1.3c0.1-0.3-1.8-0.9-3.8-2.3
							C221.9,181.4,220.7,179.8,220.4,180z"/>
					</g>
				</g>
				<g>
					<g>
						<path class="st8" d="M292.4,196c0.2,0,0.5-0.5,0.6-1.6c0.1-1-0.1-2.5-1-3.9c-0.9-1.4-2.1-2.2-3.1-2.5c-1-0.3-1.6-0.3-1.6-0.1
							c-0.1,0.3,2.3,1,3.7,3.3C292.4,193.6,292.1,196,292.4,196z"/>
					</g>
				</g>
				<g>
					<g>
						<path class="st10" d="M298.4,179.6c-0.3-0.1-1.6,2.9-4.6,5.4c-3,2.6-6.2,3.3-6.1,3.7c0,0.3,3.6,0.1,6.9-2.7
							C297.8,183.1,298.7,179.6,298.4,179.6z"/>
					</g>
				</g>
				<g>
					<g>
						<g>
							<path class="st8" d="M281,209.5c-0.1,1.4-1.4,2.4-2.8,2.3c-1.4-0.1-2.5-1.3-2.3-2.7c0.1-1.4,1.4-2.4,2.8-2.3
								C280.1,207,281.1,208.2,281,209.5z"/>
						</g>
					</g>
					<g>
						<g>
							<g>
								<path class="st8" d="M283,209.3c-0.4,0.3-2.1-1.4-4.9-1.7c-2.7-0.4-5,0.8-5.2,0.4c-0.1-0.2,0.3-0.7,1.2-1.3
									c0.9-0.5,2.5-1,4.2-0.7c1.7,0.2,3.1,1.1,3.8,1.8C283,208.5,283.2,209.2,283,209.3z"/>
							</g>
						</g>
					</g>
				</g>
				<g>
					<g>
						<g>
							<path class="st8" d="M255.9,206.1c-0.1,1.4-1.4,2.4-2.8,2.3c-1.4-0.1-2.5-1.3-2.3-2.7c0.1-1.4,1.4-2.4,2.8-2.3
								C255,203.5,256.1,204.7,255.9,206.1z"/>
						</g>
					</g>
					<g>
						<g>
							<g>
								<path class="st8" d="M257.7,206c-0.4,0.3-2.1-1.4-4.9-1.7c-2.7-0.4-5,0.8-5.2,0.4c-0.1-0.2,0.3-0.7,1.2-1.3
									c0.9-0.5,2.5-1,4.2-0.7c1.7,0.2,3.1,1.1,3.8,1.8C257.7,205.2,257.9,205.9,257.7,206z"/>
							</g>
						</g>
					</g>
				</g>
				<g>
					<g>
						<path class="st8" d="M256.7,198.4c-0.5,0.5-2.6-1-5.4-1.3c-2.8-0.3-5.1,0.7-5.5,0.1c-0.2-0.3,0.2-1,1.2-1.7
							c1-0.7,2.7-1.2,4.6-1c1.9,0.2,3.5,1.1,4.3,2C256.7,197.4,256.9,198.2,256.7,198.4z"/>
					</g>
				</g>
				<g>
					<g>
						<path class="st8" d="M282.8,203c0.1,0.3-0.4,0.9-1.4,1.3c-1,0.4-2.5,0.7-4.2,0.4c-1.6-0.3-3-1-3.8-1.7
							c-0.8-0.7-1.1-1.4-0.9-1.7c0.5-0.6,2.5,0.4,5.1,0.8C280.3,202.6,282.5,202.3,282.8,203z"/>
					</g>
				</g>
				<g>
					<g>
						<path class="st8" d="M263.4,232.6c0.3,0,0.5,0.5,0.5,1.2c0,0.6-0.3,1.1-0.6,1.1c-0.3,0-0.5-0.5-0.5-1.2
							C262.8,233,263.1,232.6,263.4,232.6z"/>
					</g>
				</g>
				<g>
					<g>
						<path class="st10" d="M222.8,223.9c0,0,0,0.3-0.2,0.7c-0.2,0.4-0.7,0.9-1.5,1.3c-0.7,0.4-1.8,0.6-2.9,0.2
							c-1.1-0.4-2.1-1.3-2.5-2.6c-0.4-1.3-0.2-2.6,0.4-3.6c0.5-1,1.4-1.6,2.2-2c0.8-0.3,1.5-0.4,1.9-0.4c0.5,0,0.7,0.1,0.7,0.1
							c0,0.1-1-0.1-2.5,0.6c-0.7,0.3-1.4,0.9-1.9,1.9c-0.5,0.9-0.7,2.1-0.3,3.2c0.4,1.1,1.3,1.9,2.2,2.3c0.9,0.4,1.9,0.3,2.6-0.1
							C222.3,224.9,222.7,223.8,222.8,223.9z"/>
					</g>
				</g>
			</g>
		</g>
		<g>
			<g>
				<g>
					<path class="st7" d="M233.8,292.4c0,0,5.6-7.9,9.1-12.3c4.2-5.4,6.8-10,6.8-12.5c0-2.5,0-13.3,0-13.3s5.3-1.3,6,4.8
						c0.8,6,0,7.5,0,7.5s22.2-15,23.7-13.9c2.6,1.9-2.4,5.9-2.4,5.9l-13.5,12.2l7.7-2.4c1.9-0.6,3.9,0.4,4.5,2.3l0,0
						c0.5,1.5,0,3.2-1.4,4.1l-4.6,4l2.3-0.9c1.7-0.7,3.6,0,4.5,1.7l0,0c0.7,1.3,0.4,2.9-0.6,4l-4.2,4.4l1.9-1
						c1.3-0.7,2.8-0.2,3.5,1.1l0,0c0.5,1.1,0.2,2.4-0.7,3.1l-24.9,19.7L233.8,292.4z"/>
				</g>
				<g>
					<g>
						<path class="st9" d="M251.7,310.7c0,0-0.1-0.1-0.3-0.3c-0.2-0.2-0.5-0.5-0.9-0.9c-0.8-0.8-2-2-3.5-3.6
							c-3.1-3.1-7.6-7.7-13.2-13.4l-0.1-0.1l0.1-0.1c1.6-2.3,3.4-4.8,5.3-7.4c1-1.3,2-2.6,3-4c1.1-1.4,2.1-2.7,3.2-4.2
							c1-1.5,2-3,2.9-4.7c0.8-1.7,1.6-3.5,1.4-5.4c0-3.9,0-8,0-12.3l0-0.2l0.2,0c1.3-0.3,2.8-0.1,4,0.7c0.6,0.4,1.1,0.9,1.5,1.5
							c0.3,0.6,0.6,1.3,0.7,2c0.3,1.4,0.4,2.7,0.5,4.2c0,0.7,0,1.4,0,2.1c0,0.7-0.1,1.4-0.3,2.2l-0.4-0.3c3.4-2.3,7-4.6,10.7-6.9
							c1.8-1.2,3.7-2.3,5.6-3.4c1.9-1.1,3.8-2.3,5.9-3.2c0.3-0.1,0.6-0.2,0.9-0.3c0.2,0,0.3-0.1,0.5-0.1c0.1,0,0.2,0,0.3,0
							c0.2,0.1,0.2,0.1,0.3,0.2c0.5,0.4,0.8,1.1,0.8,1.8c-0.2,1.3-1,2.2-1.8,3.1c-0.8,0.9-1.7,1.6-2.6,2.4c-0.8,0.8-1.7,1.5-2.5,2.3
							c-3.4,3-6.7,6-9.9,8.9l-0.2-0.4c1.5-0.5,3-1,4.5-1.4c0.7-0.2,1.5-0.5,2.2-0.7c0.4-0.1,0.7-0.2,1.1-0.3
							c0.4-0.1,0.8-0.2,1.2-0.1c1.6,0.1,3.1,1.3,3.5,2.8c0.4,1.6-0.2,3.3-1.5,4.2l0,0c-1.6,1.3-3.1,2.7-4.6,3.9l-0.2-0.4
							c0.8-0.3,1.5-0.6,2.2-0.9c0.8-0.3,1.7-0.4,2.5-0.2c1.6,0.4,2.8,2,2.7,3.6c0,0.8-0.3,1.6-0.8,2.2c-0.5,0.6-1,1.1-1.5,1.6
							c-1,1.1-2,2.1-2.9,3.1l-0.2-0.3c0.7-0.4,1.4-0.7,2.1-1.1c0.8-0.4,1.7-0.3,2.4,0.1c0.7,0.4,1.3,1.1,1.4,1.8
							c0.2,0.8,0,1.6-0.5,2.2c-0.2,0.3-0.6,0.5-0.8,0.7c-0.3,0.2-0.6,0.4-0.8,0.7c-0.5,0.4-1.1,0.9-1.6,1.3
							c-1.1,0.8-2.1,1.6-3.1,2.4c-4,3.1-7.4,5.8-10.3,8c-2.8,2.2-5,3.9-6.5,5.1c-0.7,0.6-1.3,1-1.7,1.3
							C251.9,310.5,251.7,310.7,251.7,310.7s0.2-0.2,0.6-0.5c0.4-0.3,1-0.8,1.7-1.4c1.5-1.2,3.7-2.9,6.5-5.2c2.8-2.2,6.2-5,10.2-8.1
							c1-0.8,2-1.6,3.1-2.4c0.5-0.4,1.1-0.8,1.6-1.3c0.3-0.2,0.5-0.4,0.8-0.7c0.3-0.2,0.6-0.4,0.8-0.7c0.4-0.5,0.6-1.2,0.4-1.9
							c-0.1-0.7-0.6-1.3-1.2-1.6c-0.6-0.3-1.4-0.3-2,0c-0.7,0.4-1.4,0.7-2.1,1.1l-1.1,0.6l0.8-0.9c0.9-1,1.9-2,2.9-3.1
							c0.5-0.5,1-1.1,1.5-1.6c0.4-0.6,0.7-1.2,0.7-1.9c0-1.4-1-2.8-2.4-3.2c-0.7-0.2-1.5-0.1-2.2,0.1c-0.7,0.3-1.5,0.6-2.2,0.9
							l-1.3,0.5l1-0.9c1.5-1.3,3-2.6,4.6-4l0,0l0,0c1.1-0.8,1.7-2.3,1.3-3.6c-0.3-1.4-1.6-2.4-3.1-2.5c-0.7-0.1-1.4,0.2-2.2,0.5
							c-0.7,0.2-1.5,0.5-2.2,0.7c-1.5,0.5-3,0.9-4.5,1.4l-1.1,0.4l0.9-0.8c3.2-2.9,6.5-5.9,9.9-8.9c0.8-0.8,1.7-1.5,2.5-2.3
							c0.8-0.8,1.7-1.5,2.5-2.3c0.7-0.8,1.5-1.8,1.6-2.8c0.1-0.5-0.1-1-0.6-1.3c-0.1-0.1-0.3-0.1-0.6,0c-0.3,0.1-0.5,0.2-0.8,0.3
							c-2,0.9-4,2-5.9,3.1c-1.9,1.1-3.8,2.3-5.6,3.4c-3.7,2.3-7.2,4.6-10.6,6.9l-0.6,0.4l0.3-0.7c0.2-0.6,0.3-1.3,0.3-2
							c0-0.7,0-1.4,0-2.1c-0.1-1.4-0.2-2.8-0.4-4.1c-0.1-0.7-0.4-1.3-0.7-1.8c-0.3-0.5-0.8-1-1.3-1.4c-1.1-0.7-2.4-0.8-3.6-0.6
							l0.2-0.2c0,4.2,0,8.3,0,12.3c0,0.5,0,1,0,1.5c-0.1,0.5-0.2,1-0.3,1.5c-0.3,0.9-0.7,1.8-1.1,2.7c-0.9,1.7-1.9,3.3-2.9,4.7
							c-1,1.5-2.1,2.9-3.2,4.2c-1,1.4-2.1,2.7-3,4c-1.9,2.6-3.7,5.1-5.3,7.3l0-0.2c5.6,5.7,10,10.3,13.1,13.5
							c1.5,1.6,2.7,2.8,3.5,3.6c0.4,0.4,0.7,0.7,0.9,1C251.6,310.5,251.7,310.7,251.7,310.7z"/>
					</g>
				</g>
			</g>
			<g>
				<path class="st4" d="M251.7,310.7l-68.1,90c-10.3,13.7-29,18.6-44.5,11.2c-11.3-5.4-19.6-16.8-12.7-40.2l65.3-44.7l39.7-38.3
					L251.7,310.7z"/>
			</g>
			<g>
				<g>
					<path class="st8" d="M139.1,411.8c0,0,0.3,0.1,0.7,0.4c0.5,0.3,1.2,0.6,2.1,1.1c1.9,0.8,4.9,2,8.9,2.4c2,0.2,4.2,0.2,6.7-0.1
						c1.2-0.1,2.5-0.4,3.8-0.7c0.6-0.1,1.3-0.4,2-0.5c0.7-0.2,1.3-0.4,2-0.7c2.7-1,5.5-2.3,8.2-4c2.7-1.7,5.4-3.9,7.7-6.7
						c4.7-5.5,9.5-11.8,14.7-18.5c5.2-6.7,10.7-13.9,16.4-21.5c11.5-15.2,24.1-32,37.2-49.7c0.7-0.9,1.4-1.9,2.1-2.8l0,0.3
						c-7-7.5-13.8-14.9-20.3-22l0.3,0c-13.9,11.5-26.7,22.4-38.4,32.2c-11.6,9.8-22.1,18.3-30.9,25.3c-8.8,7-16,12.4-21,16.1
						c-2.5,1.8-4.4,3.2-5.8,4.2c-0.7,0.5-1.2,0.8-1.5,1.1c-0.3,0.2-0.5,0.3-0.5,0.3s0.2-0.1,0.5-0.4c0.3-0.3,0.8-0.6,1.5-1.1
						c1.3-1,3.2-2.4,5.7-4.2c5-3.7,12.1-9.2,20.9-16.2c8.8-7,19.2-15.6,30.8-25.4c11.6-9.8,24.5-20.7,38.4-32.2l0.2-0.2l0.2,0.2
						c6.6,7.1,13.4,14.4,20.3,22l0.1,0.2l-0.1,0.2c-0.7,0.9-1.4,1.9-2.1,2.8c-13.1,17.7-25.7,34.5-37.2,49.7
						c-5.8,7.6-11.3,14.8-16.5,21.5c-5.2,6.7-10,13-14.7,18.5c-2.3,2.8-5,5-7.8,6.7c-2.7,1.8-5.6,3.1-8.3,4c-0.7,0.3-1.3,0.5-2,0.7
						c-0.7,0.2-1.3,0.4-2,0.5c-1.3,0.3-2.6,0.6-3.8,0.6c-2.4,0.3-4.7,0.2-6.7,0.1c-4-0.4-7-1.7-8.9-2.5c-0.9-0.5-1.6-0.9-2.1-1.2
						C139.3,412,139.1,411.8,139.1,411.8z"/>
				</g>
			</g>
			<g>
				<g>
					<path class="st5" d="M190.8,388.4c0,0.1-0.8-0.6-2.4-1.4c-1.6-0.7-4.2-1.3-7.3-0.9c-1.6,0.2-3.3,0.5-5.1,1.1
						c-1.8,0.5-3.6,1.3-5.6,2.1c-2,0.8-4,1.6-6.3,2.2c-2.2,0.6-4.6,0.9-7.1,0.7c-2.5-0.3-4.8-1-6.9-1.9c-2.1-0.9-4.1-1.9-6-2.8
						c-3.8-1.8-7.5-2.9-10.6-2.7c-3.2,0.1-5.6,1.4-6.9,2.5c-1.4,1.1-1.8,2.1-1.8,2c0,0,0.1-0.2,0.3-0.6c0.3-0.4,0.7-1,1.3-1.6
						c1.3-1.2,3.7-2.5,7-2.7c3.3-0.2,7,0.9,10.9,2.7c1.9,0.9,3.9,1.9,6,2.7c2.1,0.9,4.4,1.6,6.7,1.9c2.4,0.2,4.7-0.1,6.9-0.7
						c2.2-0.6,4.3-1.4,6.2-2.1c2-0.8,3.8-1.5,5.6-2c1.8-0.5,3.5-0.9,5.1-1c3.2-0.3,5.8,0.3,7.4,1.1
						C190.1,387.7,190.8,388.4,190.8,388.4z"/>
				</g>
			</g>
			<g>
				<g>
					<path class="st5" d="M214.8,358.2c-0.1,0,0.4-0.6,0.3-1.8c-0.2-1.1-1.1-2.8-3-3.7c-1-0.4-2.1-0.7-3.3-1
						c-1.2-0.3-2.6-0.6-3.9-1.2c-2.6-1.2-5-3.3-7.3-5.7c-2.2-2.4-4.3-4.8-6.4-6.6c-2.1-1.9-4.4-3.1-6.4-3.7c-2-0.6-3.8-0.6-5-0.3
						c-1.2,0.2-1.8,0.5-1.8,0.4c0,0,0.1-0.1,0.4-0.2c0.3-0.1,0.7-0.3,1.3-0.4c1.2-0.3,3-0.4,5.1,0.2c2.1,0.5,4.5,1.8,6.6,3.7
						c2.2,1.8,4.2,4.2,6.5,6.6c2.2,2.4,4.6,4.4,7.1,5.6c2.5,1.2,5.2,1.3,7.1,2.4c2,1,3,2.8,3,4c0,0.6-0.1,1.1-0.2,1.4
						C215,358.1,214.9,358.3,214.8,358.2z"/>
				</g>
			</g>
		</g>
	</g>
</g>
<g id="Question_Marks">
</g>
<g id="Speech_Bubbles">
	<g>
		<g>
			<g>
				<g>
					<path class="st8" d="M336.4,139.5c0,0,0.2,0,0.4,0.1c0.1,0,0.3,0.1,0.5,0.2c0.2,0.1,0.4,0.2,0.6,0.3c0.9,0.5,2.2,1.7,3,3.5
						c0.4,0.9,0.6,2,0.5,3.2c-0.1,1.2-0.5,2.4-1.3,3.5c-0.8,1.1-1.9,2-3.3,2.5c-1.3,0.6-2.9,0.7-4.4,0.3c-1.5-0.4-2.8-1.3-3.7-2.5
						c-0.9-1.1-1.5-2.5-1.6-3.8c-0.2-1.3,0.1-2.6,0.6-3.7c0.5-1.1,1.3-1.9,2-2.5c1.6-1.2,3.2-1.6,4.3-1.6c0.3,0,0.5,0,0.7,0
						c0.2,0,0.4,0,0.5,0.1c0.3,0.1,0.4,0.1,0.4,0.1c0,0.1-0.6-0.1-1.7,0c-1.1,0.1-2.6,0.5-4.1,1.7c-0.7,0.6-1.4,1.4-1.9,2.4
						c-0.5,1-0.7,2.2-0.5,3.4c0.3,2.4,2.2,5,4.9,5.8c2.8,0.7,5.7-0.7,7.2-2.6c0.8-1,1.2-2.1,1.3-3.2c0.1-1.1-0.1-2.1-0.5-3
						c-0.7-1.8-1.9-2.9-2.7-3.5C337,139.7,336.4,139.6,336.4,139.5z"/>
				</g>
			</g>
			<g>
				<g>
					<path class="st8" d="M315.6,157.3c0,0,0.4,0,1,0.4c0.6,0.3,1.4,1.1,1.9,2.2c0.2,0.6,0.4,1.3,0.4,2c-0.1,0.8-0.3,1.6-0.8,2.2
						c-1,1.4-3,2.3-4.9,1.8c-2-0.5-3.2-2.3-3.4-4c-0.1-0.8,0-1.7,0.4-2.4c0.3-0.7,0.8-1.2,1.3-1.6c1-0.8,2.1-1,2.8-1
						c0.7,0,1.1,0.2,1.1,0.2c0,0-0.4,0-1.1,0c-0.7,0.1-1.6,0.3-2.5,1.1c-0.9,0.7-1.7,2.1-1.5,3.6c0.2,1.5,1.3,3.1,3,3.6
						c1.7,0.4,3.5-0.4,4.4-1.6c1-1.2,0.9-2.8,0.5-3.9c-0.4-1.1-1.1-1.8-1.7-2.2C316,157.5,315.6,157.4,315.6,157.3z"/>
				</g>
			</g>
			<g>
				<g>
					<path class="st8" d="M345.9,109c0,0,0-0.3,0.1-0.8c0.1-0.6,0.2-1.4,0.4-2.4c0.1-0.5,0.2-1.1,0.3-1.8c0.1-0.7,0.4-1.4,0.6-2.1
						c0.2-0.8,0.4-1.6,0.7-2.5c0.1-0.4,0.3-0.9,0.5-1.3c0.2-0.5,0.4-0.9,0.5-1.4c1.4-3.9,3.8-8.4,7.3-13.1
						c3.6-4.7,8.5-9.4,14.9-13.1c0.8-0.5,1.6-0.9,2.4-1.4c0.8-0.4,1.7-0.8,2.6-1.2c0.9-0.4,1.8-0.9,2.7-1.2c0.9-0.3,1.9-0.6,2.8-1
						c0.5-0.2,1-0.3,1.4-0.5c0.5-0.1,1-0.2,1.5-0.4c1-0.2,2-0.5,3-0.7c1-0.2,2.1-0.3,3.1-0.5c1.1-0.1,2.1-0.4,3.2-0.3
						c2.2,0,4.4-0.2,6.6,0c1.1,0.1,2.3,0.1,3.4,0.3c1.1,0.2,2.3,0.4,3.4,0.6c0.6,0.1,1.2,0.2,1.7,0.3c0.6,0.2,1.1,0.3,1.7,0.5
						c1.1,0.3,2.3,0.6,3.4,1c2.2,0.9,4.5,1.6,6.7,2.9c0.5,0.3,1.1,0.6,1.6,0.8c0.3,0.1,0.6,0.3,0.8,0.4l0.8,0.5c1,0.7,2.1,1.3,3.2,2
						c1,0.7,2,1.5,3,2.3c0.5,0.4,1,0.8,1.5,1.2l1.4,1.3c1.9,1.7,3.6,3.7,5.3,5.7c0.8,1.1,1.5,2.1,2.3,3.2l0.6,0.8l0.5,0.9l1,1.7
						l1,1.7l0.8,1.8l0.8,1.8L446,96c0.1,0.3,0.2,0.6,0.3,1c0.4,1.3,0.9,2.6,1.3,3.9c0.3,1.3,0.6,2.7,0.9,4c1.1,5.4,1.3,11,0.7,16.7
						c-0.8,5.6-2.3,11-4.7,16c-0.6,1.2-1.3,2.4-1.9,3.7c-0.7,1.2-1.5,2.3-2.2,3.4l-0.6,0.9l-0.6,0.8l-1.3,1.6l-1.3,1.6l-1.4,1.4
						l-1.4,1.4l-0.7,0.7l-0.8,0.6c-1,0.9-2,1.7-3,2.6c-2.1,1.5-4.2,3.1-6.5,4.3l-1.7,1c-0.6,0.3-1.2,0.5-1.7,0.8
						c-1.2,0.5-2.3,1.1-3.5,1.5c-1.2,0.4-2.4,0.8-3.5,1.2l-0.9,0.3c-0.3,0.1-0.6,0.1-0.9,0.2c-0.6,0.1-1.2,0.3-1.8,0.4
						c-2.4,0.7-4.8,0.8-7.2,1.2c-1.2,0.1-2.4,0.1-3.6,0.1c-0.6,0-1.2,0-1.8,0.1c-0.6,0-1.2-0.1-1.7-0.1c-1.2-0.1-2.3-0.2-3.4-0.2
						c-1.1-0.1-2.2-0.4-3.4-0.5c-2.2-0.3-4.3-1-6.4-1.6c-1.1-0.2-2-0.7-3-1.1c-1-0.4-2-0.7-2.9-1.2c-0.9-0.5-1.9-1-2.8-1.4
						c-0.5-0.2-0.9-0.5-1.4-0.7c-0.4-0.3-0.9-0.5-1.3-0.8c-0.8-0.5-1.7-1.1-2.5-1.6c-0.8-0.5-1.6-1.2-2.3-1.8
						c-0.8-0.6-1.5-1.2-2.2-1.8c-0.7-0.7-1.4-1.3-2-1.9c-5.3-5.2-8.9-10.9-11.3-16.3c-2.3-5.4-3.6-10.4-4-14.5
						c-0.1-0.5-0.1-1-0.2-1.5c-0.1-0.5-0.1-1-0.1-1.4c0-0.9,0-1.8-0.1-2.6c0-0.8-0.1-1.5,0-2.2c0.1-0.7,0.1-1.3,0.1-1.8
						c0.1-1.1,0.2-1.9,0.2-2.5C345.9,109.3,345.9,109,345.9,109s0,0.3,0,0.8c0,0.6-0.1,1.4-0.1,2.5c0,0.5-0.1,1.1-0.1,1.8
						c0,0.7,0,1.4,0.1,2.2c0,0.8,0.1,1.6,0.1,2.6c0,0.5,0.1,0.9,0.1,1.4c0.1,0.5,0.1,1,0.2,1.5c0.4,4.1,1.7,9,4,14.4
						c2.4,5.3,6,11,11.3,16.2c0.7,0.6,1.3,1.3,2,1.9c0.7,0.6,1.5,1.2,2.2,1.8c0.8,0.6,1.5,1.2,2.3,1.8c0.8,0.5,1.7,1.1,2.5,1.6
						c0.4,0.3,0.8,0.5,1.3,0.8c0.5,0.2,0.9,0.5,1.4,0.7c0.9,0.5,1.8,0.9,2.8,1.4c0.9,0.4,1.9,0.8,2.9,1.2c1,0.4,2,0.8,3,1.1
						c2.1,0.6,4.2,1.3,6.4,1.5c1.1,0.2,2.2,0.4,3.3,0.5c1.1,0.1,2.3,0.2,3.4,0.2c0.6,0,1.1,0.1,1.7,0.1c0.6,0,1.2,0,1.7-0.1
						c1.2-0.1,2.3,0,3.5-0.1c2.3-0.3,4.7-0.5,7.1-1.2c0.6-0.1,1.2-0.3,1.8-0.4c0.3-0.1,0.6-0.1,0.9-0.2l0.9-0.3
						c1.2-0.4,2.3-0.8,3.5-1.2c1.2-0.5,2.3-1,3.4-1.5c0.6-0.3,1.2-0.5,1.7-0.8l1.6-0.9c2.3-1.2,4.3-2.7,6.4-4.2c1-0.8,2-1.7,3-2.6
						l0.7-0.6l0.7-0.7l1.4-1.4l1.4-1.4l1.2-1.6l1.2-1.6l0.6-0.8l0.5-0.8c0.7-1.1,1.5-2.3,2.2-3.4c0.6-1.2,1.2-2.4,1.9-3.6
						c2.3-4.9,3.9-10.3,4.6-15.9c0.6-5.6,0.4-11.1-0.7-16.5c-0.3-1.3-0.6-2.6-0.9-4c-0.4-1.3-0.9-2.6-1.3-3.8
						c-0.1-0.3-0.2-0.6-0.3-1l-0.4-0.9l-0.8-1.8l-0.8-1.8l-1-1.7l-1-1.7l-0.5-0.9l-0.6-0.8c-0.8-1.1-1.5-2.1-2.3-3.2
						c-1.7-2-3.3-4-5.2-5.7l-1.4-1.3c-0.5-0.4-1-0.8-1.5-1.2c-1-0.8-1.9-1.6-3-2.3c-1-0.7-2.1-1.3-3.1-2l-0.8-0.5
						c-0.3-0.2-0.5-0.3-0.8-0.4c-0.5-0.3-1.1-0.6-1.6-0.8c-2.1-1.2-4.4-1.9-6.6-2.8c-1.1-0.4-2.3-0.7-3.4-1
						c-0.6-0.2-1.1-0.3-1.7-0.5c-0.6-0.1-1.1-0.2-1.7-0.3c-1.1-0.2-2.3-0.4-3.4-0.6c-1.1-0.2-2.2-0.2-3.4-0.3
						c-2.2-0.3-4.4-0.1-6.6,0c-1.1,0-2.1,0.2-3.2,0.3c-1,0.2-2.1,0.2-3.1,0.4c-1,0.2-2,0.5-3,0.7c-0.5,0.1-1,0.2-1.5,0.3
						c-0.5,0.1-1,0.3-1.4,0.5c-0.9,0.3-1.9,0.6-2.8,1c-0.9,0.3-1.8,0.8-2.7,1.1c-0.9,0.4-1.8,0.8-2.6,1.2c-0.8,0.5-1.6,0.9-2.4,1.4
						c-6.4,3.7-11.3,8.4-14.8,13c-3.5,4.6-6,9.1-7.4,13c-0.2,0.5-0.4,0.9-0.6,1.4c-0.2,0.4-0.4,0.9-0.5,1.3
						c-0.2,0.9-0.5,1.7-0.7,2.5c-0.2,0.8-0.4,1.5-0.6,2.1c-0.1,0.7-0.2,1.3-0.3,1.8c-0.2,1.1-0.3,1.9-0.4,2.4
						C346,108.7,345.9,109,345.9,109z"/>
				</g>
			</g>
		</g>
	</g>
	<g>
		<g>
			<g>
				<path class="st8" d="M188.9,126.1c0,0.1-0.6,0.1-1.6,0.6c-0.9,0.5-2.2,1.5-3.1,3.1c-0.4,0.8-0.8,1.8-0.8,3
					c0,1.1,0.2,2.3,0.9,3.4c1.2,2.1,3.9,3.8,6.8,3.5c2.9-0.4,5-2.8,5.6-5.2c0.3-1.2,0.3-2.4-0.1-3.5c-0.3-1.1-0.9-1.9-1.6-2.6
					c-1.3-1.4-2.8-2-3.9-2.2c-1.1-0.2-1.7-0.1-1.7-0.2c0,0,0.1,0,0.4-0.1c0.1,0,0.3,0,0.5,0c0.2,0,0.5,0,0.7,0.1
					c1.1,0.1,2.7,0.7,4.1,2.1c0.7,0.7,1.3,1.6,1.7,2.7c0.4,1.1,0.5,2.4,0.1,3.7c-0.3,1.3-1,2.6-2.1,3.6c-1,1-2.4,1.8-3.9,2
					c-1.5,0.2-3.1-0.2-4.3-0.9c-1.3-0.7-2.3-1.7-3-2.9c-0.7-1.1-0.9-2.4-0.9-3.6c0.1-1.2,0.4-2.2,0.9-3.1c1-1.7,2.4-2.7,3.4-3.2
					c0.2-0.1,0.5-0.2,0.7-0.3c0.2-0.1,0.4-0.1,0.5-0.1C188.7,126.1,188.9,126.1,188.9,126.1z"/>
			</g>
		</g>
		<g>
			<g>
				<path class="st8" d="M207.9,142.2c0,0-0.4,0.1-1,0.4c-0.6,0.3-1.4,0.9-1.9,2c-0.6,1-0.8,2.6,0.1,3.9c0.8,1.3,2.4,2.4,4.2,2.1
					c1.8-0.3,3.1-1.7,3.5-3.2c0.4-1.5-0.2-2.9-1-3.8c-0.8-0.9-1.7-1.2-2.4-1.4c-0.7-0.1-1-0.1-1-0.1c0,0,0.4-0.1,1.1-0.1
					c0.7,0.1,1.7,0.4,2.6,1.3c0.4,0.4,0.9,1,1.1,1.7c0.2,0.7,0.3,1.6,0.1,2.4c-0.4,1.6-1.8,3.3-3.9,3.6c-2,0.3-3.8-0.9-4.7-2.4
					c-0.4-0.7-0.6-1.6-0.6-2.3c0-0.8,0.3-1.4,0.6-2c0.6-1.1,1.5-1.7,2.2-2C207.5,142.2,207.9,142.2,207.9,142.2z"/>
			</g>
		</g>
		<g>
			<g>
				<g>
					<path class="st8" d="M183.2,90.4c0,0,0-0.3-0.1-0.9c0-0.6-0.1-1.5-0.2-2.7c0-0.6-0.1-1.2-0.1-2c-0.1-0.7-0.2-1.5-0.4-2.3
						c-0.1-0.8-0.3-1.8-0.4-2.7c-0.1-0.5-0.2-1-0.3-1.5c-0.1-0.5-0.3-1-0.4-1.6c-1-4.3-3-9.5-6.2-14.9c-3.2-5.4-7.9-11.1-14.2-15.9
						c-0.8-0.6-1.6-1.2-2.4-1.8c-0.8-0.6-1.7-1.1-2.6-1.6c-0.4-0.3-0.9-0.5-1.3-0.8c-0.4-0.3-0.9-0.6-1.4-0.8
						c-1-0.5-1.9-0.9-2.9-1.4c-0.5-0.2-1-0.5-1.5-0.7c-0.5-0.2-1-0.4-1.6-0.6c-1-0.4-2.1-0.8-3.1-1.1c-1.1-0.4-2.2-0.6-3.3-0.9
						c-0.6-0.1-1.1-0.3-1.7-0.4c-0.3-0.1-0.6-0.2-0.8-0.2l-0.9-0.1c-2.3-0.3-4.6-0.8-7.1-0.8c-1.2,0-2.4-0.2-3.6-0.1
						c-1.2,0.1-2.5,0.1-3.7,0.2c-0.6,0-1.2,0-1.9,0.1c-0.6,0.1-1.2,0.2-1.9,0.3c-1.2,0.2-2.5,0.4-3.8,0.6c-2.5,0.7-5,1.2-7.5,2.2
						c-0.6,0.2-1.2,0.5-1.9,0.7c-0.3,0.1-0.6,0.2-0.9,0.3l-0.9,0.4c-1.2,0.6-2.4,1.2-3.6,1.7c-1.2,0.6-2.3,1.4-3.5,2.1
						c-0.6,0.4-1.2,0.7-1.7,1.1l-1.6,1.2c-2.3,1.6-4.3,3.5-6.3,5.4c-0.9,1-1.9,2.1-2.8,3.1l-0.7,0.8c-0.2,0.3-0.4,0.6-0.6,0.8
						L82,57.4l-1.3,1.7l-1.1,1.8l-1.1,1.9l-0.6,0.9c-0.2,0.3-0.3,0.7-0.5,1c-0.6,1.3-1.3,2.6-1.9,3.9c-0.5,1.4-1,2.8-1.5,4.1
						c-1.8,5.6-2.8,11.6-2.9,17.6c0.1,6.1,1.1,12,2.9,17.6c0.5,1.4,1,2.8,1.5,4.1c0.6,1.3,1.3,2.6,1.9,3.9l0.5,1l0.6,0.9l1.1,1.9
						l1.1,1.8l1.3,1.7l1.3,1.7l0.6,0.9l0.7,0.8c1,1,1.9,2.1,2.8,3.1c2.1,1.9,4.1,3.8,6.3,5.4l1.6,1.2c0.5,0.4,1.2,0.7,1.7,1.1
						c1.2,0.7,2.3,1.4,3.5,2.1c1.2,0.6,2.4,1.2,3.6,1.7l0.9,0.4c0.3,0.1,0.6,0.2,0.9,0.3c0.6,0.2,1.2,0.5,1.9,0.7
						c2.4,1,5,1.5,7.5,2.2c1.3,0.3,2.5,0.4,3.8,0.6c0.6,0.1,1.2,0.2,1.9,0.3c0.6,0.1,1.2,0.1,1.9,0.1c1.2,0.1,2.5,0.1,3.7,0.2
						c1.2,0,2.4-0.1,3.6-0.1c2.4,0,4.8-0.5,7.1-0.8l0.9-0.1c0.3-0.1,0.6-0.1,0.8-0.2c0.6-0.1,1.1-0.3,1.7-0.4
						c1.1-0.3,2.2-0.5,3.3-0.9c1.1-0.4,2.1-0.8,3.1-1.1c0.5-0.2,1-0.4,1.6-0.6c0.5-0.2,1-0.5,1.5-0.7c1-0.5,1.9-0.9,2.9-1.4
						c0.5-0.2,0.9-0.5,1.4-0.8c0.4-0.3,0.9-0.5,1.3-0.8c0.9-0.5,1.8-1.1,2.6-1.6c0.8-0.6,1.6-1.2,2.4-1.8c6.3-4.8,11-10.5,14.2-15.9
						c0.4-0.7,0.8-1.3,1.2-2c0.3-0.7,0.7-1.4,1-2c0.3-0.7,0.6-1.3,0.9-1.9c0.1-0.3,0.3-0.6,0.4-0.9c0.1-0.3,0.2-0.6,0.4-1
						c0.5-1.3,0.9-2.5,1.3-3.6c0.4-1.2,0.6-2.3,0.9-3.4c0.1-0.5,0.3-1.1,0.4-1.6c0.1-0.5,0.3-1,0.3-1.5c0.2-1,0.3-1.9,0.4-2.7
						c0.1-0.8,0.3-1.6,0.4-2.3c0-0.7,0.1-1.4,0.1-2c0.1-1.2,0.1-2.1,0.2-2.7C183.1,90.7,183.2,90.4,183.2,90.4s0,0.3,0,0.9
						c0,0.6-0.1,1.5-0.1,2.7c0,0.6-0.1,1.2-0.1,2c-0.1,0.7-0.2,1.5-0.3,2.4c-0.1,0.9-0.3,1.8-0.4,2.7c-0.1,0.5-0.2,1-0.3,1.5
						c-0.1,0.5-0.3,1-0.4,1.6c-0.3,1.1-0.5,2.2-0.9,3.4c-0.4,1.2-0.9,2.4-1.3,3.7c-0.1,0.3-0.2,0.6-0.4,1c-0.1,0.3-0.3,0.6-0.4,1
						c-0.3,0.6-0.6,1.3-0.9,2c-0.3,0.7-0.6,1.3-1,2c-0.4,0.7-0.8,1.3-1.2,2c-3.2,5.5-7.9,11.2-14.3,16c-0.8,0.6-1.6,1.2-2.4,1.8
						c-0.9,0.6-1.8,1.1-2.6,1.6c-0.4,0.3-0.9,0.5-1.3,0.8c-0.5,0.3-0.9,0.6-1.4,0.8c-1,0.5-1.9,0.9-2.9,1.4c-0.5,0.2-1,0.5-1.5,0.7
						c-0.5,0.2-1,0.4-1.6,0.6c-1,0.4-2.1,0.8-3.2,1.2c-1.1,0.4-2.2,0.6-3.3,0.9c-0.6,0.1-1.1,0.3-1.7,0.4c-0.3,0.1-0.6,0.2-0.9,0.2
						l-0.9,0.1c-2.3,0.3-4.7,0.8-7.1,0.8c-1.2,0-2.4,0.2-3.7,0.1c-1.2-0.1-2.5-0.1-3.7-0.2c-0.6,0-1.3,0-1.9-0.1
						c-0.6-0.1-1.3-0.2-1.9-0.3c-1.3-0.2-2.5-0.4-3.8-0.6c-2.5-0.7-5.1-1.2-7.5-2.2c-0.6-0.2-1.2-0.5-1.9-0.7
						c-0.3-0.1-0.6-0.2-0.9-0.4l-0.9-0.4c-1.2-0.6-2.4-1.2-3.6-1.8c-1.2-0.6-2.3-1.4-3.5-2.1c-0.6-0.4-1.2-0.7-1.7-1.1l-1.7-1.2
						c-2.3-1.6-4.3-3.5-6.4-5.4c-1-1-1.9-2.1-2.9-3.2l-0.7-0.8l-0.6-0.9l-1.3-1.7l-1.3-1.7l-1.1-1.9l-1.1-1.9l-0.6-0.9l-0.5-1
						c-0.6-1.3-1.3-2.6-1.9-4c-0.5-1.4-1-2.8-1.5-4.2c-1.8-5.7-2.8-11.7-2.9-17.8c0.1-6.1,1.1-12.1,2.9-17.8c0.5-1.4,1-2.8,1.5-4.2
						c0.6-1.3,1.3-2.7,1.9-4c0.2-0.3,0.3-0.7,0.5-1l0.6-0.9l1.1-1.9l1.1-1.9l1.3-1.7l1.3-1.7c0.2-0.3,0.4-0.6,0.6-0.9l0.7-0.8
						c1-1.1,1.9-2.1,2.9-3.2c2.1-1.9,4.1-3.9,6.4-5.4l1.7-1.2c0.6-0.4,1.2-0.7,1.7-1.1c1.2-0.7,2.3-1.4,3.5-2.1
						c1.2-0.6,2.4-1.2,3.6-1.8l0.9-0.4c0.3-0.1,0.6-0.2,0.9-0.4c0.6-0.2,1.2-0.5,1.9-0.7c2.5-1,5-1.5,7.5-2.2
						c1.3-0.3,2.5-0.4,3.8-0.6c0.6-0.1,1.3-0.2,1.9-0.3c0.6-0.1,1.3-0.1,1.9-0.1c1.3-0.1,2.5-0.1,3.7-0.2c1.2,0,2.5,0.1,3.7,0.1
						c2.4,0,4.8,0.5,7.1,0.8l0.9,0.1c0.3,0.1,0.6,0.1,0.9,0.2c0.6,0.1,1.1,0.3,1.7,0.4c1.1,0.3,2.2,0.5,3.3,0.9
						c1.1,0.4,2.1,0.8,3.2,1.2c0.5,0.2,1,0.4,1.6,0.6c0.5,0.2,1,0.5,1.5,0.7c1,0.5,2,0.9,2.9,1.4c0.5,0.2,0.9,0.5,1.4,0.8
						c0.5,0.3,0.9,0.5,1.3,0.8c0.9,0.6,1.8,1.1,2.6,1.6c0.8,0.6,1.6,1.2,2.4,1.8c6.4,4.9,11,10.6,14.3,16c3.2,5.5,5.2,10.6,6.2,15
						c0.1,0.5,0.3,1.1,0.4,1.6c0.1,0.5,0.3,1,0.3,1.5c0.1,1,0.3,1.9,0.4,2.7c0.1,0.9,0.3,1.6,0.3,2.4c0,0.7,0.1,1.4,0.1,2
						c0,1.2,0.1,2.1,0.1,2.7C183.2,90.1,183.2,90.4,183.2,90.4z"/>
				</g>
			</g>
		</g>
	</g>
	<circle class="st22" cx="126.9" cy="90.6" r="56.6"/>
	<circle class="st22" cx="396.7" cy="114.7" r="54.3"/>
	<g>
		<defs>
			<circle id="SVGID_1_" cx="126.9" cy="90.6" r="56.6"/>
		</defs>
		<clipPath id="SVGID_2_">
			<use xlink:href="#SVGID_1_"  style="overflow:visible;"/>
		</clipPath>
		<g id="XMLID_933_" class="st23">
			<g id="XMLID_759_">
				<g id="XMLID_767_">
					<circle id="XMLID_769_" class="st15" cx="123.3" cy="103.8" r="3.2"/>
					<circle id="XMLID_768_" class="st16" cx="123.3" cy="103.8" r="2.3"/>
				</g>
				<g id="XMLID_764_">
					<circle id="XMLID_766_" class="st15" cx="109.2" cy="103.8" r="3.2"/>
					<circle id="XMLID_765_" class="st16" cx="109.2" cy="103.8" r="2.3"/>
				</g>
				
					<rect id="XMLID_763_" x="112.4" y="100.6" transform="matrix(-1 -4.482027e-11 4.482027e-11 -1 232.5455 206.6626)" class="st16" width="7.7" height="5.5"/>
				
					<rect id="XMLID_762_" x="112.4" y="101.4" transform="matrix(-1 -4.505741e-11 4.505741e-11 -1 232.5455 203.6619)" class="st15" width="7.7" height="0.8"/>
				<polygon id="XMLID_761_" class="st15" points="112.4,106.1 120.1,106.1 118.4,105.1 114.2,105.1 				"/>
				<path id="XMLID_760_" class="st15" d="M108.9,104.1h14.7c0.1,0,0.2-0.1,0.2-0.2v-0.3c0-0.1-0.1-0.2-0.2-0.2h-14.7
					c-0.1,0-0.2,0.1-0.2,0.2v0.3C108.7,104,108.8,104.1,108.9,104.1z"/>
			</g>
			<g id="XMLID_748_">
				<g id="XMLID_756_">
					<circle id="XMLID_758_" class="st15" cx="203.7" cy="103.8" r="3.2"/>
					<circle id="XMLID_757_" class="st16" cx="203.7" cy="103.8" r="2.3"/>
				</g>
				<g id="XMLID_753_">
					<circle id="XMLID_755_" class="st15" cx="189.6" cy="103.8" r="3.2"/>
					<circle id="XMLID_754_" class="st16" cx="189.6" cy="103.8" r="2.3"/>
				</g>
				
					<rect id="XMLID_752_" x="192.8" y="100.6" transform="matrix(-1 -4.517598e-11 4.517598e-11 -1 393.249 206.6626)" class="st16" width="7.7" height="5.5"/>
				
					<rect id="XMLID_751_" x="192.8" y="101.4" transform="matrix(-1 -4.493884e-11 4.493884e-11 -1 393.249 203.6619)" class="st15" width="7.7" height="0.8"/>
				<polygon id="XMLID_750_" class="st15" points="192.8,106.1 200.5,106.1 198.7,105.1 194.5,105.1 				"/>
				<path id="XMLID_749_" class="st15" d="M189.3,104.1H204c0.1,0,0.2-0.1,0.2-0.2v-0.3c0-0.1-0.1-0.2-0.2-0.2h-14.7
					c-0.1,0-0.2,0.1-0.2,0.2v0.3C189,104,189.1,104.1,189.3,104.1z"/>
			</g>
			<path id="XMLID_747_" class="st11" d="M217.4,100.6V77.6h-97.3c-12.7,0-37.3,10.3-37.3,22.9v0H217.4z"/>
			<rect id="XMLID_745_" x="125.2" y="100.6" class="st17" width="62.6" height="5"/>
			<rect id="XMLID_770_" x="205.5" y="100.6" class="st17" width="11.9" height="5"/>
			<path id="XMLID_771_" class="st17" d="M107.4,105.6H87.2c-2.5,0-4.4-2-4.4-4.4v-0.6h24.6V105.6z"/>
			<rect id="XMLID_901_" x="150.4" y="82.8" class="st12" width="61.2" height="8.1"/>
			<path id="XMLID_905_" class="st12" d="M105.4,90.8h24.4v-8.1c-3.2-0.4-17.3-0.7-24.4,4.2V90.8z"/>
			<g id="XMLID_897_">
				<path id="XMLID_908_" class="st13" d="M120.2,89.1v-4c0-0.8-0.6-1.4-1.4-1.4h-2.2c-0.8,0.1-1.7,0.3-2.5,0.4
					c-0.3,0.3-0.4,0.6-0.4,1v4c0,0.8,0.6,1.4,1.4,1.4h3.8C119.6,90.5,120.2,89.8,120.2,89.1z"/>
				<path id="XMLID_900_" class="st14" d="M120.2,87.6v-1.9l-2-2h-1.7c-0.1,0-0.1,0-0.2,0L120.2,87.6z"/>
				<path id="XMLID_906_" class="st14" d="M113.7,84.6c-0.1,0.2-0.1,0.3-0.1,0.5v2.1l3.3,3.3h1.9c0.2,0,0.5-0.1,0.6-0.2L113.7,84.6z
					"/>
			</g>
			<g id="XMLID_903_">
				<path id="XMLID_913_" class="st13" d="M112,89.1v-3.3c0-0.4-0.2-0.8-0.5-1.1c-2.1,0.6-4,1.4-5.6,2.4v2c0,0.8,0.6,1.4,1.4,1.4
					h3.1C111.4,90.5,112,89.8,112,89.1z"/>
				<path id="XMLID_911_" class="st14" d="M112,87.8v-1.8l-1.2-1.2c-0.4,0.1-0.9,0.3-1.3,0.4L112,87.8z"/>
				<path id="XMLID_909_" class="st14" d="M107.3,86.3c-0.4,0.2-0.9,0.5-1.3,0.8v0.4l3,3h1.6c0.2,0,0.5-0.1,0.7-0.2L107.3,86.3z"/>
			</g>
			<g id="XMLID_893_">
				<path id="XMLID_896_" class="st13" d="M127.8,90.5h-4.6c-0.7,0-1.3-0.6-1.3-1.3v-4.8c0-0.7,0.6-1.3,1.3-1.3h4.6
					c0.7,0,1.3,0.6,1.3,1.3v4.8C129.1,89.9,128.5,90.5,127.8,90.5z"/>
				<polygon id="XMLID_895_" class="st14" points="124.9,83.1 129.1,87.3 129.1,85.2 126.9,83.1 				"/>
				<path id="XMLID_894_" class="st14" d="M125.5,90.5h2.2c0.2,0,0.4-0.1,0.6-0.1l-6.2-6.2c0,0.1-0.1,0.3-0.1,0.5v2.4L125.5,90.5z"
					/>
			</g>
			<g id="XMLID_889_">
				<path id="XMLID_892_" class="st13" d="M156.9,90.5h-4.6c-0.7,0-1.3-0.6-1.3-1.3v-4.8c0-0.7,0.6-1.3,1.3-1.3h4.6
					c0.7,0,1.3,0.6,1.3,1.3v4.8C158.2,89.9,157.6,90.5,156.9,90.5z"/>
				<polygon id="XMLID_891_" class="st14" points="154,83.1 158.2,87.3 158.2,85.2 156.1,83.1 				"/>
				<path id="XMLID_890_" class="st14" d="M154.6,90.5h2.2c0.2,0,0.4-0.1,0.6-0.1l-6.2-6.2c0,0.1-0.1,0.3-0.1,0.5v2.4L154.6,90.5z"
					/>
			</g>
			<g id="XMLID_885_">
				<path id="XMLID_888_" class="st13" d="M165.8,90.5h-4.6c-0.7,0-1.3-0.6-1.3-1.3v-4.8c0-0.7,0.6-1.3,1.3-1.3h4.6
					c0.7,0,1.3,0.6,1.3,1.3v4.8C167,89.9,166.5,90.5,165.8,90.5z"/>
				<polygon id="XMLID_887_" class="st14" points="162.8,83.1 167,87.3 167,85.2 164.9,83.1 				"/>
				<path id="XMLID_886_" class="st14" d="M163.4,90.5h2.2c0.2,0,0.4-0.1,0.6-0.1l-6.2-6.2c0,0.1-0.1,0.3-0.1,0.5v2.4L163.4,90.5z"
					/>
			</g>
			<g id="XMLID_881_">
				<path id="XMLID_884_" class="st13" d="M174.6,90.5H170c-0.7,0-1.3-0.6-1.3-1.3v-4.8c0-0.7,0.6-1.3,1.3-1.3h4.6
					c0.7,0,1.3,0.6,1.3,1.3v4.8C175.9,89.9,175.3,90.5,174.6,90.5z"/>
				<polygon id="XMLID_883_" class="st14" points="171.6,83.1 175.9,87.3 175.9,85.2 173.7,83.1 				"/>
				<path id="XMLID_882_" class="st14" d="M172.3,90.5h2.2c0.2,0,0.4-0.1,0.6-0.1l-6.2-6.2c0,0.1-0.1,0.3-0.1,0.5v2.4L172.3,90.5z"
					/>
			</g>
			<g id="XMLID_877_">
				<path id="XMLID_880_" class="st13" d="M183.3,90.5h-4.6c-0.7,0-1.3-0.6-1.3-1.3v-4.8c0-0.7,0.6-1.3,1.3-1.3h4.6
					c0.7,0,1.3,0.6,1.3,1.3v4.8C184.6,89.9,184,90.5,183.3,90.5z"/>
				<polygon id="XMLID_879_" class="st14" points="180.4,83.1 184.6,87.3 184.6,85.2 182.5,83.1 				"/>
				<path id="XMLID_878_" class="st14" d="M181,90.5h2.2c0.2,0,0.4-0.1,0.6-0.1l-6.2-6.2c0,0.1-0.1,0.3-0.1,0.5v2.4L181,90.5z"/>
			</g>
			<g id="XMLID_873_">
				<path id="XMLID_876_" class="st13" d="M192.2,90.5h-4.6c-0.7,0-1.3-0.6-1.3-1.3v-4.8c0-0.7,0.6-1.3,1.3-1.3h4.6
					c0.7,0,1.3,0.6,1.3,1.3v4.8C193.4,89.9,192.9,90.5,192.2,90.5z"/>
				<polygon id="XMLID_875_" class="st14" points="189.2,83.1 193.4,87.3 193.4,85.2 191.3,83.1 				"/>
				<path id="XMLID_874_" class="st14" d="M189.8,90.5h2.2c0.2,0,0.4-0.1,0.6-0.1l-6.2-6.2c0,0.1-0.1,0.3-0.1,0.5v2.4L189.8,90.5z"
					/>
			</g>
			<g id="XMLID_869_">
				<path id="XMLID_872_" class="st13" d="M201,90.5h-4.6c-0.7,0-1.3-0.6-1.3-1.3v-4.8c0-0.7,0.6-1.3,1.3-1.3h4.6
					c0.7,0,1.3,0.6,1.3,1.3v4.8C202.3,89.9,201.7,90.5,201,90.5z"/>
				<polygon id="XMLID_871_" class="st14" points="198.1,83.1 202.3,87.3 202.3,85.2 200.1,83.1 				"/>
				<path id="XMLID_870_" class="st14" d="M198.7,90.5h2.2c0.2,0,0.4-0.1,0.6-0.1l-6.2-6.2c0,0.1-0.1,0.3-0.1,0.5v2.4L198.7,90.5z"
					/>
			</g>
			<g id="XMLID_865_">
				<path id="XMLID_868_" class="st13" d="M209.8,90.5h-4.6c-0.7,0-1.3-0.6-1.3-1.3v-4.8c0-0.7,0.6-1.3,1.3-1.3h4.6
					c0.7,0,1.3,0.6,1.3,1.3v4.8C211.1,89.9,210.5,90.5,209.8,90.5z"/>
				<polygon id="XMLID_867_" class="st14" points="206.9,83.1 211.1,87.3 211.1,85.2 209,83.1 				"/>
				<path id="XMLID_866_" class="st14" d="M207.5,90.5h2.2c0.2,0,0.4-0.1,0.6-0.1l-6.2-6.2c0,0.1-0.1,0.3-0.1,0.5v2.4L207.5,90.5z"
					/>
			</g>
			<g id="XMLID_856_">
				<rect id="XMLID_863_" x="136.4" y="82.8" class="st12" width="9.1" height="17.8"/>
				<path id="XMLID_862_" class="st11" d="M144.7,99.9h-7.4c-0.2,0-0.4-0.2-0.4-0.4V83.8c0-0.2,0.2-0.4,0.4-0.4h7.4
					c0.2,0,0.4,0.2,0.4,0.4v15.8C145,99.8,144.9,99.9,144.7,99.9z"/>
				<g id="XMLID_858_">
					<path id="XMLID_861_" class="st12" d="M141.2,92.5h-0.5c-1,0-1.9-0.8-1.9-1.9v-3.6c0-1,0.8-1.9,1.9-1.9h0.5
						c1,0,1.9,0.8,1.9,1.9v3.6C143,91.7,142.2,92.5,141.2,92.5z"/>
					<path id="XMLID_860_" class="st14" d="M141,85.2c-0.4,0-0.8,0.1-1.1,0.3l3.2,3.2v-1.4c0,0,0,0,0,0L141,85.2
						C141,85.2,141,85.2,141,85.2z"/>
					<path id="XMLID_859_" class="st14" d="M141.8,92.3c0.5-0.2,1-0.7,1.2-1.2l-4-4c0,0.1,0,0.2,0,0.2v2.1L141.8,92.3z"/>
				</g>
				<rect id="XMLID_857_" x="136.9" y="93.7" class="st18" width="8.2" height="1.2"/>
			</g>
			<path id="XMLID_853_" class="st18" d="M96.6,93.7h120.8v1.2H95.5v-0.1C95.5,94.2,96,93.7,96.6,93.7z"/>
			<path id="XMLID_855_" class="st19" d="M123.1,79.9h94.3v-2.2h-96.3v0.3C121.1,79,122,79.9,123.1,79.9z"/>
			<g id="XMLID_907_">
				<rect id="XMLID_916_" x="151.8" y="101.4" class="st20" width="3" height="3.3"/>
				<rect id="XMLID_914_" x="156.8" y="101.4" class="st20" width="3" height="3.3"/>
				<rect id="XMLID_910_" x="161.9" y="101.4" class="st20" width="3" height="3.3"/>
			</g>
			<path id="XMLID_899_" class="st18" d="M101.2,89.1l0,1c-4.7,2-4.8,4.9-4.8,4.9h-0.9C95.5,94.9,95.5,91.4,101.2,89.1z"/>
			<path id="XMLID_915_" class="st12" d="M101.5,84.3c1.2-0.8,2.1-1.9,2.5-3.2c-5.3,2-10.6,4.8-14.5,8.1c1.8,0.6,3.9,0.5,5.7-0.7
				L101.5,84.3z"/>
			<path id="XMLID_912_" class="st13" d="M101.4,83.4c0.9-0.6,1.5-1.3,2-2.1c-4.5,1.7-8.9,4-12.5,6.7c1.6,0.4,3.4,0.1,4.9-0.9
				L101.4,83.4z"/>
			
				<ellipse id="XMLID_898_" transform="matrix(0.4073 -0.9133 0.9133 0.4073 -38.4307 135.4236)" class="st24" cx="85.1" cy="97.3" rx="1.4" ry="0.6"/>
			
				<ellipse id="XMLID_917_" transform="matrix(0.4073 -0.9133 0.9133 0.4073 -38.236 135.3012)" class="st25" cx="85.1" cy="97.1" rx="1.2" ry="0.5"/>
			<g id="XMLID_921_">
				<path id="XMLID_918_" class="st17" d="M215.4,77.6h-13.6v-1.4c0-0.6,0.5-1.2,1.2-1.2h11.2c0.6,0,1.2,0.5,1.2,1.2V77.6z"/>
				<path id="XMLID_920_" class="st13" d="M212.5,76.3h-7.7c-0.2,0-0.4-0.2-0.4-0.4v-0.8h8.6v0.8C212.9,76.1,212.7,76.3,212.5,76.3z
					"/>
				<path id="XMLID_919_" class="st21" d="M211.8,76.1h-6.5c-0.2,0-0.4-0.2-0.4-0.4v-0.6h7.3v0.6C212.2,75.9,212.1,76.1,211.8,76.1z
					"/>
			</g>
		</g>
	</g>
	<g>
		<defs>
			<circle id="SVGID_3_" cx="396.7" cy="115.2" r="54.3"/>
		</defs>
		<clipPath id="SVGID_4_">
			<use xlink:href="#SVGID_3_"  style="overflow:visible;"/>
		</clipPath>
		<g id="XMLID_347_" class="st26">
			<g id="XMLID_346_">
				<g id="XMLID_295_">
					<g id="XMLID_303_">
						<circle id="XMLID_305_" class="st15" cx="308" cy="128.2" r="3.4"/>
						<circle id="XMLID_304_" class="st16" cx="308" cy="128.2" r="2.4"/>
					</g>
					<g id="XMLID_300_">
						<circle id="XMLID_302_" class="st15" cx="293.2" cy="128.2" r="3.4"/>
						<circle id="XMLID_301_" class="st16" cx="293.2" cy="128.2" r="2.4"/>
					</g>
					
						<rect id="XMLID_299_" x="296.6" y="124.8" transform="matrix(-1 -4.495261e-11 4.495261e-11 -1 601.2766 255.4285)" class="st16" width="8.1" height="5.8"/>
					
						<rect id="XMLID_298_" x="296.6" y="125.7" transform="matrix(-1 -4.484025e-11 4.484025e-11 -1 601.2766 252.2705)" class="st15" width="8.1" height="0.9"/>
					<polygon id="XMLID_297_" class="st15" points="296.6,130.6 304.7,130.6 302.9,129.6 298.4,129.6 					"/>
					<path id="XMLID_296_" class="st15" d="M292.9,128.6h15.5c0.1,0,0.2-0.1,0.2-0.2V128c0-0.1-0.1-0.2-0.2-0.2h-15.5
						c-0.1,0-0.2,0.1-0.2,0.2v0.3C292.7,128.5,292.8,128.6,292.9,128.6z"/>
				</g>
				<g id="XMLID_284_">
					<g id="XMLID_292_">
						<circle id="XMLID_294_" class="st15" cx="392.6" cy="128.2" r="3.4"/>
						<circle id="XMLID_293_" class="st16" cx="392.6" cy="128.2" r="2.4"/>
					</g>
					<g id="XMLID_289_">
						<circle id="XMLID_291_" class="st15" cx="377.8" cy="128.2" r="3.4"/>
						<circle id="XMLID_290_" class="st16" cx="377.8" cy="128.2" r="2.4"/>
					</g>
					
						<rect id="XMLID_288_" x="381.2" y="124.8" transform="matrix(-1 -4.484025e-11 4.484025e-11 -1 770.4073 255.4285)" class="st16" width="8.1" height="5.8"/>
					
						<rect id="XMLID_287_" x="381.2" y="125.7" transform="matrix(-1 -4.495261e-11 4.495261e-11 -1 770.4073 252.2705)" class="st15" width="8.1" height="0.9"/>
					<polygon id="XMLID_286_" class="st15" points="381.2,130.6 389.2,130.6 387.4,129.6 383,129.6 					"/>
					<path id="XMLID_285_" class="st15" d="M377.5,128.6h15.5c0.1,0,0.2-0.1,0.2-0.2V128c0-0.1-0.1-0.2-0.2-0.2h-15.5
						c-0.1,0-0.2,0.1-0.2,0.2v0.3C377.2,128.5,377.3,128.6,377.5,128.6z"/>
				</g>
				<rect id="XMLID_283_" x="282.3" y="100.7" class="st27" width="121.3" height="24.1"/>
				<path id="XMLID_312_" class="st28" d="M294.2,124.8h-5c-0.4,0-0.8-0.3-0.8-0.8v-16.1c0-0.4,0.3-0.8,0.8-0.8h5
					c0.4,0,0.8,0.3,0.8,0.8V124C295,124.4,294.6,124.8,294.2,124.8z"/>
				<polygon id="XMLID_282_" class="st29" points="374.6,129.6 311.4,129.6 309.8,124.8 376.2,124.8 				"/>
				<rect id="XMLID_308_" x="282.3" y="100.7" class="st30" width="3" height="24.1"/>
				<polygon id="XMLID_279_" class="st13" points="283.4,115.2 282.3,115.2 282.3,101.9 284.4,101.9 				"/>
				<rect id="XMLID_306_" x="281.1" y="116.6" class="st31" width="1.2" height="4.7"/>
				<polygon id="XMLID_307_" class="st29" points="290,129.6 282.3,129.6 282.3,124.8 291,124.8 				"/>
				<polygon id="XMLID_310_" class="st29" points="396,129.6 403.7,129.6 403.7,124.8 395,124.8 				"/>
				<rect id="XMLID_309_" x="285.4" y="100.7" class="st28" width="118.3" height="1.2"/>
				<rect id="XMLID_311_" x="295" y="116.6" class="st31" width="108.7" height="2.3"/>
				<rect id="XMLID_314_" x="295" y="120.6" class="st28" width="108.7" height="0.5"/>
				<rect id="XMLID_331_" x="315.9" y="97.9" class="st30" width="51.9" height="2.8"/>
				<rect id="XMLID_337_" x="280.5" y="125.7" class="st12" width="1.9" height="0.9"/>
				<rect id="XMLID_395_" x="278.6" y="124.5" class="st12" width="1.9" height="3.3"/>
				<g id="XMLID_937_">
					<rect id="XMLID_321_" x="320" y="107.6" class="st12" width="21.8" height="9"/>
					<g id="XMLID_330_">
						<g id="XMLID_936_">
							<path id="XMLID_329_" class="st13" d="M329.4,115.6h-7.6c-0.4,0-0.7-0.3-0.7-0.7v-5.6c0-0.4,0.3-0.7,0.7-0.7h7.6
								c0.4,0,0.7,0.3,0.7,0.7v5.6C330.1,115.3,329.8,115.6,329.4,115.6z"/>
							<polygon id="XMLID_943_" class="st14" points="327.1,108.6 330.1,111.6 330.1,110.8 327.9,108.6 							"/>
							<path id="XMLID_941_" class="st14" d="M326.3,115.6h2.4l-7-7c-0.4,0.1-0.6,0.4-0.6,0.8v0.9L326.3,115.6z"/>
							<polygon id="XMLID_938_" class="st14" points="321,113.3 323.4,115.6 324.4,115.6 321,112.3 							"/>
						</g>
						<g id="XMLID_939_">
							<path id="XMLID_945_" class="st13" d="M340.1,115.6h-7.6c-0.4,0-0.7-0.3-0.7-0.7v-5.6c0-0.4,0.3-0.7,0.7-0.7h7.6
								c0.4,0,0.7,0.3,0.7,0.7v5.6C340.8,115.3,340.5,115.6,340.1,115.6z"/>
							<polygon id="XMLID_944_" class="st14" points="337.8,108.6 340.8,111.6 340.8,110.8 338.5,108.6 							"/>
							<path id="XMLID_942_" class="st14" d="M337,115.6h2.4l-7-7c-0.4,0.1-0.6,0.4-0.6,0.8v0.9L337,115.6z"/>
							<polygon id="XMLID_940_" class="st14" points="331.7,113.3 334.1,115.6 335.1,115.6 331.7,112.3 							"/>
						</g>
					</g>
				</g>
				<g id="XMLID_960_">
					<rect id="XMLID_959_" x="345.7" y="107.6" class="st12" width="21.8" height="9"/>
					<g id="XMLID_336_">
						<g id="XMLID_954_">
							<path id="XMLID_958_" class="st13" d="M355.1,115.6h-7.6c-0.4,0-0.7-0.3-0.7-0.7v-5.6c0-0.4,0.3-0.7,0.7-0.7h7.6
								c0.4,0,0.7,0.3,0.7,0.7v5.6C355.8,115.3,355.5,115.6,355.1,115.6z"/>
							<polygon id="XMLID_957_" class="st14" points="352.8,108.6 355.8,111.6 355.8,110.8 353.5,108.6 							"/>
							<path id="XMLID_956_" class="st14" d="M352,115.6h2.4l-7-7c-0.4,0.1-0.6,0.4-0.6,0.8v0.9L352,115.6z"/>
							<polygon id="XMLID_955_" class="st14" points="346.7,113.3 349.1,115.6 350.1,115.6 346.7,112.3 							"/>
						</g>
						<g id="XMLID_949_">
							<path id="XMLID_953_" class="st13" d="M365.7,115.6h-7.6c-0.4,0-0.7-0.3-0.7-0.7v-5.6c0-0.4,0.3-0.7,0.7-0.7h7.6
								c0.4,0,0.7,0.3,0.7,0.7v5.6C366.4,115.3,366.1,115.6,365.7,115.6z"/>
							<polygon id="XMLID_952_" class="st14" points="363.4,108.6 366.4,111.6 366.4,110.8 364.2,108.6 							"/>
							<path id="XMLID_951_" class="st14" d="M362.6,115.6h2.4l-7-7c-0.4,0.1-0.6,0.4-0.6,0.8v0.9L362.6,115.6z"/>
							<polygon id="XMLID_950_" class="st14" points="357.3,113.3 359.7,115.6 360.7,115.6 357.3,112.3 							"/>
						</g>
					</g>
				</g>
				<g id="XMLID_332_">
					<rect id="XMLID_335_" x="389.3" y="107.6" class="st12" width="11.2" height="9"/>
					<g id="XMLID_333_">
						<path id="XMLID_948_" class="st13" d="M398.7,115.6h-7.6c-0.4,0-0.7-0.3-0.7-0.7v-5.6c0-0.4,0.3-0.7,0.7-0.7h7.6
							c0.4,0,0.7,0.3,0.7,0.7v5.6C399.5,115.3,399.1,115.6,398.7,115.6z"/>
						<polygon id="XMLID_947_" class="st14" points="396.5,108.6 399.5,111.6 399.5,110.8 397.2,108.6 						"/>
						<path id="XMLID_946_" class="st14" d="M395.7,115.6h2.4l-7-7c-0.4,0.1-0.6,0.4-0.6,0.8v0.9L395.7,115.6z"/>
						<polygon id="XMLID_334_" class="st14" points="390.4,113.3 392.7,115.6 393.7,115.6 390.4,112.3 						"/>
					</g>
				</g>
				<g id="XMLID_961_">
					<path id="XMLID_313_" class="st13" d="M293.1,115.6h-2.8c-0.4,0-0.7-0.3-0.7-0.7v-5.6c0-0.4,0.3-0.7,0.7-0.7h2.8
						c0.4,0,0.7,0.3,0.7,0.7v5.6C293.8,115.3,293.5,115.6,293.1,115.6z"/>
					<polygon id="XMLID_966_" class="st14" points="291.1,108.6 293.8,111.3 293.8,110 292.4,108.6 					"/>
					<path id="XMLID_964_" class="st14" d="M293.8,114.9l-4.3-4.3v2.1l2.9,2.9h0.5C293.4,115.6,293.8,115.3,293.8,114.9z"/>
				</g>
				<g id="XMLID_320_">
					<rect id="XMLID_315_" x="301.4" y="106.7" class="st12" width="13.8" height="18.2"/>
					<g id="XMLID_319_">
						<path id="XMLID_316_" class="st30" d="M307.2,124.8h-5c-0.4,0-0.8-0.3-0.8-0.8v-16.1c0-0.4,0.3-0.8,0.8-0.8h5
							c0.4,0,0.8,0.3,0.8,0.8V124C308,124.4,307.6,124.8,307.2,124.8z"/>
						<g id="XMLID_963_">
							<path id="XMLID_968_" class="st13" d="M306.1,115.6h-2.8c-0.4,0-0.7-0.3-0.7-0.7v-5.6c0-0.4,0.3-0.7,0.7-0.7h2.8
								c0.4,0,0.7,0.3,0.7,0.7v5.6C306.8,115.3,306.5,115.6,306.1,115.6z"/>
							<polygon id="XMLID_967_" class="st14" points="304.1,108.6 306.8,111.3 306.8,110 305.4,108.6 							"/>
							<path id="XMLID_965_" class="st14" d="M306.8,114.9l-4.3-4.3v2.1l2.9,2.9h0.5C306.4,115.6,306.8,115.3,306.8,114.9z"/>
						</g>
					</g>
					<g id="XMLID_317_">
						<path id="XMLID_318_" class="st30" d="M314.4,124.8h-5c-0.4,0-0.8-0.3-0.8-0.8v-16.1c0-0.4,0.3-0.8,0.8-0.8h5
							c0.4,0,0.8,0.3,0.8,0.8V124C315.2,124.4,314.9,124.8,314.4,124.8z"/>
						<g id="XMLID_969_">
							<path id="XMLID_972_" class="st13" d="M313.3,115.6h-2.8c-0.4,0-0.7-0.3-0.7-0.7v-5.6c0-0.4,0.3-0.7,0.7-0.7h2.8
								c0.4,0,0.7,0.3,0.7,0.7v5.6C314.1,115.3,313.7,115.6,313.3,115.6z"/>
							<polygon id="XMLID_971_" class="st14" points="311.3,108.6 314.1,111.3 314.1,110 312.7,108.6 							"/>
							<path id="XMLID_970_" class="st14" d="M314,114.9l-4.3-4.3v2.1l2.9,2.9h0.5C313.7,115.6,314,115.3,314,114.9z"/>
						</g>
					</g>
				</g>
				<g id="XMLID_973_">
					<rect id="XMLID_986_" x="372.3" y="106.7" class="st12" width="13.8" height="18.2"/>
					<g id="XMLID_980_">
						<path id="XMLID_985_" class="st30" d="M378.1,124.8h-5c-0.4,0-0.8-0.3-0.8-0.8v-16.1c0-0.4,0.3-0.8,0.8-0.8h5
							c0.4,0,0.8,0.3,0.8,0.8V124C378.8,124.4,378.5,124.8,378.1,124.8z"/>
						<g id="XMLID_981_">
							<path id="XMLID_984_" class="st13" d="M377,115.6h-2.8c-0.4,0-0.7-0.3-0.7-0.7v-5.6c0-0.4,0.3-0.7,0.7-0.7h2.8
								c0.4,0,0.7,0.3,0.7,0.7v5.6C377.7,115.3,377.4,115.6,377,115.6z"/>
							<polygon id="XMLID_983_" class="st14" points="375,108.6 377.7,111.3 377.7,110 376.3,108.6 							"/>
							<path id="XMLID_982_" class="st14" d="M377.7,114.9l-4.3-4.3v2.1l2.9,2.9h0.5C377.3,115.6,377.6,115.3,377.7,114.9z"/>
						</g>
					</g>
					<g id="XMLID_974_">
						<path id="XMLID_979_" class="st30" d="M385.3,124.8h-5c-0.4,0-0.8-0.3-0.8-0.8v-16.1c0-0.4,0.3-0.8,0.8-0.8h5
							c0.4,0,0.8,0.3,0.8,0.8V124C386.1,124.4,385.7,124.8,385.3,124.8z"/>
						<g id="XMLID_975_">
							<path id="XMLID_978_" class="st13" d="M384.2,115.6h-2.8c-0.4,0-0.7-0.3-0.7-0.7v-5.6c0-0.4,0.3-0.7,0.7-0.7h2.8
								c0.4,0,0.7,0.3,0.7,0.7v5.6C384.9,115.3,384.6,115.6,384.2,115.6z"/>
							<polygon id="XMLID_977_" class="st14" points="382.2,108.6 384.9,111.3 384.9,110 383.5,108.6 							"/>
							<path id="XMLID_976_" class="st14" d="M384.9,114.9l-4.3-4.3v2.1l2.9,2.9h0.5C384.5,115.6,384.9,115.3,384.9,114.9z"/>
						</g>
					</g>
				</g>
			</g>
			<g id="XMLID_322_">
				<path id="XMLID_338_" class="st32" d="M406.5,124.2h-1.9c-0.5,0-0.9-0.4-0.9-0.9v-19.9c0-0.5,0.4-0.9,0.9-0.9h1.9
					c0.5,0,0.9,0.4,0.9,0.9v19.9C407.4,123.8,407,124.2,406.5,124.2z"/>
				<path id="XMLID_348_" class="st15" d="M406.4,119.4h-1.7c-0.6,0-1-0.5-1-1v4.7c0,0.6,0.5,1,1,1h1.7c0.6,0,1-0.5,1-1v-4.7
					C407.4,119,406.9,119.4,406.4,119.4z"/>
				<g id="XMLID_378_">
					<g id="XMLID_386_">
						<circle id="XMLID_388_" class="st15" cx="433.1" cy="128.2" r="3.4"/>
						<circle id="XMLID_387_" class="st16" cx="433.1" cy="128.2" r="2.4"/>
					</g>
					<g id="XMLID_383_">
						<circle id="XMLID_385_" class="st15" cx="418.3" cy="128.2" r="3.4"/>
						<circle id="XMLID_384_" class="st16" cx="418.3" cy="128.2" r="2.4"/>
					</g>
					
						<rect id="XMLID_382_" x="421.6" y="124.8" transform="matrix(-1 -4.495261e-11 4.495261e-11 -1 851.3492 255.4285)" class="st16" width="8.1" height="5.8"/>
					
						<rect id="XMLID_381_" x="421.6" y="125.7" transform="matrix(-1 -4.484025e-11 4.484025e-11 -1 851.3492 252.2705)" class="st15" width="8.1" height="0.9"/>
					<polygon id="XMLID_380_" class="st15" points="421.6,130.6 429.7,130.6 427.9,129.6 423.5,129.6 					"/>
					<path id="XMLID_379_" class="st15" d="M417.9,128.6h15.5c0.1,0,0.2-0.1,0.2-0.2V128c0-0.1-0.1-0.2-0.2-0.2h-15.5
						c-0.1,0-0.2,0.1-0.2,0.2v0.3C417.7,128.5,417.8,128.6,417.9,128.6z"/>
				</g>
				<g id="XMLID_367_">
					<g id="XMLID_372_">
						<circle id="XMLID_374_" class="st15" cx="502.8" cy="128.2" r="3.4"/>
					</g>
				</g>
				<rect id="XMLID_366_" x="407.4" y="100.7" class="st27" width="121.3" height="24.1"/>
				<polygon id="XMLID_365_" class="st29" points="499.7,129.6 436.4,129.6 434.9,124.8 501.2,124.8 				"/>
				<polygon id="XMLID_363_" class="st29" points="415,129.6 407.4,129.6 407.4,124.8 416,124.8 				"/>
				<rect id="XMLID_360_" x="410.4" y="100.7" class="st28" width="118.3" height="1.2"/>
				<rect id="XMLID_359_" x="407.4" y="116.6" class="st31" width="121.3" height="2.3"/>
				<rect id="XMLID_358_" x="407.4" y="120.6" class="st28" width="121.3" height="0.5"/>
				<rect id="XMLID_339_" x="440.9" y="97.9" class="st30" width="51.9" height="2.8"/>
				<g id="XMLID_1004_">
					<rect id="XMLID_1016_" x="444.3" y="107.6" class="st12" width="21.8" height="9"/>
					<g id="XMLID_1005_">
						<g id="XMLID_1011_">
							<path id="XMLID_1015_" class="st13" d="M453.7,115.6h-7.6c-0.4,0-0.7-0.3-0.7-0.7v-5.6c0-0.4,0.3-0.7,0.7-0.7h7.6
								c0.4,0,0.7,0.3,0.7,0.7v5.6C454.4,115.3,454.1,115.6,453.7,115.6z"/>
							<polygon id="XMLID_1014_" class="st14" points="451.4,108.6 454.4,111.6 454.4,110.8 452.2,108.6 							"/>
							<path id="XMLID_1013_" class="st14" d="M450.6,115.6h2.4l-7-7c-0.4,0.1-0.6,0.4-0.6,0.8v0.9L450.6,115.6z"/>
							<polygon id="XMLID_1012_" class="st14" points="445.3,113.3 447.7,115.6 448.7,115.6 445.3,112.3 							"/>
						</g>
						<g id="XMLID_1006_">
							<path id="XMLID_1010_" class="st13" d="M464.3,115.6h-7.6c-0.4,0-0.7-0.3-0.7-0.7v-5.6c0-0.4,0.3-0.7,0.7-0.7h7.6
								c0.4,0,0.7,0.3,0.7,0.7v5.6C465.1,115.3,464.7,115.6,464.3,115.6z"/>
							<polygon id="XMLID_1009_" class="st14" points="462.1,108.6 465.1,111.6 465.1,110.8 462.8,108.6 							"/>
							<path id="XMLID_1008_" class="st14" d="M461.3,115.6h2.4l-7-7c-0.4,0.1-0.6,0.4-0.6,0.8v0.9L461.3,115.6z"/>
							<polygon id="XMLID_1007_" class="st14" points="456,113.3 458.3,115.6 459.4,115.6 456,112.3 							"/>
						</g>
					</g>
				</g>
				<g id="XMLID_340_">
					<rect id="XMLID_1003_" x="469.9" y="107.6" class="st12" width="21.8" height="9"/>
					<g id="XMLID_341_">
						<g id="XMLID_998_">
							<path id="XMLID_1002_" class="st13" d="M479.3,115.6h-7.6c-0.4,0-0.7-0.3-0.7-0.7v-5.6c0-0.4,0.3-0.7,0.7-0.7h7.6
								c0.4,0,0.7,0.3,0.7,0.7v5.6C480.1,115.3,479.7,115.6,479.3,115.6z"/>
							<polygon id="XMLID_1001_" class="st14" points="477.1,108.6 480.1,111.6 480.1,110.8 477.8,108.6 							"/>
							<path id="XMLID_1000_" class="st14" d="M476.3,115.6h2.4l-7-7c-0.4,0.1-0.6,0.4-0.6,0.8v0.9L476.3,115.6z"/>
							<polygon id="XMLID_999_" class="st14" points="471,113.3 473.3,115.6 474.4,115.6 471,112.3 							"/>
						</g>
						<g id="XMLID_361_">
							<path id="XMLID_997_" class="st13" d="M490,115.6h-7.6c-0.4,0-0.7-0.3-0.7-0.7v-5.6c0-0.4,0.3-0.7,0.7-0.7h7.6
								c0.4,0,0.7,0.3,0.7,0.7v5.6C490.7,115.3,490.4,115.6,490,115.6z"/>
							<polygon id="XMLID_996_" class="st14" points="487.7,108.6 490.7,111.6 490.7,110.8 488.5,108.6 							"/>
							<path id="XMLID_995_" class="st14" d="M486.9,115.6h2.4l-7-7c-0.4,0.1-0.6,0.4-0.6,0.8v0.9L486.9,115.6z"/>
							<polygon id="XMLID_364_" class="st14" points="481.6,113.3 484,115.6 485,115.6 481.6,112.3 							"/>
						</g>
					</g>
				</g>
				<g id="XMLID_323_">
					<rect id="XMLID_987_" x="411.3" y="107.6" class="st12" width="11.2" height="9"/>
					<g id="XMLID_324_">
						<path id="XMLID_962_" class="st13" d="M420.7,115.6h-7.6c-0.4,0-0.7-0.3-0.7-0.7v-5.6c0-0.4,0.3-0.7,0.7-0.7h7.6
							c0.4,0,0.7,0.3,0.7,0.7v5.6C421.5,115.3,421.1,115.6,420.7,115.6z"/>
						<polygon id="XMLID_328_" class="st14" points="418.5,108.6 421.5,111.6 421.5,110.8 419.2,108.6 						"/>
						<path id="XMLID_326_" class="st14" d="M417.7,115.6h2.4l-7-7c-0.4,0.1-0.6,0.4-0.6,0.8v0.9L417.7,115.6z"/>
						<polygon id="XMLID_325_" class="st14" points="412.4,113.3 414.7,115.6 415.7,115.6 412.4,112.3 						"/>
					</g>
				</g>
				<g id="XMLID_342_">
					<rect id="XMLID_1024_" x="425.6" y="106.7" class="st12" width="13.8" height="18.2"/>
					<g id="XMLID_1018_">
						<path id="XMLID_1023_" class="st30" d="M431.4,124.8h-5c-0.4,0-0.8-0.3-0.8-0.8v-16.1c0-0.4,0.3-0.8,0.8-0.8h5
							c0.4,0,0.8,0.3,0.8,0.8V124C432.2,124.4,431.9,124.8,431.4,124.8z"/>
						<g id="XMLID_1019_">
							<path id="XMLID_1022_" class="st13" d="M430.3,115.6h-2.8c-0.4,0-0.7-0.3-0.7-0.7v-5.6c0-0.4,0.3-0.7,0.7-0.7h2.8
								c0.4,0,0.7,0.3,0.7,0.7v5.6C431.1,115.3,430.7,115.6,430.3,115.6z"/>
							<polygon id="XMLID_1021_" class="st14" points="428.3,108.6 431.1,111.3 431.1,110 429.7,108.6 							"/>
							<path id="XMLID_1020_" class="st14" d="M431,114.9l-4.3-4.3v2.1l2.9,2.9h0.5C430.7,115.6,431,115.3,431,114.9z"/>
						</g>
					</g>
					<g id="XMLID_343_">
						<path id="XMLID_1017_" class="st30" d="M438.7,124.8h-5c-0.4,0-0.8-0.3-0.8-0.8v-16.1c0-0.4,0.3-0.8,0.8-0.8h5
							c0.4,0,0.8,0.3,0.8,0.8V124C439.5,124.4,439.1,124.8,438.7,124.8z"/>
						<g id="XMLID_344_">
							<path id="XMLID_391_" class="st13" d="M437.6,115.6h-2.8c-0.4,0-0.7-0.3-0.7-0.7v-5.6c0-0.4,0.3-0.7,0.7-0.7h2.8
								c0.4,0,0.7,0.3,0.7,0.7v5.6C438.3,115.3,438,115.6,437.6,115.6z"/>
							<polygon id="XMLID_390_" class="st14" points="435.6,108.6 438.3,111.3 438.3,110 436.9,108.6 							"/>
							<path id="XMLID_345_" class="st14" d="M438.3,114.9l-4.3-4.3v2.1l2.9,2.9h0.5C437.9,115.6,438.3,115.3,438.3,114.9z"/>
						</g>
					</g>
				</g>
				<g id="XMLID_1025_">
					<rect id="XMLID_1038_" x="496.5" y="106.7" class="st12" width="13.8" height="18.2"/>
					<g id="XMLID_1032_">
						<path id="XMLID_1037_" class="st30" d="M502.3,124.8h-5c-0.4,0-0.8-0.3-0.8-0.8v-16.1c0-0.4,0.3-0.8,0.8-0.8h5
							c0.4,0,0.8,0.3,0.8,0.8V124C503.1,124.4,502.7,124.8,502.3,124.8z"/>
						<g id="XMLID_1033_">
							<path id="XMLID_1036_" class="st13" d="M501.2,115.6h-2.8c-0.4,0-0.7-0.3-0.7-0.7v-5.6c0-0.4,0.3-0.7,0.7-0.7h2.8
								c0.4,0,0.7,0.3,0.7,0.7v5.6C501.9,115.3,501.6,115.6,501.2,115.6z"/>
							<polygon id="XMLID_1035_" class="st14" points="499.2,108.6 501.9,111.3 501.9,110 500.5,108.6 							"/>
							<path id="XMLID_1034_" class="st14" d="M501.9,114.9l-4.3-4.3v2.1l2.9,2.9h0.5C501.5,115.6,501.9,115.3,501.9,114.9z"/>
						</g>
					</g>
				</g>
			</g>
		</g>
	</g>
</g>
</svg>
