<svg xmlns="http://www.w3.org/2000/svg" viewBox="0 0 500 500" enable-background="new 0 0 500 500"><style>.st67{fill:#1b2c3b}</style><g id="OBJECT"><defs><filter id="Adobe_OpacityMaskFilter" filterUnits="userSpaceOnUse" x="137.1" y="122.8" width="225.8" height="300.8"><feColorMatrix values="1 0 0 0 0 0 1 0 0 0 0 0 1 0 0 0 0 0 1 0"/></filter></defs><mask maskUnits="userSpaceOnUse" x="137.1" y="122.8" width="225.8" height="300.8" id="SVGID_2_"><g filter="url(#Adobe_OpacityMaskFilter)"><path fill="#fff" d="M40.1 75.1h384.6v377.7H40.1z"/><path d="M320.4 375.8v-1.9h-.1.1l-1.7 3.3c.4.2.8.4 1.3.4h.3l.1-1.8zm24.6 20.1l.7-1.7v-.1H344h1.7l-3.4-.1v.1h1.7-1.7c0 1.6.7 2.9 2 3.6l.7-1.8zm-23.2-132.3l.3-.6.6-1.1c-.1-.1-.1-.2-.2-.2l-.3-.3c-.1-.1-.2-.2-.3-.2l-2.1 3.1.2.2c.2.2.5.5.8.7l.1.1.9-1.7zm-98.2 141.8l.1 1.9c1.2-.1 2.3-.7 2.9-1.8l-2.8-2.2s-.1.1-.3.1l.1 2zm187.6-158.8l-1.6.7c.2.7.7 1.3 1.2 1.7.5.4 1.1.6 1.8.7h.4c.6-.1 1.1-.2 1.6-.5.2-.1.3-.2.5-.3l-2.1-3h-.3v.1l-1.5.6zm-187 121.9l-1.7.2c.1 1.5 1.1 2.8 2.6 3.3l.3.1c1 .1 2-.1 2.8-.6l-1.8-3.2h-.3c-.1 0-.1-.1-.1-.1v.1h-.1v.1l-1.7.1zm70.8-28.4l1.2 1.4 1-1.1-2.3-2.8-.5.5-.6.6 1.2 1.4zm-37.1 51.4l1-1.6h-.1s-.1-.1-.2-.1c0 0-.1 0-.1-.1l-1.8 3.3.1.1 1.1-1.6zm-105.1 26.2l1 1.5-1-1.5-.3.3 2.1 3 .6-.5-2.1-3-.3.2zm-21.2-140.3c.1 0 .3.1.5.2l.3.1 1.1-3.6-.3-.1c-.3-.1-.7-.3-1.1-.4h-.1l-.7 3.8h.3zm-.7 37.3l-.5 1.1c-.1.2-.2.5-.4.8-.1.2-.1.3-.2.5l1.6.6.6.2.3-.5.1.7.7.3c.1-.3.2-.6.4-.9l.2-.3-.9-.5 1.1-1.9c-.6-.4-1.3-.6-2.1-.4l-.9.3zm224.5 19.5v.2h-.3v.4l.3-.1.1 3c1.6-.1 2.7-1.3 3-3v-.4l-.1-.3-1.3.3-1.7-.1zm-20.3-107c-.1 0-.1 0 0 0-.1 0-.1 0 0 0-.1 0-.1 0 0 0-.2.1-.4.2-.5.2l.7 1.6-.4.1.1.3.4-.1.7 1.6c.2-.1.4-.2.7-.3l.3-.1-.5-1.6 1.7-.5-.5-2.3-2.1.8-.6.3zm-59.2 3.6c-.1-.1-.2-.1-.2-.2-.2-.2-.5-.5-.9-.6l-1.4 3.5c.1 0 .1.1.2.1l.1.1c.2.1.3.3.5.4l1.7-3.3zm81.4 63.5l.2.2c.1.1.3.3.5.4.1.1.2.1.3.2l.6-1.2-.5 1.3.8-1.7.8-1.7c-.1 0-.1-.1-.2-.2-.2-.1-.3-.3-.5-.4l-2 3.1zM299 369.9h-.1l.1 3.8c.7 0 1.3-.2 1.8-.5l-1.5-3.4c-.2 0-.2.1-.3.1zm-98.7-159c-.1-.1-.1-.2-.2-.2-.2-.3-.5-.6-.8-.8l-2 3.2c0 .1.1.1.2.2.1.2.3.3.4.5l2.4-2.9zm175.4.7l1.7-.2c-.1-1.4-1-2.4-2.5-2.9l-.9 3.3 1.7-.2zM212.2 416.5l-1 .4v-.1.5l1-.2-.2 2.3h.3c.2 0 .4-.1.7-.2.4-.2.9-.6 1.3-1.3l.4-.7-.1-.7v-.4c0-.1 0-.2-.1-.3l-2.3.7zM300 151.3c.1.1.2.1.3.2.2.1.3.2.5.4l1.8-3.3c-.1-.1-.2-.1-.2-.2-.2-.2-.4-.3-.5-.4l-1.9 3.3zm94.1 244.1l-.1-.1c-.1-.1-.1-.2-.1-.3l-3.3 1v.2c.3 1.2 1 2.1 1.9 2.7l.8-1.7-.8 1.7c.3.2.6.3 1 .4l.9-3.7c-.2-.1-.3-.2-.3-.2zm-64.7 38.5l-.2-.2s0-.1-.1-.1l-.2-.2-1.2 1.4-1.2 1.4.1.2c0 .1.1.1.1.2l.3.3 2.4-3zm34.2-199.4s.1 0 0 0c.1 0 .1 0 0 0l.6-.3c.4-.2.7-.6 1-1l-2.7-2.3c-.1.1-.4.3-1.4.3-.5-.1-.9-.2-1-.3l-1.1 1.5-1.1 1.5c.1.1.2.2.4.3.3.2.5.3.8.4.5.2 1.1.3 1.6.4h.4c.4 0 1.5-.1 2.5-.5zM256.4 374c-.1-.1-.1-.2-.1-.3 0 0 0-.1-.1-.1-.1-.1-.1-.2-.2-.3 0-.1-.1-.1-.1-.2l-2.9 2c.1.1.1.2.1.3.1.3.2.6.4.8 0 .1.1.1.1.2l2.8-2.4zm34-7.8l-1.7-.3 1.7.3v-.5h-1.7 1.7-2.8l-.6-.1.5.1-.5-.1.4.1h-.5.2-.1.7l1.5 2.6c.6-.5 1.1-1.3 1.2-2.1zm-49.3 26.9c.3-.1.6-.3.9-.5l-1.8-3.2c-.1 0-.2.1-.3.1-.2.1-.5.2-.7.3h-.8l-1.7-.1v.1c0 1.1.5 2.1 1.3 2.8.5.4 1.1.7 1.8.8l.6.1.5-.3s.1 0 .2-.1zm-90.6.2c1.6-.3 2.6-1.4 3.1-3l-3.3-1.2v.1c0 .1-.1.1-.1.2-.2.2-.5.3-1.4.2-.3-.1-.4-.2-.5-.2l-2.8 2.3c.1.2.2.3.4.5.5.6 1.3 1 2.2 1.3h.3c.8-.1 1.5-.1 2.1-.2zm43.1-11c0-.1-.1-.2-.1-.3-.1-.2-.2-.5-.4-.8 0-.1-.1-.1-.1-.2l-2.8 2.2c0 .1.1.2.1.3.1.2.2.5.3.7l3-1.9zm231.1-81.9l-.1-.1.1.1v-.7h-.1.1-.1.1v-.2h-.1l-1.7.2c0-.1.1-.1.1-.2l.1-.1c-.1.1-.4.1-.7.2-.2 0-.2-.1-.2-.1l.1.1h-.1v.3l-2.6 2c.2.4.5.7.9.9.4.3 1 .5 1.6.6h.4c.5-.1 1.1-.1 1.7-.4.2-.1.3-.1.5-.2v-2.4zm-78.1-5.8l-6.2-.6h-.2l.1.1s0 .1.1.1h-.1l-.7.2-2.6.8c0 .1.1.2.1.3.5 1.4 1.6 2.2 3 2.4h.6l5.9-3.3zm-225.9-.2c.2-.2.5-.4.8-.8.1-.2.2-.3.3-.5v-.2l-2.6-.8-.1.1v-.1l-.6-.2c.1-.3.2-.5.2-.5-.1.1-.2.1-.2.2-.2.1-.4.3-.5.4l.6.8-.3.4-1.2 1.4c.5.5 1.2.8 2 .8h.7l.5-.5c.2-.4.3-.4.4-.5zm297.6-12.1c.2-.1.4-.3.6-.5l.2-.2-2-2.1h-.1v-.1l-.4-.5c-.1.1-.2.1-.2.2-.2.2-.4.3-.5.5l.3.4-2.2.9c.2.7.9 2 2.9 2.2l.7.1.5-.5c0-.3.1-.3.2-.4zm3.5 87.1c.1 0 .1 0 0 0 .1 0 .1 0 0 0 .1 0 .1 0 0 0 .1 0 .1 0 0 0l-1-1.6-.1-.2 1-.3c0-.2-.1-.3-.2-.5v-.1.1l-1.2.2-.3-.4v.5h-.2l-1.7.3c0 .1 0 .2.1.3 0 .1.1.2.1.3 0 .1 0 .1.1.2l.4 1.4h1.4c.3.2 1 .3 1.6-.2zm-148.3-10.9l.5-.6c.1.1.2.2.2.3 0-.1-.1-.2-.1-.3 0-.2-.1-.3-.1-.5l.2-.5.7-1.7-.2-.1h-.1c-1-.4-2.1-.3-2.9.5a5 5 0 00-1.1 1.6l-.3.7.3.8c0 .1.1.2.1.3.1.5.3 1.1.8 1.6l2-2.1zm-57.6-55.8l-1.1-1.2 1.1 1.2c.3-.3.5-.7.6-1.1l-2.8-1.3-.3-.3s-.1.1-.4.2h-.2l.1.1h-.1v.1l-3 1.5.1.2.3.6c.3.4.7.7 1.1.9.5.3 1.2.4 1.8.4l.4-.1c1.1-.2 1.8-.6 2.4-1.2zm-2.6-2.6c0-.1.1-.1.1-.1l.2.2-.2-.2.3.3-.4-.2zM323.8 313h-.4l-.6 3.8c.2 0 .5.1.7.1h.2l.1-3.9zm-42.5 29.2c.1-.1.2-.1.3-.2.2-.1.4-.2.5-.3.1-.1.2-.2.4-.3l-2.2-2.9c-.1.1-.2.1-.3.2-.2.1-.3.2-.5.3l-.1.1 1 1.6.9 1.5zm98.3-35.1c.1 0 .1 0 0 0 .1 0 .1 0 0 0 .7-.4 1.4-1 1.8-2l-1.6-.8-1.6-.8c-.2.2-.9.2-1.4.2-.6-.1-.8-.3-.8-.3l-3.2 1.4.1.2c.4 1 1.4 2.3 3.7 2.6h.3c.7 0 1.8-.1 2.7-.5zm-186.4 13.8l.5-1.3c.2-.4.4-.9.5-1.4l-1.7-.5-.6-.2-.1.3v-.3l-.9-.2c0 .2-.2.5-.3.8l-.2.4 1 .5-.7 2h.1c.5.2 1 .2 1.5.1l.9-.2zm82.9 12c.1-.1.2-.1.3-.2.1-.1.2-.2.4-.3l.4-.4.1-.1-1.3-1.3 1.3 1.2-1.9-1.8-.7-.8-.2.2c-.1 0-.1.1-.2.1-.2.1-.3.2-.4.4l1.1 1.5 1.1 1.5zm44.4 80c0-.1 0-.1 0 0 .5-.5.9-1.2 1.1-2l.3-.9-.5-.8c-.1-.1-.1-.2-.2-.3l-.3-.6c-.1-.1-.2-.2-.3-.4l-1.9 2v-.1.1l-.5.6c.1.1.1.2.2.3 0 .1.1.1.1.2l-.2.6-.4 1.9c.2 0 .3.1.5.1h.2c.6.1 1.3-.2 1.9-.7zm-151.8 20c-.1-.1-.2-.1-.3-.2-.2-.2-.5-.3-.7-.5l-.5 1.1-.2-.5.2.5-1.1 2.3c.1.1.2.2.3.2.1.1.2.2.3.2l.8.6 3.6-2-2.4-1.7zm11.4 1.2l-1.3.2-1.7.3c0 .1 0 .3.1.4.3 1 1.1 2 2.7 2.1h.1l.1-3zm52.8-182.4v.1zm0 .1v.1zM395.6 376v-.1.1l-.7-1.8.7 1.8-.6-1.6.6 1.6-.7-1.8.7 1.8-.5-1.5.5 1.5v-.1.1l-.6-1.8.6 1.8-.6-1.6.6 1.6-.6-1.8.7 1.7-.7-1.8.7 1.8-.7-1.8.7 1.8-.7-1.6.7 1.5-.7-1.8.7 1.8c1.2-.6 1.9-1.8 1.9-3.2v-.8l-.1-.3c-.6-1.6-1.7-2.1-2.5-2.3l-.5 3.3h-.1l-.1-.2.1.2.1.2-.1-.2.1.2-.1-.4.1.2v-.1.1l.1.2-.1-.2v-.1.1l.1.2v.2s-.1 0-.1-.1l.1.1.2-.1.4 1.2.4 2-.7-1.8.7 1.8zm-201.5 47l.2-3.8c-.2 0-.3 0-.3-.1l.1.1v.1l-2.8 2.2c.3.5 1 1.2 2.1 1.4.2.1.4.1.7.1zm146.3-236.8l-.1-.2v-.1c0-.1 0-.1-.1-.2l-1.6.7 1.6-.7c-.1-.2-.2-.5-.3-.8v-.1l-3 1.9c0 .1.1.2.1.3v.1c.1.2.1.3.2.5l.1.3 1.9-1.2 1.2-.5zM149.8 377c.1 0 .1 0 0 0 .1 0 .1-.1.1-.1h.1l-1.2-2.9.1-.5h-.2s.1 0 .1.1h-.1l-.1-.1c-.1 0-.1 0-.2.1v.1l-2.9.8c.1.3.1.5.2.7.5 1.2 1.5 2 2.8 2.1h.5c.3-.1.6-.2.8-.3zm-26.7 23.4c.1-.1.1-.2.2-.3.2-.3.5-.6.7-1v-.1l-3.1-1.8c-.1.1-.1.2-.2.3-.1.2-.3.3-.4.5v.1l2.8 2.3zm223.2-163.2v-.4h.3-.3.3-.1.1-.3l.1-1.4.1-1.9c-1.5-.1-2.7.9-3.2 2.6l-.1.4v.4h1.8-1.7v.3l2.8-.2.3.1-.1.1zm-53.1 5.6l-1.7.4-1.4.3-.1-.3v.1-.1l.1.3.4 1.5.6 1.8c1.5-.6 2.4-2.2 2.1-4zm92.6-18.1l-3.2-1.5v.1c-.2.3-.6.4-1 .5-.3 0-.4-.1-.5-.1l-2.1 3c.6.6 1.5.9 2.6.9h.4c1.9-.3 3.2-1.3 3.8-2.9zm-.7 61.4l8.5-3.5-8.7-.4h-.2l.2.2v.1l-.6.3-.1-.4.1.4-1 .5-1.6.8c.1.1.1.3.2.4.5 1 1.5 1.5 2.8 1.6h.4zM111.6 443.9v-.8l-.5-.5-1.2 1.3h-1.5v.1h-.2v.7l.5.6.4 2.1c.1 0 .2-.1.3-.1 1.4-.4 2.3-1.7 2.2-3.4zm.2-23.8c-.2-.3-.5-.6-.8-.9-.2-.2-.4-.3-.6-.4h-.1l-.7 1.8-.5 1.4-.2.4 2.9-2.3zm50.9-214.8l-.7-1.7c-.6.3-1 .7-1.4 1.3v.1l2.8 2.3c0-.1.1-.1.1-.1l-.8-1.9zm-48.2 12.8c.3-.1.5-.3.8-.5l-2-3.1s-.1.1-.4.1h-.2v.5l-1.3.2-1.7.3c0 .2.1.3.1.5.4 1 1.4 1.7 2.6 1.9h.2c.8.4 1.4.3 1.9.1zm-1.6-3.4c0 .1.1.1.1.2v.1h-.2l.1-.3zm306-26.1h.2l-.5-3.5-3.2 1.2c.1.2.1.4.2.6.7 1.3 1.9 1.9 3.3 1.7zm-37.2 143.6s.1-.1.2-.1l-.5-3.8c-1 .2-1.8.7-2.4 1.5l2.7 2.4zm-34.6-122.8s-.2.1-.9.2l.1 1.9.1 1.9c.9-.1 2.3-.3 3.2-1.4l-2.5-2.6zm-4.7 109.7v-1.9l-.1-1.9h-.3l.1.1v.1l-3.2 1.5c.7 1.3 1.9 2.1 3.5 2.1zm-45.6-28.9l.1-.1-1.2-1.4 1.2 1.4.2-.2c.3-.4.5-.9.5-1.4v-.8l-2.4.4-.8-.9.5.6.2.2H294h.7-.3.2l-.6.1 1.1-.1 1.7 2.2zm-148.5 48.9c-1.4 0-2.5.7-3.1 1.9l2.9 2h.3l-.1-3.9zm-35-21.5c.2.2.4.4.6.8l1.6-.8-1.6.8 1.6-.8 1.6-.8-1.6.8 1.6-.8c-.3-.8-.8-1.5-1.4-2.1l-.3-.3-2.1 3.2zm297.5-116.7l.5-.3 3.7-4.2-5 .7c.2 0 .5.3.5.5l-3.4-.1v.2c0 .2 0 .4.1.5.1.8.4 1.4.9 1.9.4.4 1.2.9 2.4.7l.3.1zm7.7 18.2c.3-.2.7-.4 1-.7l.1-.1-.5-.8v-.5l-.2-.4-.3.2-1.1-1.6c-.1.1-.4.2-.6.4l-1.8 1.1.6 1.3v2.8l2.6-1.6.2-.1zm-124 103.7l.3.4-.3-.4.5-2.5h-.1l-.2-.1c-.2-.1-.4-.2-.5-.2l-.8-.3-.7.6-2.3 2.5 2.8.9c.1 0 .2.1.3.1l.2.1s.1 0 .1.1c.2.1.3.1.5.2l.2-1v-.4zm-6-139.7c0 .1.1.1 0 0l3.3-1c-.2-.6-.1-1.5.2-2.5l3-10.6-5.7 8.5-.8.6v1.4c-.1.7-.2 1.4-.2 2 .1.6.1 1.1.2 1.6zm-108.8 50.5c.4-.1.8-.1 1.3-.4l.1-.1.1-.1-1.2-1.3-.8-.9.1-.2-.1.1.1-.1-.1.1-.4-.4.1-.1c.2-.2.3-.2.3-.2-.1 0-.2 0-.3.1-.2 0-.5.1-.7.1l.3 1.3-.2.3-1.2 1.4c.2.2.5.4.7.6l.6.3.6-.2c.5-.3.6-.3.7-.3zm17.6-1.8h-.4c-.1 0-.1-.1-.1-.1v.2l-1.6-.1-1.7-.1v.2c0 .2 0 .4.1.6.1.5.3.9.5 1.3.5.7 1.2 1.3 2.2 1.5h.2c1.1.1 2-.1 2.7-.6l-1.9-2.9zm84.2 157.8c.6.8 1.5 1.3 2.6 1.3h.2v-1.7l.1 1.7-.1-3.6v-.1.1l-2.8 2.3zm31.2-18.1l-3.2.5 1.9 3.1c1.1-.8 1.5-2.1 1.3-3.6zM125.1 283l2-.5c.1 0 .2-.1.4-.1l-1-3.6v-.1l-2.8.5-1.1.1-.1.5-.9.2.7 3.8 1-.2 1.2 1.3.6-1.9zm139.6 17.5l-3-1.9c0 .1-.1.1-.1.2-.9 1.5-2.8 2.5-5 2.5-1 0-2-.2-3.1-.7-.1-.1-.3-.1-.5-.2l-1.5 3.5c1.8.9 3.5 1.4 5.1 1.3 3.6-.1 6.6-1.8 8.1-4.7zm-61 113.1c.4.3.8.5 1.3.6h.6l-.2-1.9.3 1.9-.2-1.9-.1-.8v-.6l-.1-.5.1.7v.4l-1.7 2.1zm-19.2-37.3v1.9l-1.6-.3v.2l1.6.1v.2l-.8 1.5 2.4 1.5.4-5.1zm148.4 6.3l.1-.3c.2-.4.4-.8.6-1.3l-3.2-1.4c0 .1-.1.1-.1.2-.1.1-.2.3-.2.5l-.2.3 3 2zm-98.7-127.3l-.6-1.8.6 1.8-.6-1.8.6 1.8c.3-.1.5-.2.7-.4 1.1-.8 1.6-1.9 1.4-3.5v-.3l-.1-.3c-.5-1.1-1.3-1.9-2.3-2.1-.2 0-.4-.1-.6-.1l-.1 1.9v1.4h-.1v-.1s0-.1.1-.1h-.1l.2.5-.1-.4.1.4s-.1 0-.1-.1c0 0 0 .1.1.1h.1l.4 1.1.4 2zm-1.1-2.9l.1.3.3.8-.3-.9-.1-.2.4 1.1-.4-1.1zM222.6 269c-.1-.1-.2-.1-.2-.2-.2-.2-.5-.4-.8-.6l-1.5 3.5.1.1.1.1c.2.2.4.3.5.4l1.8-3.3zm105.9-29.7c-.2.1-.4.1-.5.2-.1 0-.1.1-.2.1l.8 1.7.8 1.7-.1-1.9-.1-1.9c-.2 0-.4.1-.7.1zm51.3-35.4l.2-.2c.2-.3.5-.6.7-1 0 0 0-.1.1-.1l-2.9-2.2c-.1.2-.3.5-.5.7l-.2.3 1.3 1.3 1.3 1.2zm-31.5 236.7l.1.3h.1l-.1-.2.1.2c.5-.2.9-.4 1.3-.8.1-.2.3-.4.3-.6.2-.6.3-1.4 0-2.1l-.3-1-1-.3c-.1 0-.2-.1-.3-.1-.3-.1-.6-.2-1-.3l-.1 1.7-.3.3c.1-.2.3-.2.3-.2l-.1.5-.3-.3.3.3v.3l-.5.2v-.1c0-.2 0-.3.1-.5 0-.1.1-.1.1-.1-.2.3-.4.7-.4 1.2.1.7.8 1.5 1.7 1.6zm37.8-210.9c-.1 0-.2-.1-.3-.1-.3-.1-.7-.2-1.2-.2h-.1l-.1 1.9v1.9h.1c.1 0 .3.1.4.1.1 0 .2.1.4.1l.8-3.7z"/><path id="XMLID_415_" d="M104.4 253.2c.3-4.4.6-5.3 3.2-5.6 4.2-.5 6.5-3 7.8-7.3.2-.5.5-.9.7-1.3 1.2 2.3 2.3 4.5 3.5 6.8-3.9 5.1-2.8 11.4-3.7 17.1-.4 2.5-.7 4.9-1.1 7.4-.4 2.6-.9 5.3-1.2 7.9-.2 1.9 0 4-2 5.6-1.8-2.4-1.6-5-.5-7.5 1.2-2.9 1.4-5.8 1.1-8.9-.6-5.1-1.9-6.4-6.5-6.6-.4 0-.9 0-1.4-.1-1.3-2.4-.6-5 .1-7.5.7.3 1.4.7 2.2 1 .1-.2.1-.5.2-.7-.9-.1-1.7-.2-2.4-.3z"/><path id="XMLID_414_" d="M151.9 308.8c-.4.7-.7 1.6-1.3 2-1.2 1-2.6 1-3.4-.5-.7-1.4.1-2.5 1.2-3.3.6-.4 1.4-.6 2.1-.8.6.9 1 1.7 1.4 2.6z"/><path id="XMLID_413_" d="M19.3 298.6c3.1-2.1 5-1.9 6.4.9 1.9 3.7 1.2 7.1-1.8 9.2-3 2.1-6 1.4-7.5-1.7-1.5-3.1-.5-6.1 2.9-8.4z"/><path id="XMLID_412_" d="M62.3 251.4c1.5 2.8.8 6.7-1.5 8.4-2.2 1.6-5.7.8-7-1.6-1.4-2.5-.7-7.2 1.2-8.7 2.3-1.7 5.8-.8 7.3 1.9z"/><path id="XMLID_411_" d="M38.7 280.4c-2.1-4-1.3-6.1 2.1-7.5 2.7-1.1 5.3-2.1 7.7.4 1.3 1.3 1.6 2.7.5 4.3-1.9 2.6-4.4 4.3-7.3 4.3-1.3 0-2.5-1.2-3-1.5z"/><path id="XMLID_410_" d="M67.9 272.6c1.4 2.3.6 3.5-.5 4.6-1.3 1.2-3.1 1-3.7-.4-.7-1.5-.5-3.2.9-3.9 1-.5 2.4-.2 3.3-.3z"/><path id="XMLID_409_" d="M105.4 237.6c2.6 1.4 3.6 3.4 3 6.4-4.4.2-5.3-1.5-3-6.4z"/><path id="XMLID_408_" d="M15.9 382.5c.9.3 1.7.4 1.8.7.1.4-.1 1.2-.4 1.7-.1.2-1 .1-1.1-.2-.3-.4-.2-1.1-.3-2.2z"/><path id="XMLID_407_" d="M106.4 226.4c-.2 0-.6 0-.7-.2-.1-.2 0-.5.1-.8.3.1.6.1.9.2-.1.3-.2.6-.3.8z"/><path id="XMLID_406_" d="M40.8 386.5h.7s.1.4 0 .4c-.2.2-.4.2-.7.4.1-.3 0-.5 0-.8z"/><path id="XMLID_405_" d="M104.4 253.2c.8.1 1.5.2 2.3.4-.1.2-.1.5-.2.7-.7-.4-1.4-.8-2.1-1.1 0-.1 0 0 0 0z"/><g id="XMLID_399_"><path d="M61.6 452.8c1.8-3.5 3-6.9 2.7-10.6-.1-1.7-1.5-3.5-2.8-4.6-2.4-2.1-4.1-1.1-4.7 2.3-.8 4.8.4 8.8 2.6 12.9h2.2z"/><path id="XMLID_404_" d="M137 341.7c1.6-.7 2.9-1.5 4.2-1.7 2.6-.3 4 1.5 3.8 4.5-.3 3.9-2.3 6.6-5 6.7-1.4 0-2.6-1-1.8-2.3 1.7-2.8-.1-4.6-1.2-7.2z"/><path id="XMLID_403_" d="M121.9 376.9c1.8-1.1 4.2-.6 5 1.1 1.1 2.1.3 5.6-1.5 6.6-1.6.9-4.5-.2-5.3-2-.7-1.8.1-4.6 1.8-5.7z"/><path id="XMLID_402_" d="M205.5 436.4c1-2 1.4-3.4 2.1-4.1 1.2-1.2 2.6-.8 3.2.8.6 1.4-.1 2.7-1.3 3.1-1 .3-2.1.1-4 .2z"/><path id="XMLID_401_" d="M102.4 441.8c.5-1.1.7-1.9 1.2-2.3.2-.2 1.4.3 1.4.6 0 .7-.3 1.5-.7 2.1-.2.2-1-.2-1.9-.4z"/><path id="XMLID_400_" d="M178.9 385.3c.2-.2.4-.6.6-.6.2 0 .4.2.6.4-.2.2-.3.6-.5.6-.3 0-.5-.2-.7-.4z"/></g><path id="XMLID_391_" d="M250.2 451.7c-5.1.9-9.9-2.2-10.2-6.6-.3-5 4.1-11.4 8.3-12.2 4.8-.9 9.3 2.6 9.8 7.5.5 5.6-2.8 10.4-7.9 11.3zm.5-7.5c.2-.2.6-.5.6-.7 0-.3-.3-.6-.5-.9-.3.3-.6.7-.9 1 .3.2.6.4.8.6z"/><path id="XMLID_390_" d="M131.4 433.4c4.5-1 6.6.7 7.3 5.9.6 4.9-2.6 10.7-6.4 11.5-3 .7-9.3-3.5-9.8-6.5-.7-4.1 3.9-9.7 8.9-10.9z"/><path id="XMLID_388_" d="M123.1 349.6c-1.8 2.2-2.8 4-4.1 4.7-.6.3-2.4-1.2-2.9-2.3-.8-1.8.7-4.3 2.6-4.3 1.2 0 2.3.9 4.4 1.9z"/><path id="XMLID_387_" d="M90.5 420.3c-1.9 2.2-2.7 3.8-4 4.4-1.7.9-3.2 0-3.5-2.2-.3-2.1.7-3.8 2.5-4 1.2-.1 2.5.9 5 1.8z"/><path id="XMLID_386_" d="M108.4 370.1c1.8-1.9 2.7-3.4 3.9-3.9.7-.3 2.4.9 2.6 1.7.5 2-.8 3.6-2.5 3.9-1 .1-2-.8-4-1.7z"/><path id="XMLID_385_" d="M243 445.1c-1-1.1-2.2-1.8-2.2-2.5 0-.8 1.1-1.9 1.9-2.3.4-.2 1.7.9 1.7 1.4 0 .9-.8 1.9-1.4 3.4z"/><path id="XMLID_384_" d="M184.3 421.6c-.6.6-.9 1-1.3 1.3-.3-.4-.6-.7-.8-1.2 0-.1.4-.8.6-.8.4.1.8.4 1.5.7z"/><path id="XMLID_383_" d="M202.5 361c-.1.3-.2.8-.4.9-.2.1-.5-.2-.8-.3.1-.3.1-.8.3-.9.3-.1.6.2.9.3z"/><path id="XMLID_382_" d="M265.2 446c-.2-.2-.5-.4-.7-.6.3-.3.6-.7.9-1 .2.3.5.6.5.9-.1.2-.5.4-.7.7z"/><path id="XMLID_381_" d="M356.5-8.1c.3-4.4.6-5.3 3.2-5.6 4.2-.5 6.5-3 7.8-7.2.1-.5.5-.9.7-1.3 1.2 2.3 2.3 4.5 3.5 6.8-3.9 5.1-2.8 11.4-3.7 17.1-.4 2.5-.7 4.9-1.1 7.4-.4 2.6-.9 5.3-1.2 7.9-.2 1.9 0 4-2 5.6-1.8-2.4-1.6-5-.5-7.5 1.3-2.9 1.4-5.8 1.1-8.9-.6-5.1-1.9-6.4-6.5-6.6-.4 0-.9 0-1.4-.1-1.3-2.5-.6-5.1.1-7.6.7.3 1.4.7 2.2 1 .1-.2.1-.5.2-.7-.9 0-1.7-.1-2.4-.3z"/><path id="XMLID_380_" d="M404 47.5c-.4.7-.7 1.6-1.3 2.1-1.2 1-2.6 1-3.4-.5-.7-1.4.1-2.5 1.2-3.3.6-.4 1.4-.6 2.1-.8.6.9 1 1.7 1.4 2.5z"/><path id="XMLID_379_" d="M271.4 37.4c3.1-2.1 5-1.9 6.4.8 1.9 3.7 1.2 7.1-1.8 9.2-3 2.1-6 1.4-7.5-1.7-1.5-3.1-.5-6 2.9-8.3z"/><path id="XMLID_377_" d="M290.7 19.1c-2.1-4-1.3-6.1 2.2-7.5 2.7-1.1 5.3-2.1 7.7.4 1.3 1.3 1.6 2.7.5 4.3-1.9 2.6-4.4 4.3-7.3 4.3-1.3 0-2.5-1.2-3.1-1.5z"/><path id="XMLID_376_" d="M320 11.4c1.4 2.3.6 3.5-.5 4.6-1.3 1.2-3.1 1-3.7-.4-.7-1.5-.5-3.2.9-3.9 1-.6 2.4-.3 3.3-.3z"/><path id="XMLID_374_" d="M419.3 421.7c-2 3.9-2 3.9-6 3.4 1.5-4.9 1.6-5 6-3.4z"/><path id="XMLID_373_" d="M268 121.2c.9.3 1.7.4 1.8.7.1.4-.2 1.2-.4 1.7-.1.2-1 .1-1.1-.2-.3-.4-.2-1-.3-2.2z"/><path id="XMLID_371_" d="M292.9 125.2h.7s.1.4 0 .4c-.2.1-.4.2-.7.4.1-.2 0-.5 0-.8z"/><g id="XMLID_343_"><path id="XMLID_368_" d="M334.4 275.7c-.1.3-.4.6-.3.8.1.2.4.3.6.5.1-.3.3-.7.4-1-.3-.2-.5-.3-.7-.3z"/><path id="XMLID_367_" d="M412.4 190.8c-3.3 2.3-5.4 1.7-7.2-2-1.7-3.5-.7-8.9 2.1-10.8 2.2-1.5 8.2-.4 9.3 1.7 1.6 2.9-.5 8.6-4.2 11.1z"/><path id="XMLID_366_" d="M273.9 286c.7-3.5 1.2-7 2.1-10.3.5-2 1.5-3.9 3.8-3.6 1.9.2 3.2 2.3 3.2 5.1 0 2.6-.3 5.3-.5 8.3-2.9-.5-5.5 3.3-8.6.5z"/><path id="XMLID_365_" d="M308.8 187.8c-2.8-4.8-4.6-9.3-3.7-14.9.6-3.4 2.3-4.4 4.7-2.3 1.3 1.1 2.7 2.9 2.8 4.6.3 4.4-1.5 8.4-3.8 12.6z"/><path id="XMLID_364_" d="M319.7 243.7c2.3-1.5 5.1-1.1 6.3 1.1 1.2 2.2.2 5.9-2.1 7.5-2.1 1.5-5.6.6-6.6-1.7-1-2.2.1-5.3 2.4-6.9z"/><path id="XMLID_363_" d="M415.4 95.9c1.6-.7 2.9-1.5 4.2-1.7 2.6-.3 4 1.5 3.8 4.5-.3 3.9-2.3 6.6-5 6.7-1.4 0-2.6-1-1.8-2.3 1.7-2.8 0-4.6-1.2-7.2z"/><path id="XMLID_362_" d="M404.3 117.7c1.8-1.1 4.2-.6 5 1.1 1.1 2.1.3 5.6-1.5 6.6-1.6.9-4.5-.2-5.3-2-.7-1.9.1-4.7 1.8-5.7z"/><path id="XMLID_361_" d="M383.5 226.3c.7-2.1.8-3.7 1.6-4.6 1-1.3 3-.7 3.7.8.7 1.6.3 3.2-1 3.9-1.1.4-2.4 0-4.3-.1z"/><path id="XMLID_360_" d="M308.5 257.3c3 .1 4.2 1.2 4.4 4-2.7.5-3.7-.9-4.4-4z"/><path id="XMLID_359_" d="M352 269c1.1.5 2.2.6 2.4 1.1.2.6-.4 1.8-.9 2.3-.3.3-1.6-.1-1.7-.5-.2-.6.1-1.6.2-2.9z"/><path id="XMLID_358_" d="M354.5 180.6c.5-1.1.7-1.9 1.2-2.3.2-.2 1.4.3 1.3.6 0 .7-.3 1.5-.7 2.1-.1.2-.9-.2-1.8-.4z"/><path id="XMLID_348_" d="M320.2 203.6c.5-1.1.6-1.8.9-2 .3-.2 1 .1 1.3.4.1.1-.1 1.1-.3 1.3-.3.2-.9.1-1.9.3z"/><path id="XMLID_347_" d="M404.1 267.3c.3-.6.5-1 .6-1.4.3.2.7.3.9.6.1.1-.1.8-.3.8-.2.1-.6 0-1.2 0z"/><path id="XMLID_346_" d="M284.1 255c.2-.7.3-1.4.5-1.4.3-.1.9 0 1.1.2.2.2.1.8.2 1.2h-1.8z"/><path id="XMLID_345_" d="M405.2 318.9c0-.3-.1-.6 0-.8.1-.1.4-.1.7-.1 0 .3.1.6 0 .8-.1.2-.4.1-.7.1z"/><path id="XMLID_344_" d="M334.4 275.7c.2.1.5.2.7.2-.2.3-.3.7-.4 1-.2-.2-.5-.3-.6-.5-.1-.2.1-.5.3-.7z"/></g><path id="XMLID_342_" d="M398.3 245.2c4.5-1 6.6.7 7.3 5.9.6 4.9-2.6 10.7-6.4 11.5-3 .7-9.3-3.5-9.8-6.5-.6-4.1 3.9-9.7 8.9-10.9z"/><path d="M424.7 98.9c-1.8-.9-2.9-1.8-3.9-1.8-1.9 0-3.4 2.5-2.6 4.3.5 1.1 2.3 2.7 2.9 2.3 1.2-.7 2.1-2.2 3.7-4.2v-.6z"/><path id="XMLID_341_" d="M342.6 159.1c-1.9 2.2-2.7 3.8-4 4.4-1.7.9-3.2 0-3.5-2.2-.3-2.1.7-3.8 2.5-4 1.2-.2 2.6.9 5 1.8z"/><path id="XMLID_340_" d="M342.1 241.4c-1.9 1.9-2.8 3.2-3.9 3.7-1.8.7-3.2-.3-3.3-2.5-.1-1.9 1.1-3.1 2.7-3 1.1.1 2.2.9 4.5 1.8z"/><path id="XMLID_339_" d="M360.5 108.9c1.8-1.9 2.7-3.4 3.9-3.9.7-.3 2.4.9 2.6 1.7.5 2-.8 3.6-2.5 3.9-1 .1-2-.8-4-1.7z"/><path id="XMLID_338_" d="M393.5 208.3c-.6-.5-1.2-.8-1.2-1.1 0-.4.4-.9.8-1.2.1-.1.7.3.8.5 0 .4-.2.9-.4 1.8z"/><path id="XMLID_337_" d="M352.4 313.8c-.3.2-.6.5-.9.4-.2 0-.4-.5-.5-.7.3-.2.6-.5.8-.5.3.1.4.5.6.8z"/><path id="XMLID_336_" d="M355.8 226.5c-.2-.2-.4-.5-.6-.7.3-.2.5-.4.8-.5.1 0 .4.3.3.4-.1.3-.3.6-.5.8z"/><path id="XMLID_333_" d="M397.6 426.1c.5.9.7 1.8 1.2 2.4 1.2 1.7 1.6 3.6.7 5.8-.2.5-.4 1.1-.7 1.7-.2.4-.4 1-.7 1.1-1.7.6-3.4 1.6-5.2.9-.2-.1-.4-.2-.5-.3-.8-.5-2.1-.8-2.4-1.6-.4-1.6-.6-3.6-.3-5.3.5-3.5 3.6-4.9 5.8-4.7.7.1 1.4 0 2.1 0zm-3.3 5.6c.1-.1.2-.2.2-.3 0-.1-.1-.2-.2-.3l-.3.3c.2.1.2.2.3.3z"/><path id="XMLID_332_" d="M330.8 272.9c.3-2.1.3-2.2 1.8-1.9.6.1 1.2.2 1.7.3 1.6.5 2.3 1.8 2.1 3.7l-.3 1.8c-.4 1.7-1.2 2.8-2.7 3-1 .2-1.9.6-2.8 1.3-.6.5-1.4.7-2.1.8-2 .2-3.7-1.5-3.7-3.6-.1-2.8 1.4-4.9 3.6-5.2.8-.1 1.5-.1 2.4-.2z"/><path id="XMLID_329_" d="M337.9 432c.4-1.4.4-2.5-.4-3.7-1-1.5 0-4.3 1.3-5.2 1.4-1.1 4.1-.9 5.2.5 1.4 1.7 1.7 3.8 1 6.1-.6 2.1-2.2 2.9-3.8 3.5-1.2.4-2.1-.6-3.3-1.2zm3.9-4.8c.1.1.2.3.3.4.5-.4.9-.8 1.7-1.6-1.3 0-1.7.4-2 1.2z"/><path id="XMLID_328_" d="M373.7 369.7c.5-1.3 1-2.4 1.5-3.6.7-1.5 2.2-2.6 3.5-2.2 1.3.4 2.5 1.2 3.5 2.2.9.9.3 2.5 0 3.7-.9 3.1-4.3 4.1-6.3 2-.8-.7-1.4-1.3-2.2-2.1z"/><path id="XMLID_326_" d="M321.4 437.9c.2 1-.7 2.4-1.6 2.6-.8.2-1.9-.6-2-1.6-.1-1 .5-2.3 1.3-2.6.8-.3 2.1.6 2.3 1.6z"/><path id="XMLID_325_" d="M356.1 320.5c-.8.2-1.7-.5-1.9-1.5-.2-1 .5-2.1 1.4-2.4.9-.3 1.7.3 1.8 1.4.2 1.1-.4 2.3-1.3 2.5z"/><path id="XMLID_324_" d="M384.3 332.1c-.8.2-1.8-.5-2-1.4-.2-.9.4-1.8 1.2-2.1.8-.2 1.5.3 1.8 1.3.2 1-.2 1.9-1 2.2z"/><path id="XMLID_323_" d="M343.2 403.3c.3 1.6-.4 2.9-1.3 3.1-.7.1-1.1-.3-1.2-1.1-.2-1.1.4-2.6 1.4-2.6.5-.1.9.4 1.1.6z"/><path id="XMLID_322_" d="M407.2 306.8c-.6.1-1.8-1.1-1.8-2 0-.9.6-1.3 1.3-1.5.9-.3 1.8.5 1.8 1.4.1.9-.6 2-1.3 2.1z"/><path id="XMLID_321_" d="M397.4 323.4c-.5-.9-1-1.6-1.2-2.5-.1-.5.2-1.3.6-1.7.2-.3.9-.3 1.3-.1.6.4.5 1.1.3 1.8-.3.7-.6 1.4-1 2.5z"/><path id="XMLID_320_" d="M412.3 378.8c-.7-.7-1.3-1.1-1.4-1.7-.2-.7.1-1.4.8-1.5.7-.1 1.3.3 1.4 1.1.1.5-.4 1.1-.8 2.1z"/><path id="XMLID_319_" d="M340.2 440.8c-.7.8-1 1.5-1.4 1.7-.7.3-1.2-.1-1.3-.9-.1-.8.2-1.5.9-1.5.5 0 1 .4 1.8.7z"/><path id="XMLID_318_" d="M333.4 423.5c-.2-1 .2-2.2.8-2.3.3 0 .7.3.9.6.3.9-.2 2.1-.9 2.1-.3.1-.6-.3-.8-.4z"/><path id="XMLID_317_" d="M385 380c-.5.6-.8 1.2-1.2 1.4-.6.3-1.1-.2-1-.9.1-.5.5-1 .9-1.3.2-.1.6.4 1.3.8z"/><path id="XMLID_316_" d="M349.6 366.3c-.4.6-.8 1.3-.9 1.2-.4-.1-1-.5-1.1-.8-.1-.4.4-.9.7-1.4.3.3.7.6 1.3 1z"/><path id="XMLID_315_" d="M404.4 340.8c-.5.7-.7 1.4-1 1.4-.4 0-.9-.3-1.1-.7-.1-.2.3-1.1.6-1.1.3-.1.8.2 1.5.4z"/><path id="XMLID_314_" d="M411.5 280.3c-.9-.9-.7-1.7-.1-2.4.1-.1.6-.1.7 0 .5.9.2 1.6-.6 2.4z"/><path id="XMLID_313_" d="M405.2 278.6c.4-.5.6-1.1.8-1.1.4 0 .7.3 1.1.5-.2.4-.4 1-.6 1.1-.4.1-.8-.3-1.3-.5z"/><path id="XMLID_312_" d="M382.1 356.2c-.3-.4-.7-.7-.7-.9.1-.4.4-.7.6-1 .3.2.7.4.8.7 0 .3-.4.7-.7 1.2z"/><path id="XMLID_311_" d="M422.4 420.9c-.8-.3-1.1-.7-.7-1.4.1-.2.7-.3.8-.2.6.4.3 1-.1 1.6z"/><path id="XMLID_310_" d="M332.4 301.2c-.3-.4-.6-.7-.6-.9 0-.3.3-.5.5-.8.2.2.5.4.6.6 0 .3-.3.6-.5 1.1z"/><path id="XMLID_309_" d="M356 305.2c.4-.5.5-1 .8-1.1.2-.1.7.2.7.4 0 .4-.1.9-.4 1.1-.2.1-.6-.2-1.1-.4z"/><path id="XMLID_308_" d="M379.4 444.2c-.3-.5-.6-.8-.6-1 0-.2.4-.5.6-.6.1 0 .5.3.5.5 0 .3-.3.6-.5 1.1z"/><path id="XMLID_307_" d="M364.2 329.5c0-.8 0-1.6-.1-2.4h.3l.3 2.4c-.2-.1-.3 0-.5 0z"/><path id="XMLID_306_" d="M360.9 401.6c-.3-.3-.7-.5-.6-.7.1-.3.3-.6.5-.9.2.1.6.3.6.4-.1.4-.3.7-.5 1.2z"/><path id="XMLID_305_" d="M359.8 306.6c.4-.2.9-.4 1.3-.6.3.7.1.7-1.3.6z"/><path id="XMLID_304_" d="M394 297.4c-.9-1.4-.9-1.4.3-2.1-.1.6-.2 1.2-.3 2.1z"/><path id="XMLID_303_" d="M315.7 447.5c-.2.2-.4.4-.6.5-.1 0-.3-.3-.3-.4.1-.2.3-.4.4-.6.2.1.3.3.5.5z"/><path id="XMLID_302_" d="M322.8 318c-.3-.3-.7-.4-.7-.6 0-.3.2-.6.4-.8.1-.1.6.2.6.3 0 .3-.2.6-.3 1.1z"/><path id="XMLID_301_" d="M386.1 308.3c-.2.1-.5.4-.7.4-.2 0-.5-.1-.6-.3-.1-.2.1-.6.3-.7.2-.1.4.1.6.1.2.2.3.4.4.5z"/><path id="XMLID_300_" d="M311 323.9c-.2-.2-.4-.4-.4-.5 0-.2.2-.3.3-.5.1.1.3.2.4.4 0 .1-.2.3-.3.6z"/><path id="XMLID_299_" d="M421.9 437.9c-.3-.5-.5-.7-.5-.8 0-.2.2-.3.3-.5.1.1.3.3.3.4.1.2 0 .4-.1.9z"/><path id="XMLID_298_" d="M343.6 450.3c-.2.2-.4.4-.5.4-.2 0-.4-.2-.5-.4.1-.1.2-.4.4-.4.1 0 .3.1.6.4z"/><path id="XMLID_297_" d="M415.2 325c-.1 0-.2-.1-.3-.2.1-.1.1-.3.2-.3s.2.1.3.1c0 .1-.1.3-.2.4z"/><path id="XMLID_296_" d="M322 432.7c.2-.1.4-.1.7-.2v.2l-.6.3c-.1-.1-.1-.2-.1-.3z"/><path id="XMLID_295_" d="M307.9 417.1c0 .1-.1.3-.1.3-.1 0-.2-.1-.3-.1 0-.1.1-.3.1-.3s.2.1.3.1z"/><path id="XMLID_294_" d="M377.7 394c-.1-.1-.2-.1-.3-.2.1-.1.2-.3.3-.4.1.1.2.2.2.3 0 0-.2.1-.2.3z"/><path id="XMLID_293_" d="M372.9 443.6c0 .1 0 .3-.1.4-.2-.1-.3-.1-.5-.2.1-.1.1-.3.2-.3.2-.1.3 0 .4.1z"/><path id="XMLID_292_" d="M345.8 396c-.1-.1-.2-.1-.3-.2.1-.1.1-.3.2-.3s.2.1.3.2c0 0-.1.1-.2.3z"/><path id="XMLID_291_" d="M422.8 303.7c-.1.1-.1.2-.2.3-.1-.1-.2-.1-.3-.2 0-.1.1-.2.2-.3.1.1.2.1.3.2z"/><path id="XMLID_290_" d="M355 444.4c.1-.1.1-.2.2-.3 0 0 .2 0 .2.1v.4c-.2-.1-.3-.1-.4-.2z"/><path id="XMLID_289_" d="M341.2 400.1c0-.2-.1-.3-.1-.4.1-.1.2-.2.3-.2.1 0 .2.1.2.2-.1.1-.2.3-.4.4z"/><path id="XMLID_288_" d="M418.8 321.5c-.1.1-.1.2-.2.3-.1-.1-.2-.1-.3-.2 0-.1.1-.2.2-.3.2.1.2.1.3.2z"/><path id="XMLID_287_" d="M333.2 386.9c-.1.1-.1.2-.2.3l-.3-.3c.1-.1.2-.2.3-.2.1 0 .1.2.2.2z"/><path id="XMLID_286_" d="M394.3 431.7c-.1-.1-.2-.2-.2-.3l.3-.3c.1.1.2.2.2.3 0 .1-.2.2-.3.3z"/><path id="XMLID_285_" d="M341.8 427.2c.2-.8.7-1.2 2-1.2-.8.7-1.2 1.1-1.7 1.6-.1-.1-.2-.3-.3-.4z"/><path id="XMLID_284_" d="M398.2 299.4c1.6 2.8.8 6.8-1.5 8.4-2.2 1.6-5.7.8-7-1.6-1.4-2.5-.7-7.2 1.2-8.7 2.4-1.7 5.9-.8 7.3 1.9z"/><path id="XMLID_283_" d="M403.8 320.7c1.4 2.3.6 3.5-.5 4.6-1.3 1.2-3.1 1-3.7-.4-.7-1.5-.5-3.2.9-3.9 1.1-.6 2.5-.2 3.3-.3z"/><path id="XMLID_282_" d="M351.9 430.5c.9.3 1.7.4 1.8.7.1.4-.2 1.2-.4 1.7-.1.2-1 .1-1.1-.2-.3-.4-.2-1-.3-2.2z"/><path id="XMLID_279_" d="M376.8 434.6h.7s.1.4 0 .4c-.2.2-.4.2-.7.4v-.8z"/></g></mask><g mask="url(#SVGID_2_)"><path class="st67" d="M145.9 388c2.9 1.8 6.5 2.7 10.7 2.7 1.8 0 3.5-.2 5.3-.6 1.8-.4 3.2-.9 4.5-1.5 1.2-.6 2.3-1.1 3.3-1.7 1-.6 1.7-1.1 2.2-1.5l.7-.6v-10.4H165c-.1 1.3-.1 2-.2 2.4-.3 1.4-.9 2.4-1.9 3.2-1 .8-2.2 1.2-3.6 1.2-1 0-1.9-.2-2.7-.6-.8-.4-1.4-.9-1.8-1.5-.4-.6-.8-1.3-1.1-2.2-.3-.8-.5-1.7-.5-2.5-.1-.9-.1-1.8-.2-2.6-.1-.9-.1-1.7 0-2.5v-3.1c0-.6.1-1.3.2-2.1s.2-1.5.4-2.1c.2-.6.4-1.2.7-1.8.3-.6.7-1.2 1.1-1.6.4-.4.9-.7 1.6-1 .6-.3 1.3-.4 2.1-.4 1.1 0 2 .2 2.8.7.8.5 1.4 1.1 1.9 1.8.4.8.8 1.6 1 2.4.2.9.3 1.7.3 2.6h7.6v-16h-7.9l-.9 1.8c-.8-.7-1.7-1.3-2.9-1.7-1.1-.4-2.2-.6-3.1-.7-.9-.1-2-.1-3.2-.1-2.4 0-4.6.4-6.5 1.2-2 .8-3.6 1.9-4.9 3.3s-2.4 3-3.3 4.9c-.9 1.9-1.6 3.8-2 5.8-.4 2-.6 4.1-.6 6.2 0 4.3.7 8 2.2 11.1 1.1 3.3 3.3 5.7 6.3 7.5zm53-7.2v9.1h20.3v-9.1h-3.7v-23.1h3.5v-8.9h-20.2v8.9h2.2v7.2h-6.8v-7.2h2.4v-8.9h-20.5v8.9h3.7v23.1h-3.7v9.1h20.5l.1-9.1h-2.5v-7h6.8v7zm22.3-11.4c0 4 .9 7.6 2.7 10.8 1.8 3.2 4.3 5.8 7.5 7.6 3.2 1.8 6.7 2.8 10.6 2.8 3.9 0 7.4-.9 10.6-2.8 3.2-1.8 5.7-4.4 7.5-7.6 1.8-3.2 2.7-6.9 2.7-10.8 0-4.4-.9-8.2-2.7-11.4-1.8-3.3-4.3-5.8-7.4-7.4-3.1-1.7-6.7-2.5-10.6-2.5-4 0-7.6.8-10.7 2.5-3.1 1.7-5.6 4.2-7.4 7.4-1.8 3.3-2.8 7.1-2.8 11.4zm15.6-4.7c0-.6.1-1.2.2-1.9.1-.6.2-1.2.4-1.8.1-.6.4-1.1.6-1.6.3-.5.6-.9.9-1.3.4-.4.8-.6 1.3-.8.5-.2 1.1-.3 1.8-.3s1.4.1 2 .4c.6.3 1.1.6 1.4 1.1.4.5.7 1 .9 1.6.3.6.5 1.3.6 1.9l.3 2.1c.1.7.1 1.4.1 2.1v5.4c0 .6 0 1.3-.1 2 0 .7-.1 1.3-.2 2s-.2 1.3-.4 1.9c-.2.6-.4 1.2-.6 1.7-.3.5-.6 1-.9 1.4-.4.4-.8.7-1.3.9-.5.2-1.1.3-1.8.3-.6 0-1.1-.1-1.6-.3-.5-.2-.9-.4-1.3-.7-.3-.3-.7-.7-.9-1.1-.3-.4-.5-.9-.7-1.4-.2-.5-.3-1-.4-1.6-.1-.6-.2-1.2-.3-1.7-.1-.6-.1-1.2-.1-1.8 0-.6-.1-1.2 0-1.7v-5c0-.6 0-1.2.1-1.8zm50.1-7v-8.9H265v8.9h3.6v23.1h-3.7v9.1h21.9v-9.1h-3.6v-23.1zM298 388c2.9 1.8 6.5 2.7 10.7 2.7 1.8 0 3.5-.2 5.3-.6 1.8-.4 3.2-.9 4.5-1.5 1.2-.6 2.3-1.1 3.3-1.7 1-.6 1.7-1.1 2.2-1.5l.7-.6v-10.4h-7.6c-.1 1.3-.1 2-.2 2.4-.3 1.4-.9 2.4-1.9 3.2-1 .8-2.2 1.2-3.6 1.2-1 0-1.9-.2-2.7-.6-.8-.4-1.4-.9-1.8-1.5-.4-.6-.8-1.3-1.1-2.2-.3-.8-.5-1.7-.5-2.5-.1-.9-.1-1.8-.2-2.6-.1-.9-.1-1.7 0-2.5v-3.1c0-.6.1-1.3.2-2.1s.2-1.5.4-2.1c.2-.6.4-1.2.7-1.8.3-.6.7-1.2 1.1-1.6.4-.4.9-.7 1.6-1 .6-.3 1.3-.4 2.1-.4 1.1 0 2 .2 2.8.7.8.5 1.4 1.1 1.9 1.8.4.8.8 1.6 1 2.4.2.9.3 1.7.3 2.6h7.6v-16h-7.9l-.9 1.8c-.8-.7-1.7-1.3-2.9-1.7-1.1-.4-2.2-.6-3.1-.7-.9-.1-2-.1-3.2-.1-2.4 0-4.6.4-6.5 1.2-2 .8-3.6 1.9-4.9 3.3-1.3 1.4-2.4 3-3.3 4.9-.9 1.9-1.6 3.8-2 5.8-.4 2-.6 4.1-.6 6.2 0 4.3.7 8 2.2 11.1 1.1 3.3 3.3 5.7 6.3 7.5zm53.5-30.3l1.9 7.7h6.8v-16.6h-32.1v8.9h4v23.1h-4v9.1h32.4v-17.4h-6.9l-1.6 6.8-.3 1.5h-5.6v-7h5.2v-8.9h-5.2v-7.2zm-183.7-40.8c0 .5-.2 1.1-.4 1.8s-.5 1.2-.9 1.6c-.4.4-1 .7-1.7.9s-1.7.4-2.8.4v13h23v-13c-2 0-3.5-.4-4.4-1.2-.9-.8-1.3-2.2-1.3-4.2v-14.5l17.1 32.8h21.9v-40.4c0-1.8.4-3.1 1.3-4.1.9-.9 2.3-1.4 4.4-1.4V276h-23v12.7c.9 0 1.8 0 2.5.1s1.2.3 1.6.7c.4.3.7.6 1 .9.2.3.4.7.5 1.3.1.5.1 1 .1 1.2v18.2L188.8 276h-26.5v12.7h5.7v26.1c-.1.9-.1 1.6-.2 2.1zm61.6 3.9c2.6 4.6 6.1 8.2 10.7 10.9 4.5 2.6 9.5 3.9 15.1 3.9 5.5 0 10.5-1.3 15.1-3.9 4.5-2.6 8.1-6.2 10.7-10.9 2.6-4.6 3.9-9.8 3.9-15.4 0-6.2-1.3-11.6-3.9-16.3-2.6-4.7-6.1-8.2-10.5-10.6-4.4-2.4-9.5-3.6-15.1-3.6-5.7 0-10.8 1.2-15.3 3.6-4.4 2.4-8 5.9-10.5 10.6-2.6 4.7-3.9 10.1-3.9 16.3-.2 5.7 1.1 10.8 3.7 15.4zm18.1-19.6c0-.8.1-1.7.1-2.6 0-.9.1-1.8.3-2.6.2-.9.3-1.7.5-2.5s.5-1.6.9-2.2c.4-.7.8-1.3 1.4-1.8.5-.5 1.1-.9 1.9-1.2.8-.3 1.6-.4 2.5-.4 1.1 0 2 .2 2.9.6.8.4 1.5.9 2 1.5s1 1.4 1.4 2.3c.4.9.7 1.8.8 2.7.2 1 .3 2 .4 3 .1 1 .2 2 .1 3v7.7c0 .9-.1 1.8-.1 2.8 0 1-.1 1.9-.3 2.8-.1.9-.3 1.8-.5 2.7-.2.9-.5 1.7-.9 2.4s-.8 1.4-1.4 1.9c-.5.6-1.2 1-1.9 1.3-.7.3-1.6.5-2.5.5-.8 0-1.6-.1-2.3-.4-.7-.3-1.3-.6-1.8-1s-.9-1-1.3-1.6c-.4-.6-.7-1.3-.9-2-.2-.7-.5-1.5-.6-2.3-.2-.8-.3-1.6-.4-2.5-.1-.8-.1-1.7-.2-2.5-.1-.9-.1-1.7-.1-2.5v-7.1zm49.5 34.4c2.9 0 5.4-.8 7.4-2.4 2-1.6 3-3.8 3-6.6 0-2.7-1-4.9-2.9-6.5-1.9-1.6-4.4-2.4-7.5-2.4-2.9 0-5.3.8-7.2 2.4-1.9 1.6-2.8 3.7-2.8 6.5s1 5 2.9 6.6c1.8 1.6 4.2 2.4 7.1 2.4zm36.8-50.7l-23.9 6.1v9.3h5.9v22.6h-3.2v11.7h24.9v-11.7H334zm-140.7-84.8h31.5v62.5h-31.5zm77.6-56.2c-4.7-3.9-9.8-1.5-9.8-1.5V165c-6.2 13.1-22.3 34.3-22.3 34.3-2.9 2.4-6.7 3.9-9.8 4.9V254c8.9 1.2 12.6 5.3 12.6 5.3H299c4.1 0 8-3.3 8.7-7.4l.5-2.9c.6-3.3-1-6-3.8-7 3.6-.5 6.9-3.6 7.6-7.3l.5-2.9c.5-2.5-.4-4.7-2-6 2.4-1.3 4.3-3.6 4.8-6.4l.5-2.9c.6-3.3-1-6-3.8-7 3.6-.5 6.9-3.6 7.6-7.3l.5-2.9c.7-4.1-2-7.4-6-7.4h-39.9l5.1-24.9c-.7-8.6-3.9-19.3-8.6-23.1z"/><path class="st67" d="M139.4 122.8v217.6h11.9V134.7H351v205.7h11.9V122.8zM351 411.7H151.3v-11.9h-11.9v23.8h223.5v-23.8H351z"/></g></g></svg>